<svg width="717" height="795" viewBox="0 0 717 795" fill="none" xmlns="http://www.w3.org/2000/svg">
<path opacity="0.64" d="M716.992 0C718.377 59.062 543.51 223.413 257.446 260.046C-129.507 309.601 -20.6365 712.869 195.726 773.956C487.326 856.301 716.992 658.91 716.992 658.91" fill="#D5E5FF"/>
<path d="M321.964 421.91H200.489C196.81 421.91 193.828 424.892 193.828 428.571V617.135C193.828 620.814 196.81 623.797 200.489 623.797H321.964C325.643 623.797 328.626 620.814 328.626 617.135V428.571C328.626 424.892 325.643 421.91 321.964 421.91Z" fill="#F9F3F1"/>
<path opacity="0.8" d="M328.373 421.856H193.828V494.741H328.373V421.856Z" fill="#D5E5FF"/>
<path opacity="0.15" d="M312.631 421.09L225.697 444.766V458.329L193.568 468.188V484.089L226.876 473.857L226.989 458.722L295.171 438.937V448.669L328.866 437.618C328.866 437.618 333.336 417.093 312.631 421.09Z" fill="white"/>
<path opacity="0.15" d="M328.379 482.177V494.741H289.968L328.379 482.177Z" fill="white"/>
<path opacity="0.15" d="M327.746 461.5L295.191 471.958L218.582 495.047H251.831L295.191 481.971V476.235L327.746 466.009C327.746 466.009 327.233 468.101 327.746 461.5Z" fill="white"/>
<path d="M325.048 421.856H196.912C195.073 421.856 193.581 423.348 193.581 425.187V620.413C193.581 622.252 195.073 623.743 196.912 623.743H325.048C326.888 623.743 328.379 622.252 328.379 620.413V425.187C328.379 423.348 326.888 421.856 325.048 421.856Z" stroke="#B8D1FF" stroke-width="6" stroke-miterlimit="10"/>
<path d="M640.47 278.532H517.749C514.059 278.532 511.068 281.523 511.068 285.213V475.003C511.068 478.693 514.059 481.684 517.749 481.684H640.47C644.16 481.684 647.151 478.693 647.151 475.003V285.213C647.151 281.523 644.16 278.532 640.47 278.532Z" fill="#F9F3F1"/>
<path d="M225.71 422.03V494.741" stroke="#B8D1FF" stroke-width="4" stroke-miterlimit="10"/>
<path d="M295.198 422.336V495.048" stroke="#B8D1FF" stroke-width="4" stroke-miterlimit="10"/>
<path d="M193.828 475.109H328.712" stroke="#B8D1FF" stroke-width="4" stroke-miterlimit="10"/>
<path d="M193.828 495.048H328.712" stroke="#B8D1FF" stroke-width="7" stroke-miterlimit="10"/>
<path opacity="0.8" d="M647.324 280.283H512.78V365.899H647.324V280.283Z" fill="#D5E5FF"/>
<path opacity="0.15" d="M631.596 279.351L544.662 307.176V323.104L512.533 334.689V353.342L545.841 341.317L545.955 323.537L614.136 300.302V311.766L647.831 298.783C647.831 298.783 652.287 274.708 631.596 279.351Z" fill="white"/>
<path opacity="0.15" d="M647.325 351.137V365.899H608.92L647.325 351.137Z" fill="white"/>
<path opacity="0.15" d="M646.698 326.848L614.143 339.152L537.534 366.272H570.782L614.15 350.91V344.155L646.705 332.164C646.705 332.164 646.185 334.602 646.698 326.848Z" fill="white"/>
<path d="M644.127 278.758H514.705C512.865 278.758 511.374 280.249 511.374 282.089V478.58C511.374 480.42 512.865 481.911 514.705 481.911H644.127C645.966 481.911 647.458 480.42 647.458 478.58V282.089C647.458 280.249 645.966 278.758 644.127 278.758Z" stroke="#B8D1FF" stroke-width="6" stroke-miterlimit="10"/>
<path d="M193.168 625.809L179.778 645.068V645.114H339.138V645.074L328.246 625.809H193.168Z" fill="#CAB497"/>
<path d="M429.736 334.223H373.778C372.307 334.223 371.114 335.416 371.114 336.887V350.877C371.114 352.348 372.307 353.541 373.778 353.541H429.736C431.208 353.541 432.401 352.348 432.401 350.877V336.887C432.401 335.416 431.208 334.223 429.736 334.223Z" stroke="#B8D1FF" stroke-width="2" stroke-miterlimit="10"/>
<path d="M379.108 308.909H323.15C321.678 308.909 320.485 310.102 320.485 311.573V325.563C320.485 327.034 321.678 328.227 323.15 328.227H379.108C380.579 328.227 381.772 327.034 381.772 325.563V311.573C381.772 310.102 380.579 308.909 379.108 308.909Z" fill="#FBB03B"/>
<path d="M559.704 638.772H503.747C502.275 638.772 501.082 639.965 501.082 641.437V655.426C501.082 656.898 502.275 658.091 503.747 658.091H559.704C561.176 658.091 562.369 656.898 562.369 655.426V641.437C562.369 639.965 561.176 638.772 559.704 638.772Z" stroke="#B8D1FF" stroke-width="2" stroke-miterlimit="10"/>
<path d="M518.402 664.086H462.445C460.973 664.086 459.78 665.279 459.78 666.751V680.74C459.78 682.212 460.973 683.405 462.445 683.405H518.402C519.874 683.405 521.067 682.212 521.067 680.74V666.751C521.067 665.279 519.874 664.086 518.402 664.086Z" fill="#FBB03B"/>
<path d="M146.983 492.217H91.0256C89.554 492.217 88.361 493.41 88.361 494.881V508.871C88.361 510.342 89.554 511.535 91.0256 511.535H146.983C148.455 511.535 149.648 510.342 149.648 508.871V494.881C149.648 493.41 148.455 492.217 146.983 492.217Z" fill="#FBB03B"/>
<path d="M350.789 563.476C402.13 564.495 433.8 524.958 422.382 499.251C411.29 474.277 382.205 480.239 374.631 497.466C355.392 541.253 414.314 555.422 432.52 545.143C476.94 520.022 421.442 469.78 460.912 434.067C470.092 425.76 480.637 419.412 489.451 417.473" stroke="#FBB03B" stroke-width="3" stroke-miterlimit="10"/>
<path d="M542.904 280.004V366.259" stroke="#B8D1FF" stroke-width="4" stroke-miterlimit="10"/>
<path d="M613.051 280.37V366.618" stroke="#B8D1FF" stroke-width="4" stroke-miterlimit="10"/>
<path d="M510.715 342.963H646.892" stroke="#B8D1FF" stroke-width="4" stroke-miterlimit="10"/>
<path d="M510.715 366.618H646.892" stroke="#B8D1FF" stroke-width="7" stroke-miterlimit="10"/>
<path d="M511.307 482.231L497.824 501.603C497.82 501.606 497.817 501.61 497.815 501.614C497.812 501.619 497.811 501.624 497.811 501.629C497.811 501.635 497.812 501.64 497.815 501.644C497.817 501.649 497.82 501.653 497.824 501.656H658.183V501.616L647.225 482.231H511.307Z" fill="#CAB497"/>
<path d="M658.356 502.502H497.891V539.66H658.356V502.502Z" fill="#B8D1FF" stroke="#B8D1FF" stroke-width="7" stroke-miterlimit="10"/>
<path d="M511.407 480.539L497.931 499.911V499.964H658.283C658.283 499.964 658.323 499.964 658.283 499.924L647.325 480.539H511.407Z" stroke="#B8D1FF" stroke-width="7" stroke-miterlimit="10"/>
<path d="M307.782 524.346C307.782 524.346 322.111 523.539 325.029 536.097C325.029 536.097 327.227 544.59 341.17 548.521C348.431 550.572 349.883 555.808 349.617 560.358C349.277 565.378 350.69 570.36 353.614 574.454C354.512 575.834 355.264 577.303 355.859 578.838C364.605 598.363 343.987 611.293 343.987 611.293L280.549 593.147C280.549 593.147 264.967 581.822 278.77 567.559C278.77 567.559 279.723 565.774 277.971 561.697C277.37 560.329 277.148 558.824 277.328 557.34C277.509 555.856 278.085 554.448 278.997 553.264C280.643 551.24 282.542 549.436 284.646 547.894C287.9 545.431 290.451 542.158 292.047 538.402C294.465 532.706 299.308 524.799 307.782 524.346Z" fill="#FF3200"/>
<path d="M333.948 554.836L350.309 557.847C350.595 557.9 350.859 558.035 351.069 558.236C351.278 558.438 351.424 558.696 351.488 558.979C352.06 561.847 351.587 564.824 350.156 567.373C350.011 567.643 349.786 567.86 349.511 567.995C349.236 568.131 348.926 568.176 348.624 568.126L332.29 565.608C332.29 565.608 334.708 561.298 333.948 554.836Z" fill="#7AB1D1"/>
<path d="M334.928 560.491C335.387 557.517 334.948 554.98 333.948 554.826C332.948 554.672 331.766 556.959 331.307 559.933C330.849 562.907 331.288 565.444 332.288 565.598C333.288 565.752 334.47 563.465 334.928 560.491Z" fill="#B8D1FF"/>
<path d="M348.178 557.514C348.557 559.258 348.587 561.06 348.267 562.816C347.947 564.572 347.283 566.248 346.312 567.746" stroke="#B8D1FF" stroke-width="0.25" stroke-miterlimit="10" stroke-linecap="round"/>
<path d="M346.599 602.726L335.481 610.027L336.939 570.098L343.361 569.212L346.599 602.726Z" fill="#FFCBA5"/>
<path d="M343.395 569.571C343.395 569.571 345.733 561.91 345.606 559.392C345.433 556.008 342.275 555.102 341.216 555.669C339.931 556.368 342.688 560.638 338.771 564.282C337.799 565.181 336.227 566.167 334.914 565.987C334.615 565.941 334.475 565.827 334.914 566.387C335.711 567.65 336.381 568.989 336.913 570.384L343.395 569.571Z" fill="#FFCBA5"/>
<path d="M313.997 569.058L301.213 565.508C293.606 563.016 290.674 555.169 293.133 547.688L295.671 538.188C296.105 536.618 296.856 535.153 297.875 533.883C298.895 532.612 300.163 531.562 301.602 530.798C303.041 530.034 304.62 529.571 306.244 529.437C307.867 529.304 309.501 529.502 311.046 530.021L313.291 530.754C314.781 531.231 316.164 531.996 317.358 533.007C318.553 534.018 319.537 535.255 320.254 536.646C320.971 538.037 321.407 539.556 321.537 541.116C321.667 542.675 321.488 544.245 321.012 545.736L313.997 569.058Z" fill="#FFCBA5"/>
<path d="M335.687 604.332L335.174 604.998L331.464 592.873L329.065 593.606L331.464 592.88C328.599 578.464 321.118 576.746 321.118 576.746V576.819C320.384 576.554 319.618 576.388 318.84 576.326L299.621 574.754C266.613 569.171 260.597 625.162 260.597 625.162L326.487 625.349L327.56 612.166L328.299 613.498C328.299 613.498 345.453 639.525 346.606 602.766C346.606 602.726 341.023 605.504 335.687 604.332Z" fill="#7AB1D1"/>
<path d="M310.828 546.196C310.918 545.615 310.679 545.095 310.294 545.035C309.909 544.975 309.523 545.398 309.432 545.979C309.342 546.561 309.581 547.081 309.966 547.141C310.352 547.201 310.737 546.778 310.828 546.196Z" fill="#1A1A1A"/>
<path d="M303.925 545.623C303.925 545.623 299.042 551.205 302.679 551.398" stroke="#FF8674" stroke-width="0.5" stroke-miterlimit="10" stroke-linecap="round"/>
<path d="M301.013 555.515C301.68 555.335 305.217 554.336 307.242 552.691C307.255 552.68 307.271 552.673 307.287 552.67C307.304 552.667 307.321 552.668 307.337 552.673C307.352 552.679 307.367 552.688 307.378 552.7C307.39 552.713 307.398 552.728 307.402 552.744C307.606 553.673 307.493 554.644 307.082 555.502C306.89 555.94 306.609 556.334 306.257 556.658C305.905 556.983 305.489 557.23 305.037 557.385C304.584 557.541 304.104 557.6 303.627 557.56C303.15 557.521 302.686 557.382 302.266 557.154C301.67 556.813 301.202 556.287 300.933 555.655C300.927 555.641 300.924 555.625 300.925 555.609C300.926 555.594 300.93 555.578 300.938 555.565C300.946 555.551 300.957 555.54 300.97 555.531C300.983 555.522 300.998 555.517 301.013 555.515V555.515Z" fill="white"/>
<path d="M299.05 543.915C299.256 543.364 299.127 542.806 298.762 542.669C298.396 542.533 297.933 542.869 297.727 543.421C297.521 543.972 297.65 544.53 298.015 544.666C298.381 544.803 298.844 544.467 299.05 543.915Z" fill="#1A1A1A"/>
<path d="M309.847 540.7C309.847 540.7 313.937 541.426 314.576 544.337" stroke="#FF3200" stroke-miterlimit="10" stroke-linecap="round"/>
<path d="M300.101 539.387C299.216 539.057 298.252 539.008 297.338 539.246C296.425 539.485 295.608 539.999 294.998 540.72" stroke="#FF3200" stroke-miterlimit="10" stroke-linecap="round"/>
<path d="M310.133 526.963C310.133 526.963 314.41 545.15 321.837 547.428C329.265 549.706 320.552 527.163 310.133 526.963Z" fill="#FF3200"/>
<path d="M312.212 528.862C312.212 528.862 303.798 537.336 295.351 536.53C295.351 536.53 297.343 525.511 312.212 528.862Z" fill="#FF3200"/>
<path d="M324.689 550.633C324.848 548.679 323.426 546.968 321.512 546.812C319.597 546.656 317.917 548.113 317.757 550.068C317.598 552.022 319.02 553.733 320.935 553.889C322.849 554.045 324.53 552.587 324.689 550.633Z" fill="#FFCBA5"/>
<path d="M320.625 548.507C320.625 548.507 323.57 547.961 322.957 551.085" stroke="#FF8674" stroke-width="0.5" stroke-miterlimit="10" stroke-linecap="round"/>
<path d="M300.94 574.834L305.237 560.025H315.556L315.396 576.08C314.943 577.77 313.895 579.24 312.445 580.219C310.994 581.198 309.239 581.621 307.502 581.409C300.993 580.896 300.94 574.834 300.94 574.834Z" fill="#FFCBA5"/>
<path d="M303.465 566.134C303.465 566.134 307.462 566.534 310.326 564.881C310.326 564.881 307.249 568.878 302.679 568.838L303.465 566.134Z" fill="#F9BA8C"/>
<path d="M193.268 623.464L179.872 642.723V642.769H339.278C339.278 642.769 339.318 642.769 339.278 642.729L328.393 623.464H193.268Z" stroke="#B8D1FF" stroke-width="7" stroke-miterlimit="10"/>
<path d="M339.311 645.287H179.838V682.219H339.311V645.287Z" fill="#B8D1FF" stroke="#B8D1FF" stroke-width="7" stroke-miterlimit="10"/>
<path d="M529.367 378.722C529.367 378.722 515.231 377.923 512.347 390.32C512.347 390.32 509.462 400.173 502.035 402.977C495.066 405.602 500.636 417.633 502.867 421.563C505.165 425.56 517.243 427.985 514.325 432.015C513.313 433.421 571.615 435.459 557.992 421.357C557.992 421.357 557.053 419.598 558.785 415.574C559.375 414.221 559.592 412.734 559.413 411.268C559.234 409.803 558.665 408.412 557.766 407.241C556.14 405.248 554.266 403.47 552.19 401.951C548.969 399.522 546.443 396.29 544.862 392.579C542.517 386.969 537.748 379.162 529.367 378.722Z" fill="#251C0B"/>
<path d="M503.527 408.813L487.372 411.764C487.089 411.815 486.828 411.948 486.62 412.147C486.413 412.346 486.269 412.602 486.206 412.883C485.654 415.716 486.127 418.653 487.539 421.17C487.683 421.435 487.906 421.649 488.177 421.781C488.448 421.914 488.753 421.959 489.051 421.91L505.172 419.425C505.172 419.425 502.794 415.195 503.527 408.813Z" fill="#00A99D"/>
<path d="M505.159 419.466C506.145 419.314 506.577 416.812 506.125 413.878C505.673 410.943 504.507 408.688 503.522 408.839C502.537 408.991 502.104 411.493 502.556 414.428C503.009 417.362 504.174 419.618 505.159 419.466Z" fill="#6BC79D"/>
<path d="M489.497 411.458C489.123 413.179 489.093 414.958 489.409 416.691C489.724 418.424 490.379 420.077 491.336 421.557" stroke="white" stroke-width="0.25" stroke-miterlimit="10" stroke-linecap="round"/>
<path d="M490.903 456.09L502.035 463.298L500.596 423.875L494.254 423.002L490.903 456.09Z" fill="#C6813D"/>
<path d="M494.22 423.355C494.22 423.355 491.909 415.794 492.036 413.309C492.202 409.979 495.366 409.073 496.372 409.632C497.638 410.298 494.92 414.535 498.784 418.132C499.743 419.025 501.295 419.998 502.588 419.818C502.887 419.778 503.021 419.658 502.588 420.211C501.794 421.45 501.125 422.764 500.589 424.135L494.22 423.355Z" fill="#C6813D"/>
<path d="M523.238 422.855L535.862 419.345C543.363 416.887 546.261 409.146 543.856 401.751L541.351 392.379C540.925 390.827 540.185 389.378 539.179 388.122C538.172 386.867 536.92 385.829 535.499 385.075C534.077 384.32 532.516 383.863 530.912 383.733C529.308 383.603 527.694 383.802 526.17 384.318L523.958 385.044C522.486 385.514 521.121 386.27 519.941 387.267C518.761 388.265 517.789 389.485 517.081 390.858C516.372 392.232 515.941 393.731 515.813 395.271C515.684 396.811 515.86 398.361 516.33 399.833L523.238 422.855Z" fill="#C6813D"/>
<path d="M575.805 478.2C575.805 478.2 569.87 422.909 537.288 428.445L518.316 429.99C513.406 430.39 510.795 434.507 509.096 438.757C507.839 441.186 506.802 443.723 505.998 446.338L508.203 447.004L505.992 446.338L501.648 457.663C496.392 458.808 490.896 456.077 490.896 456.077C488.272 493.722 508.969 466.662 508.969 466.662L509.695 465.33L510.761 478.347L575.805 478.2Z" fill="#FF3200"/>
<path d="M527.208 401.218C527.59 401.159 527.827 400.645 527.737 400.07C527.648 399.496 527.266 399.078 526.885 399.138C526.503 399.197 526.266 399.711 526.355 400.285C526.444 400.86 526.826 401.277 527.208 401.218Z" fill="#1A1A1A"/>
<path d="M533.184 399.72C533.184 399.72 538.001 405.229 534.41 405.415" stroke="#754C24" stroke-width="0.5" stroke-miterlimit="10" stroke-linecap="round"/>
<path d="M536.055 409.479C535.389 409.306 531.905 408.32 529.907 406.694C529.894 406.684 529.878 406.677 529.862 406.674C529.845 406.671 529.828 406.672 529.812 406.677C529.796 406.683 529.782 406.692 529.771 406.704C529.759 406.716 529.751 406.731 529.747 406.748C529.543 407.665 529.653 408.625 530.06 409.472C530.251 409.905 530.53 410.293 530.879 410.612C531.227 410.932 531.638 411.175 532.086 411.328C532.533 411.481 533.007 411.539 533.478 411.499C533.95 411.46 534.407 411.323 534.823 411.098C535.418 410.766 535.887 410.246 536.155 409.619C536.161 409.603 536.162 409.586 536.159 409.57C536.157 409.553 536.151 409.537 536.141 409.524C536.131 409.51 536.118 409.499 536.104 409.491C536.089 409.483 536.072 409.479 536.055 409.479V409.479Z" fill="white"/>
<path d="M538.968 398.927C539.33 398.792 539.458 398.241 539.255 397.696C539.051 397.152 538.593 396.82 538.231 396.955C537.869 397.09 537.741 397.641 537.944 398.186C538.148 398.731 538.606 399.062 538.968 398.927Z" fill="#1A1A1A"/>
<path d="M527.336 394.857C527.336 394.857 523.299 395.576 522.672 398.447" stroke="#251C0B" stroke-miterlimit="10" stroke-linecap="round"/>
<path d="M536.955 393.558C537.827 393.232 538.779 393.182 539.68 393.415C540.582 393.647 541.391 394.15 541.998 394.857" stroke="#251C0B" stroke-miterlimit="10" stroke-linecap="round"/>
<path d="M527.049 381.3C527.049 381.3 522.825 399.287 515.498 401.498C508.17 403.71 516.77 381.5 527.049 381.3Z" fill="#251C0B"/>
<path d="M525.004 383.172C525.004 383.172 533.304 391.539 541.658 390.74C541.645 390.74 539.679 379.868 525.004 383.172Z" fill="#251C0B"/>
<path d="M516.991 407.283C518.886 407.131 520.297 405.439 520.142 403.504C519.987 401.569 518.325 400.123 516.431 400.274C514.536 400.426 513.126 402.118 513.28 404.053C513.435 405.988 515.097 407.434 516.991 407.283Z" fill="#C6813D"/>
<path d="M517 401.5C517 401.5 514.089 400.96 514.695 404.045" stroke="#754C24" stroke-width="0.5" stroke-miterlimit="10" stroke-linecap="round"/>
<path d="M536.129 428.551L531.885 413.936H521.7L521.86 429.784C522.307 431.45 523.342 432.899 524.773 433.863C526.203 434.828 527.934 435.243 529.647 435.033C536.075 434.54 536.129 428.551 536.129 428.551Z" fill="#C6813D"/>
<path d="M533.637 419.964C533.637 419.964 529.707 420.357 526.862 418.725C526.862 418.725 529.9 422.676 534.41 422.629L533.637 419.964Z" fill="#B8702F"/>
<path d="M234.85 586.492C234.85 586.492 220.254 597.97 220.254 640.324" stroke="#5D9F73" stroke-width="4" stroke-miterlimit="10"/>
<path d="M241.976 582.046C243.472 580.403 243.876 578.334 242.877 577.425C241.879 576.516 239.857 577.111 238.36 578.754C236.864 580.397 236.461 582.466 237.459 583.375C238.458 584.284 240.48 583.689 241.976 582.046Z" fill="#FBB03B"/>
<path d="M236.509 576.599C236.509 576.599 225.79 585.446 232.059 588.737C236.242 590.935 239.287 582.361 239.287 582.361C239.287 582.361 241.885 572.123 236.509 576.599Z" fill="#F7931E"/>
<path d="M244.449 583.8C244.449 583.8 236.642 595.298 232.778 589.363C230.2 585.366 238.454 581.569 238.454 581.569C238.454 581.569 248.407 578.031 244.449 583.8Z" fill="#FF7D00"/>
<path d="M220.774 627.041C220.774 627.041 231.612 623.797 239.913 608.322C239.913 608.322 223.798 616.762 220.774 627.041Z" fill="#5D9F73"/>
<path d="M193.581 605.271C193.581 605.271 213.16 614.031 213.16 640.324" stroke="#5D9F73" stroke-width="4" stroke-miterlimit="10"/>
<path d="M186.147 597.057C187.992 598.289 188.885 600.201 188.145 601.327C187.406 602.453 185.288 602.36 183.442 601.127C181.597 599.895 181.257 597.17 181.444 596.864C181.757 596.371 184.295 595.825 186.147 597.057Z" fill="#FBCD3B"/>
<path d="M181.511 603.312C181.511 603.312 191.856 612.585 194.168 605.897C195.713 601.427 186.786 599.702 186.786 599.702C186.786 599.702 176.281 598.669 181.511 603.312Z" fill="#F7931E"/>
<path d="M187.433 594.379C187.433 594.379 199.976 600.375 194.687 605.085C191.15 608.229 186.127 600.648 186.127 600.648C186.127 600.648 181.144 591.335 187.433 594.379Z" fill="#FF7D00"/>
<path d="M205.626 615.077C205.626 615.077 209.023 610.553 207.764 601.867C207.764 601.867 203.787 610.047 205.626 615.077Z" fill="#5D9F73"/>
<path d="M212.407 629.772C212.407 629.772 205.079 629.213 197.612 620.519C197.612 620.519 209.043 623.65 212.407 629.772Z" fill="#5D9F73"/>
<path d="M262.502 605.237C262.502 605.237 242.924 614.004 242.924 640.291" stroke="#5D9F73" stroke-width="4" stroke-miterlimit="10"/>
<path d="M269.944 597.024C268.092 598.256 267.206 600.168 267.945 601.294C268.685 602.42 270.803 602.333 272.648 601.101C274.493 599.868 274.84 597.144 274.647 596.831C274.334 596.344 271.789 595.791 269.944 597.024Z" fill="#FBCD3B"/>
<path d="M274.58 603.279C274.58 603.279 264.228 612.552 261.923 605.864C260.371 601.394 269.304 599.668 269.304 599.668C269.304 599.668 279.809 598.636 274.58 603.279Z" fill="#F7931E"/>
<path d="M268.665 594.353C268.665 594.353 256.127 600.348 261.417 605.051C264.947 608.195 269.97 600.614 269.97 600.614C269.97 600.614 274.946 591.302 268.665 594.353Z" fill="#FF7D00"/>
<path d="M250.465 615.05C250.465 615.05 247.067 610.527 248.32 601.833C248.32 601.833 252.297 610.014 250.465 615.05Z" fill="#5D9F73"/>
<path d="M243.683 629.739C243.683 629.739 251.011 629.186 258.479 620.486C258.479 620.486 247.041 623.604 243.683 629.739Z" fill="#5D9F73"/>
<path d="M621.471 444.02C621.471 444.02 606.875 455.498 606.875 497.852" stroke="#5D9F73" stroke-width="4" stroke-miterlimit="10"/>
<path d="M628.559 439.559C630.055 437.916 630.459 435.847 629.461 434.938C628.462 434.029 626.44 434.624 624.944 436.267C623.448 437.91 623.044 439.979 624.043 440.888C625.041 441.797 627.063 441.202 628.559 439.559Z" fill="#DA7582"/>
<path d="M623.13 434.127C623.13 434.127 612.411 442.967 618.68 446.265C622.863 448.463 625.908 439.889 625.908 439.889C625.908 439.889 628.506 429.65 623.13 434.127Z" fill="#EEB6B5"/>
<path d="M631.057 441.322C631.057 441.322 623.249 452.82 619.392 446.891C616.808 442.894 625.061 439.097 625.061 439.097C625.061 439.097 635.054 435.559 631.057 441.322Z" fill="#E19AB3"/>
<path d="M607.395 484.569C607.395 484.569 618.233 481.325 626.534 465.843C626.534 465.843 610.406 474.29 607.395 484.569Z" fill="#5D9F73"/>
<path d="M577.551 462.765C577.551 462.765 597.129 471.525 597.129 497.819" stroke="#5D9F73" stroke-width="4" stroke-miterlimit="10"/>
<path d="M570.116 454.552C571.962 455.784 572.854 457.696 572.115 458.822C571.375 459.948 569.264 459.854 567.412 458.622C565.56 457.39 565.227 454.665 565.413 454.358C565.726 453.866 568.271 453.319 570.116 454.552Z" fill="#DA7582"/>
<path d="M565.48 460.8C565.48 460.8 575.832 470.08 578.137 463.392C579.689 458.922 570.756 457.196 570.756 457.196C570.756 457.196 560.25 456.164 565.48 460.8Z" fill="#EEB6B5"/>
<path d="M571.409 451.874C571.409 451.874 583.946 457.869 578.657 462.579C575.126 465.723 570.103 458.142 570.103 458.142C570.103 458.142 565.107 448.829 571.409 451.874Z" fill="#E19AB3"/>
<path d="M589.595 472.571C589.595 472.571 592.992 468.048 591.74 459.361C591.753 459.361 587.756 467.535 589.595 472.571Z" fill="#5D9F73"/>
<path d="M596.376 487.267C596.376 487.267 589.049 486.707 581.581 478.014C581.581 478.014 593.019 481.145 596.376 487.267Z" fill="#5D9F73"/>
<path d="M656.498 462.765C656.498 462.765 636.919 471.525 636.919 497.819" stroke="#5D9F73" stroke-width="4" stroke-miterlimit="10"/>
<path d="M663.932 454.552C662.087 455.784 661.194 457.696 661.934 458.822C662.673 459.948 664.791 459.854 666.637 458.622C668.482 457.39 669.235 455.218 668.635 454.358C668.036 453.499 665.777 453.319 663.932 454.552Z" fill="#DA7582"/>
<path d="M668.568 460.8C668.568 460.8 658.223 470.08 655.911 463.392C654.366 458.922 663.292 457.196 663.292 457.196C663.292 457.196 673.798 456.164 668.568 460.8Z" fill="#EEB6B5"/>
<path d="M662.64 451.874C662.64 451.874 650.102 457.869 655.392 462.579C658.922 465.723 663.945 458.142 663.945 458.142C663.945 458.142 668.935 448.829 662.64 451.874Z" fill="#E19AB3"/>
<path d="M644.453 472.571C644.453 472.571 641.056 468.048 642.308 459.361C642.308 459.361 646.285 467.535 644.453 472.571Z" fill="#5D9F73"/>
<path d="M637.672 487.267C637.672 487.267 645 486.707 652.467 478.014C652.467 478.014 641.049 481.145 637.672 487.267Z" fill="#5D9F73"/>
</svg>
