<svg width="566" height="1034" viewBox="0 0 566 1034" fill="none" xmlns="http://www.w3.org/2000/svg">
<path opacity="0.25" d="M562.5 699C586.214 977.994 455.5 1065 243 1024.5C86.5352 994.68 33.5 929 0 840.677V540.5V0.5C139 675.5 545.5 499 562.5 699Z" fill="#B8D1FF"/>
<path d="M340.817 933.984C368.507 933.984 390.954 911.521 390.954 883.811C390.954 856.102 368.507 833.639 340.817 833.639C313.128 833.639 290.681 856.102 290.681 883.811C290.681 911.521 313.128 933.984 340.817 933.984Z" fill="#F2B0A1"/>
<path d="M338.611 930.371C365.083 930.371 386.542 908.897 386.542 882.407C386.542 855.916 365.083 834.442 338.611 834.442C312.14 834.442 290.681 855.916 290.681 882.407C290.681 908.897 312.14 930.371 338.611 930.371Z" fill="#FFB4A5"/>
<path d="M419.034 782.997H128.191C123.787 782.997 120.217 779.425 120.217 775.018V674.196C120.217 653.412 137.055 636.562 157.823 636.562H389.442C410.21 636.562 427.048 653.412 427.048 674.196V774.974C427.052 779.409 423.462 782.997 419.034 782.997Z" fill="#D5E5FF"/>
<path d="M419.475 782.997H126.955C123.518 782.997 120.987 780.312 121.793 777.522L148.562 684.475C153.09 668.737 169.94 657.639 189.317 657.639H357.952C377.329 657.639 394.178 668.733 398.707 684.475L425.283 776.84C426.186 779.983 423.338 782.997 419.475 782.997Z" fill="#B8D1FF"/>
<path d="M419.295 783.065H126.775C123.338 783.065 120.807 780.38 121.613 777.591L148.382 684.543C152.91 668.805 169.76 657.707 189.137 657.707H357.771C377.148 657.707 393.998 668.801 398.526 684.543L425.103 776.908C426.001 780.047 423.153 783.065 419.295 783.065Z" fill="#B8D1FF"/>
<path opacity="0.8" d="M304.041 779.63C331.215 779.63 353.243 757.09 353.243 729.285C353.243 701.48 331.215 678.94 304.041 678.94C276.868 678.94 254.839 701.48 254.839 729.285C254.839 757.09 276.868 779.63 304.041 779.63Z" fill="#ACC6FF"/>
<path d="M344.828 885.015C344.828 885.015 350.042 906.69 354.855 906.69C359.669 906.69 370.498 900.268 372.905 897.057C375.311 893.846 379.322 887.424 363.679 893.444C363.679 893.444 357.663 897.057 356.059 881.804L344.828 885.015Z" fill="#BA7C3D"/>
<path d="M341.495 886.171C341.495 886.171 340.316 908.532 335.599 909.492C330.882 910.455 318.99 906.325 315.99 903.66C312.989 900.994 307.787 897.551 324.308 898.277C324.308 898.277 330.786 898.662 329.454 885.349L341.495 886.171Z" fill="#C6813D"/>
<path d="M351.045 743.931L296.096 750.353C296.096 750.353 322.969 843.072 344.628 885.216L356.259 882.005C356.259 882.005 343.425 763.197 334.601 751.156L351.045 743.931Z" fill="#4775D1"/>
<path d="M296.096 750.353L351.146 743.891C351.146 743.891 356.26 816.982 341.543 886.91L329.479 887.022C329.479 887.022 317.39 766.364 322.568 752.356L296.096 750.353Z" fill="#538EFF"/>
<path d="M295.454 766.83C295.943 766.83 296.34 766.433 296.34 765.943C296.34 765.453 295.943 765.056 295.454 765.056C294.964 765.056 294.567 765.453 294.567 765.943C294.567 766.433 294.964 766.83 295.454 766.83Z" fill="#F2F2F2"/>
<path d="M294.363 747.459L284.376 709.609C283.766 707.293 280.457 707.358 279.94 709.694C279.121 713.402 278.271 718.371 277.75 724.573C277.685 725.315 276.988 725.64 276.241 725.668L263.005 726.471C262.275 726.499 262.083 725.941 261.943 725.223C260.635 718.407 255.83 685.579 281.656 674.091C310.535 661.247 325.576 654.625 342.622 667.669C357.354 678.944 362.015 684.941 363.27 686.851C363.523 687.236 363.475 687.746 363.154 688.079L352.048 699.177C351.639 699.599 351.334 699.571 350.961 699.113C348.43 696.015 339.794 687.228 344.427 705.6L351.911 743.843C351.984 744.208 351.715 744.553 351.342 744.577L294.993 747.917C294.7 747.933 294.439 747.74 294.363 747.459Z" fill="#FBB03B"/>
<path d="M347.965 783.615L297.459 786.052C295.903 786.128 294.579 784.924 294.507 783.366L292.843 748.816C292.767 747.258 293.97 745.934 295.526 745.862L346.031 743.425C347.588 743.349 348.911 744.553 348.983 746.111L350.648 780.661C350.72 782.219 349.521 783.543 347.965 783.615Z" fill="#F2F2F2" stroke="#C6813D" stroke-miterlimit="10"/>
<path d="M345.227 747.142L320.762 748.323L321.574 765.161L346.039 763.979L345.227 747.142Z" fill="#7AB1D1"/>
<path d="M347.837 763.799C348.169 763.799 348.438 763.53 348.438 763.197C348.438 762.865 348.169 762.595 347.837 762.595C347.504 762.595 347.235 762.865 347.235 763.197C347.235 763.53 347.504 763.799 347.837 763.799Z" fill="#CCCCCC"/>
<path d="M295.454 767.147C296.118 767.147 296.657 766.608 296.657 765.943C296.657 765.278 296.118 764.739 295.454 764.739C294.789 764.739 294.25 765.278 294.25 765.943C294.25 766.608 294.789 767.147 295.454 767.147Z" fill="#999999"/>
<path d="M321.01 748.333L296.296 749.526L297.109 766.396L321.823 765.202L321.01 748.333Z" fill="#D9E021"/>
<path d="M346.01 763.649L321.545 764.831L322.357 781.669L346.822 780.487L346.01 763.649Z" fill="#FBB03B"/>
<path d="M321.792 764.84L297.079 766.034L297.892 782.904L322.606 781.71L321.792 764.84Z" fill="#FF8674"/>
<path d="M280.924 676.519C281.888 676.265 282.097 673.887 281.392 671.207C280.687 668.528 279.334 666.562 278.37 666.816C277.406 667.07 277.196 669.448 277.901 672.127C278.607 674.807 279.96 676.773 280.924 676.519Z" fill="#C6813D"/>
<path d="M323.006 667.32C323.982 667.118 324.32 664.755 323.761 662.041C323.202 659.327 321.957 657.291 320.981 657.492C320.004 657.694 319.666 660.057 320.226 662.771C320.785 665.485 322.03 667.521 323.006 667.32Z" fill="#C6813D"/>
<path d="M300.909 689.544C312.76 689.544 322.367 679.211 322.367 666.465C322.367 653.719 312.76 643.386 300.909 643.386C289.057 643.386 279.45 653.719 279.45 666.465C279.45 679.211 289.057 689.544 300.909 689.544Z" fill="#C6813D"/>
<path d="M304.097 687.549C304.097 687.549 305.983 691.19 308.389 690.387C310.703 689.617 309.933 685.932 309.933 685.932L304.097 687.549Z" fill="#C6813D"/>
<path d="M298.712 686.779C299.034 686.694 299.2 686.268 299.084 685.826C298.968 685.385 298.613 685.095 298.292 685.18C297.97 685.265 297.804 685.691 297.92 686.133C298.036 686.575 298.391 686.864 298.712 686.779Z" fill="#1A1A1A"/>
<path d="M313.502 682.26C313.81 682.136 313.928 681.707 313.764 681.302C313.601 680.897 313.219 680.669 312.911 680.794C312.603 680.918 312.485 681.347 312.648 681.752C312.812 682.157 313.194 682.385 313.502 682.26Z" fill="#1A1A1A"/>
<path d="M315.517 677.399C315.517 677.399 312.5 677.082 310.202 679.217" stroke="#603813" stroke-miterlimit="10" stroke-linecap="round"/>
<path d="M334.187 778.422C334.187 778.422 336.209 778.446 336.542 776.659C336.542 776.659 336.891 775.235 337.934 774.789C338.912 774.372 338.042 772.686 337.697 772.14C337.344 771.582 335.607 771.313 335.996 770.719C336.133 770.514 327.802 770.587 329.836 772.509C329.836 772.509 329.98 772.754 329.759 773.34C329.607 773.741 329.679 774.195 329.956 774.524C330.132 774.733 330.397 774.974 330.786 775.247C331.259 775.576 331.64 776.017 331.889 776.539C332.258 777.326 332.988 778.409 334.187 778.422Z" fill="#251C0B"/>
<path d="M334.785 772.084L333.008 772.662C331.953 773.059 331.588 774.183 331.981 775.223L332.399 776.547C332.687 777.466 333.702 777.948 334.617 777.603L334.929 777.486C335.804 777.157 336.249 776.19 335.924 775.327L334.785 772.084Z" fill="#C6813D"/>
<path d="M328.488 764.438C328.488 764.438 328.103 771.526 332.743 771.369L335.439 771.028C336.137 770.94 337.324 770.133 337.597 769.226C337.938 767.938 337.837 763.996 337.837 763.996L328.488 764.438Z" fill="#FF3200"/>
<path d="M334.415 775.484C334.47 775.473 334.5 775.398 334.484 775.315C334.467 775.232 334.41 775.174 334.355 775.185C334.301 775.196 334.271 775.272 334.287 775.354C334.304 775.437 334.361 775.495 334.415 775.484Z" fill="#1A1A1A"/>
<path d="M333.509 775.447C333.509 775.447 332.788 774.693 333.297 774.641" stroke="#754C24" stroke-width="0.5" stroke-miterlimit="10" stroke-linecap="round"/>
<path d="M333.04 774.071C333.136 774.091 333.638 774.211 333.935 774.432C333.943 774.44 333.955 774.432 333.959 774.424C333.971 774.368 333.987 774.215 333.898 774.038C333.766 773.786 333.449 773.681 333.209 773.838C333.136 773.886 333.072 773.954 333.032 774.058C333.028 774.058 333.032 774.071 333.04 774.071Z" fill="white"/>
<path d="M332.817 775.878C332.868 775.856 332.883 775.776 332.85 775.698C332.817 775.62 332.749 775.575 332.698 775.597C332.647 775.619 332.632 775.699 332.665 775.776C332.698 775.854 332.766 775.899 332.817 775.878Z" fill="#1A1A1A"/>
<path d="M334.376 776.106C334.376 776.106 334.949 775.977 335.017 775.564" stroke="#251C0B" stroke-width="0.5" stroke-miterlimit="10" stroke-linecap="round"/>
<path d="M333.012 776.351C333.032 776.359 332.583 776.531 332.286 776.198" stroke="#251C0B" stroke-width="0.5" stroke-miterlimit="10" stroke-linecap="round"/>
<path d="M334.5 778.036C334.5 778.036 334.99 775.447 336.02 775.082C337.051 774.717 335.968 777.944 334.5 778.036Z" fill="#251C0B"/>
<path d="M334.781 777.759C334.781 777.759 333.546 776.615 332.358 776.784C332.362 776.78 332.707 778.321 334.781 777.759Z" fill="#251C0B"/>
<path d="M335.996 775.187C336.264 775.154 336.453 774.903 336.419 774.628C336.384 774.354 336.138 774.158 335.87 774.192C335.602 774.226 335.413 774.476 335.447 774.751C335.482 775.026 335.727 775.221 335.996 775.187Z" fill="#C6813D"/>
<path d="M335.844 774.938C335.844 774.938 336.261 774.998 336.157 774.56" stroke="#754C24" stroke-width="0.5" stroke-miterlimit="10" stroke-linecap="round"/>
<path d="M332.912 771.349L333.61 773.408L335.062 773.344L334.941 771.084C334.941 771.084 334.709 770.274 333.798 770.386C332.88 770.494 332.912 771.349 332.912 771.349Z" fill="#C6813D"/>
<path d="M333.321 772.561C333.321 772.561 333.878 772.481 334.296 772.694C334.296 772.694 333.838 772.148 333.193 772.184L333.321 772.561Z" fill="#B8702F"/>
<path d="M308.265 762.643C308.265 762.643 306.328 762.848 305.846 761.166C305.846 761.166 305.493 760.03 303.576 759.589C302.577 759.36 302.345 758.658 302.353 758.04C302.361 757.353 302.14 756.687 301.715 756.153C301.567 755.968 301.474 755.756 301.382 755.575C301.362 755.535 301.342 755.495 301.322 755.455C300.327 753.315 302.285 750.979 304.583 751.517L311.498 753.131C311.498 753.131 313.688 754.564 311.911 756.591C311.911 756.591 311.79 756.843 312.063 757.393C312.244 757.759 312.208 758.196 311.971 758.533C311.818 758.75 311.586 759.011 311.233 759.308C310.812 759.661 310.491 760.119 310.302 760.636C310.018 761.419 309.412 762.523 308.265 762.643Z" fill="#FF3200"/>
<path d="M307.126 756.619L308.882 757.016C309.929 757.305 310.379 758.349 310.098 759.38L309.817 760.685C309.621 761.592 308.694 762.146 307.788 761.897L307.479 761.812C306.612 761.576 306.095 760.689 306.332 759.834L307.126 756.619Z" fill="#FFB4A5"/>
<path d="M304.202 753.512C304.687 755.451 306.107 755.627 306.107 755.627V755.615C306.203 755.643 306.308 755.663 306.42 755.667L309.035 755.752C313.547 756.29 313.371 748.679 313.371 748.679L303.692 749.129L304.202 753.512Z" fill="#7AB1D1"/>
<path d="M307.911 759.726C307.919 759.647 307.883 759.578 307.83 759.572C307.777 759.567 307.728 759.627 307.719 759.706C307.711 759.785 307.747 759.854 307.8 759.86C307.853 759.865 307.902 759.806 307.911 759.726Z" fill="#1A1A1A"/>
<path d="M308.646 759.729C308.646 759.729 309.272 758.939 308.774 758.939" stroke="#FF8674" stroke-width="0.25" stroke-miterlimit="10" stroke-linecap="round"/>
<path d="M308.975 758.369C308.887 758.397 308.413 758.557 308.148 758.794C308.14 758.802 308.128 758.798 308.124 758.786C308.108 758.734 308.076 758.59 308.148 758.409C308.253 758.156 308.546 758.028 308.79 758.152C308.862 758.188 308.931 758.252 308.979 758.345C308.987 758.357 308.983 758.369 308.975 758.369Z" fill="white"/>
<path d="M309.487 759.99C309.511 759.914 309.49 759.84 309.439 759.823C309.389 759.807 309.328 759.856 309.304 759.932C309.28 760.008 309.301 760.083 309.352 760.099C309.402 760.115 309.463 760.066 309.487 759.99Z" fill="#1A1A1A"/>
<path d="M307.876 760.44C307.876 760.44 307.314 760.368 307.21 759.978" stroke="#FF3200" stroke-width="0.25" stroke-miterlimit="10" stroke-linecap="round"/>
<path d="M309.207 760.552C309.187 760.56 309.636 760.689 309.889 760.339" stroke="#FF3200" stroke-width="0.25" stroke-miterlimit="10" stroke-linecap="round"/>
<path d="M307.928 762.302C307.928 762.302 307.226 759.862 306.203 759.605C305.184 759.348 306.516 762.346 307.928 762.302Z" fill="#FF3200"/>
<path d="M307.635 762.061C307.635 762.061 308.718 760.853 309.869 760.909C309.869 760.905 309.673 762.415 307.635 762.061Z" fill="#FF3200"/>
<path d="M306.738 759.212C306.746 758.946 306.541 758.724 306.28 758.715C306.019 758.707 305.8 758.916 305.792 759.182C305.783 759.448 305.988 759.67 306.249 759.678C306.51 759.687 306.729 759.478 306.738 759.212Z" fill="#FFB4A5"/>
<path d="M306.368 759.452C306.368 759.452 305.97 759.549 306.035 759.119" stroke="#FF8674" stroke-width="0.25" stroke-miterlimit="10" stroke-linecap="round"/>
<path d="M308.854 755.748L308.373 757.787L306.973 757.855L306.889 755.675C306.889 755.675 307.037 754.877 307.924 754.901C308.806 754.925 308.854 755.748 308.854 755.748Z" fill="#FFB4A5"/>
<path d="M308.574 756.944C308.574 756.944 308.032 756.916 307.651 757.161C307.651 757.161 308.04 756.599 308.662 756.575L308.574 756.944Z" fill="#FFA490"/>
<path d="M310.852 781.484C310.852 781.484 312.825 781.512 313.403 779.891C313.487 779.654 313.503 779.397 313.475 779.144C313.411 778.574 313.238 777.514 312.817 777.442C311.638 777.242 308.674 775.981 308.485 779.04C308.425 780.019 309.5 781.468 310.852 781.484Z" fill="#603813"/>
<path d="M311.533 774.344L309.528 774.994C308.337 775.443 307.928 776.708 308.365 777.876L308.83 779.365C309.155 780.4 310.294 780.946 311.325 780.557L311.674 780.424C312.66 780.055 313.162 778.963 312.797 777.996L311.533 774.344Z" fill="#C6813D"/>
<path d="M304.454 765.726C304.454 765.726 304.009 773.709 309.239 773.541L312.276 773.164C313.062 773.067 314.401 772.16 314.706 771.137C315.091 769.688 314.987 765.248 314.987 765.248L304.454 765.726Z" fill="#FBB03B"/>
<path d="M311.109 778.197C311.17 778.185 311.205 778.101 311.186 778.01C311.168 777.919 311.104 777.855 311.043 777.867C310.982 777.879 310.948 777.963 310.966 778.054C310.984 778.145 311.048 778.209 311.109 778.197Z" fill="#1A1A1A"/>
<path d="M310.094 778.133C310.094 778.133 309.279 777.282 309.857 777.225" stroke="#754C24" stroke-width="0.25" stroke-miterlimit="10" stroke-linecap="round"/>
<path d="M309.564 776.583C309.672 776.607 310.238 776.74 310.571 776.989C310.579 776.997 310.595 776.993 310.595 776.981C310.607 776.92 310.627 776.744 310.527 776.543C310.378 776.258 310.021 776.142 309.753 776.314C309.672 776.367 309.6 776.443 309.552 776.559C309.548 776.571 309.556 776.579 309.564 776.583Z" fill="white"/>
<path d="M309.286 778.616C309.343 778.592 309.36 778.503 309.324 778.417C309.288 778.331 309.212 778.281 309.155 778.306C309.098 778.33 309.081 778.419 309.117 778.505C309.153 778.59 309.229 778.64 309.286 778.616Z" fill="#1A1A1A"/>
<path d="M311.064 778.875C311.064 778.875 311.71 778.731 311.79 778.265" stroke="#603813" stroke-width="0.25" stroke-miterlimit="10" stroke-linecap="round"/>
<path d="M309.528 779.148C309.552 779.156 309.043 779.353 308.71 778.975" stroke="#603813" stroke-width="0.25" stroke-miterlimit="10" stroke-linecap="round"/>
<path d="M312.268 780.621C312.268 780.621 311.381 778.12 312.544 777.707C313.707 777.294 313.338 779.794 312.268 780.621Z" fill="#603813"/>
<path d="M312.472 780.212C312.472 780.212 310.13 779.449 308.798 779.634C308.794 779.634 309.937 781.958 312.472 780.212Z" fill="#603813"/>
<path d="M312.858 777.833C313.161 777.795 313.376 777.515 313.338 777.207C313.3 776.899 313.023 776.68 312.719 776.718C312.416 776.756 312.201 777.036 312.239 777.344C312.278 777.652 312.555 777.871 312.858 777.833Z" fill="#C6813D"/>
<path d="M312.721 777.563C312.721 777.563 313.194 777.631 313.074 777.137" stroke="#754C24" stroke-width="0.25" stroke-miterlimit="10" stroke-linecap="round"/>
<path d="M309.424 773.517L310.206 775.837L311.842 775.768L311.71 773.22C311.71 773.22 311.453 772.305 310.422 772.429C309.392 772.553 309.424 773.517 309.424 773.517Z" fill="#C6813D"/>
<path d="M309.881 774.881C309.881 774.881 310.511 774.789 310.98 775.034C310.98 775.034 310.463 774.42 309.741 774.456L309.881 774.881Z" fill="#B8702F"/>
<path d="M333.253 762.559C333.253 762.559 335.074 762.579 335.603 761.082C335.683 760.861 335.695 760.624 335.667 760.392C335.607 759.866 335.447 758.886 335.053 758.822C333.962 758.642 331.223 757.486 331.059 760.307C331.01 761.214 332.005 762.551 333.253 762.559Z" fill="#C6813D"/>
<path d="M333.862 755.964L332.013 756.571C330.914 756.988 330.537 758.156 330.95 759.236L331.388 760.612C331.688 761.568 332.743 762.065 333.694 761.704L334.019 761.58C334.929 761.235 335.39 760.227 335.049 759.332L333.862 755.964Z" fill="#EEB6B5"/>
<path d="M327.3 748.025C327.3 748.025 326.911 755.398 331.741 755.23L334.544 754.873C335.27 754.78 336.502 753.941 336.782 752.994C337.131 751.654 337.027 747.556 337.027 747.556L327.3 748.025Z" fill="#D9E021"/>
<path d="M333.491 759.521C333.547 759.51 333.579 759.432 333.562 759.347C333.545 759.262 333.485 759.203 333.428 759.214C333.372 759.226 333.34 759.304 333.357 759.388C333.374 759.473 333.434 759.532 333.491 759.521Z" fill="#1A1A1A"/>
<path d="M332.547 759.468C332.547 759.468 331.793 758.682 332.326 758.63" stroke="#C6813D" stroke-width="0.25" stroke-miterlimit="10" stroke-linecap="round"/>
<path d="M332.053 758.036C332.154 758.056 332.675 758.18 332.984 758.409C332.992 758.417 333.004 758.409 333.008 758.401C333.02 758.345 333.04 758.184 332.944 757.999C332.807 757.738 332.474 757.63 332.226 757.791C332.15 757.839 332.085 757.911 332.041 758.019C332.037 758.027 332.045 758.036 332.053 758.036Z" fill="white"/>
<path d="M331.832 759.936C331.885 759.914 331.9 759.831 331.866 759.751C331.832 759.672 331.762 759.626 331.709 759.648C331.656 759.671 331.641 759.754 331.674 759.833C331.708 759.913 331.779 759.959 331.832 759.936Z" fill="#1A1A1A"/>
<path d="M333.445 760.151C333.445 760.151 334.039 760.018 334.115 759.585" stroke="#C6813D" stroke-width="0.25" stroke-miterlimit="10" stroke-linecap="round"/>
<path d="M332.025 760.408C332.045 760.416 331.58 760.596 331.267 760.247" stroke="#C6813D" stroke-width="0.25" stroke-miterlimit="10" stroke-linecap="round"/>
<path d="M334.56 761.756C334.56 761.756 333.734 759.448 334.809 759.063C335.884 758.678 335.547 760.994 334.56 761.756Z" fill="#C6813D"/>
<path d="M334.745 761.383C334.745 761.383 331.355 760.022 330.962 762.29C330.966 762.29 335.238 763.872 334.745 761.383Z" fill="#C6813D"/>
<path d="M335.108 759.15C335.387 759.115 335.583 758.854 335.547 758.568C335.51 758.282 335.254 758.08 334.975 758.115C334.696 758.151 334.5 758.412 334.536 758.697C334.573 758.983 334.829 759.186 335.108 759.15Z" fill="#EEB6B5"/>
<path d="M334.969 758.935C334.969 758.935 335.406 758.995 335.294 758.541" stroke="#C6813D" stroke-width="0.25" stroke-miterlimit="10" stroke-linecap="round"/>
<path d="M331.913 755.206L332.643 757.345L334.155 757.277L334.023 754.925C334.023 754.925 333.782 754.082 332.831 754.198C331.881 754.319 331.913 755.206 331.913 755.206Z" fill="#EEB6B5"/>
<path d="M332.342 756.466C332.342 756.466 332.924 756.382 333.357 756.603C333.357 756.603 332.88 756.037 332.21 756.073L332.342 756.466Z" fill="#E5A9A7"/>
<path opacity="0.2" d="M345.213 747.144L296.322 749.505L297.93 782.851L346.821 780.49L345.213 747.144Z" fill="#999999"/>
<path d="M263.006 726.471C263.006 726.471 271.429 725.668 276.242 725.668C276.242 726.471 278.997 743.783 283.722 755.045C284.28 756.37 285.483 757.305 286.903 757.522L293.027 758.136C293.34 758.168 293.613 758.377 293.701 758.678C294.211 760.412 293.89 764.602 293.89 764.602C293.89 766.44 294.868 768.074 296.693 768.279C299.168 768.556 302.244 769.081 302.714 770.021C303.5 771.594 301.972 772.979 294.72 772.272C294.491 772.248 294.291 772.429 294.291 772.658V773.834C294.291 774.99 285.663 773.388 281.456 768.616C275.439 761.792 267.017 748.547 263.006 726.471Z" fill="#C6813D"/>
<path d="M283.578 754.877C283.578 754.877 275.014 734.748 272.949 725.765L276.166 725.668C276.166 725.668 280.485 747.965 283.578 754.877Z" fill="#BA7C3D"/>
<path d="M353.251 697.973L362.476 688.742C362.476 688.742 375.712 702.388 370.899 718.042L357.262 739.315C357.262 739.315 358.064 748.948 353.251 753.363C353.251 753.363 353.051 754.768 344.026 754.166C344.026 754.166 341.218 763.398 338.812 762.595C338.812 762.595 336.806 762.595 341.619 749.751C341.619 749.751 341.619 739.717 349.24 736.506C349.24 736.506 360.471 713.226 360.471 710.416C360.471 707.606 353.251 697.973 353.251 697.973Z" fill="#C6813D"/>
<path d="M353.239 697.989L356.303 695.063L360.435 709.561L353.239 697.989Z" fill="#BA7C3D"/>
<path opacity="0.4" d="M326.177 748.081L330.489 747.841L312.601 782.162L307.543 782.463L326.177 748.081Z" fill="#F2F2F2"/>
<path opacity="0.4" d="M331.969 747.792L333.405 747.712L314.999 782.074L313.334 782.17L331.969 747.792Z" fill="#F2F2F2"/>
<path d="M300.026 682.609C300.026 682.609 296.998 682.44 294.808 684.688" stroke="#603813" stroke-miterlimit="10" stroke-linecap="round"/>
<path d="M322.367 667.011C322.367 675.496 315.508 671.787 310.334 676.042C286.245 695.858 279.45 679.759 279.45 667.011C279.45 654.263 280.621 643.723 297.415 640.741C313.194 637.939 322.367 654.267 322.367 667.011Z" fill="#42210B"/>
</svg>

