<?xml version="1.0" encoding="utf-8"?>
<!-- Generator: Adobe Illustrator 23.0.4, SVG Export Plug-In . SVG Version: 6.00 Build 0)  -->
<svg version="1.1" id="Layer_1" xmlns="http://www.w3.org/2000/svg" xmlns:xlink="http://www.w3.org/1999/xlink" x="0px" y="0px"
	 viewBox="0 0 1093 981" style="enable-background:new 0 0 1093 981;" xml:space="preserve">
<style type="text/css">
	.st0{clip-path:url(#SVGID_2_);}
	.st1{opacity:5.000000e-02;enable-background:new    ;}
	.st2{fill:#979BA3;}
	.st3{fill:none;}
	.st4{fill:#FECA76;}
	.st5{fill:#F46060;}
	.st6{fill:#81C9BF;}
	.st7{opacity:0.2;enable-background:new    ;}
	.st8{fill:#ABB2B3;}
	.st9{fill:#8BBFCC;}
	.st10{opacity:0.25;}
	.st11{opacity:0.25;enable-background:new    ;}
	.st12{fill:#BDCEC3;}
	.st13{fill:none;stroke:#000000;stroke-linecap:round;stroke-linejoin:round;stroke-miterlimit:10;}
	.st14{fill:#FFFFFF;}
	.st15{fill:#0B0D0D;}
	.st16{fill:#1CB79D;}
</style>
<g>
	<g>
		<defs>
			<rect id="SVGID_1_" width="1093" height="981"/>
		</defs>
		<clipPath id="SVGID_2_">
			<use xlink:href="#SVGID_1_"  style="overflow:visible;"/>
		</clipPath>
		<g class="st0">
			<g>
				<g class="st1">
					<path class="st2" d="M939-34c-3.9,11-7.3,20.4-8,21.8c-22.1,47.8-52.5,91.8-88.9,129.9c-37.6,39.3-81.7,72.1-129.6,97.7
						c-84.5,45-181.2,55.4-266.8,97c-68.4,33.1-133.2,81.9-170.4,149.5c-54.1,98.2-34.9,219.3,51.5,291.2
						c133.1,110.7,321,140.5,489.2,129.4c25.8-1.7,51.5-4.7,77-8.9c39.1-6.4,77.8-15.5,115.7-27.2c20.1-6.2,40-13.1,59.6-20.7
						c2.7-1.1,14.4-5,26.4-9.5V-34H939z"/>
				</g>
			</g>
			<g>
				<path class="st3" d="M1095-35H938.9c-4,11.2-7.5,20.9-8.1,22.3c-22.1,47.8-52.5,91.8-88.9,129.9
					c-37.6,39.3-81.7,72.1-129.6,97.7c-84.5,45-181.2,55.4-266.8,97c-68.4,33.1-133.2,81.9-170.4,149.5
					c-54.1,98.2-34.9,219.3,51.5,291.2c133,110.7,320.9,140.5,489.1,129.4c25.8-1.7,51.5-4.7,77-8.9c39.1-6.4,77.8-15.5,115.7-27.2
					c20.1-6.2,40-13.1,59.6-20.7c2.8-1.1,14.7-5.1,26.9-9.7L1095-35z"/>
			</g>
			<g>
				<g>
					<path class="st4" d="M1035.7,349.6c-4.7-7.6-14.3-1.2-22.6,6.8c8.1-10.6,15-22.9,6.1-25.6c-5.9-1.8-10.3,3.4-13.4,10.6
						c0.5-7.6-0.8-13.6-6.2-13.4c-10.9,0.3-9,16.4-5.8,29.2h2.6c7,0,12.7,5.1,13.8,11.8C1022.6,364.3,1039.9,356.4,1035.7,349.6z"/>
				</g>
			</g>
			<g>
				<g>
					<path class="st5" d="M442.2,447.8c-1.5,9.1,11.1,12.3,24,13.2c-15.7,1.2-31.9,4.8-27.3,14.7c3.1,6.6,11,6.4,19.9,3.4
						c-7.1,5.6-11.3,11.5-6.9,16.1c5.4,5.7,12.2,2.6,18.6-3.5V453C463.8,452.4,451.9,451,442.2,447.8z"/>
				</g>
				<g>
					<path class="st6" d="M470.5,449.3v-46.6c-0.7-0.2-1.4-0.3-2.2-0.2c-10.4,1.4-8.1,14.9-3.5,27.6c-7.6-13.8-17.6-27.1-24.7-18.8
						c-4.8,5.6-1.3,12.7,5.1,19.5c-8-4.2-15.1-5.6-17.5,0.3c-3.4,8.2,4.3,13.5,14.4,16.8c0.1-0.4,0.2-0.8,0.3-1.3
						C444.7,439.3,458.2,443.6,470.5,449.3z"/>
				</g>
				<g>
					<path class="st6" d="M470.5,449.3c-12.4-5.7-25.9-9.9-28-2.7c-0.1,0.4-0.2,0.9-0.3,1.3c9.7,3.2,21.6,4.6,28.3,5.2V449.3z"/>
				</g>
			</g>
			<g>
				<g>
					<path d="M470.5,700.2c-0.3,0-0.5-0.2-0.5-0.5V371.1c0-8,6.5-14.5,14.5-14.5h512c8,0,14.5,6.5,14.5,14.5V494
						c0,0.3-0.2,0.5-0.5,0.5s-0.5-0.2-0.5-0.5V371.1c0-7.4-6.1-13.5-13.5-13.5h-512c-7.4,0-13.5,6.1-13.5,13.5v328.6
						C471,700,470.8,700.2,470.5,700.2z"/>
				</g>
				<g>
					<path d="M1010.5,595.5c-0.3,0-0.5-0.2-0.5-0.5v-54.1c0-0.3,0.2-0.5,0.5-0.5s0.5,0.2,0.5,0.5V595
						C1011,595.3,1010.8,595.5,1010.5,595.5z"/>
				</g>
				<g>
					<path d="M1010.5,738c-0.3,0-0.5-0.2-0.5-0.5v-81.1c0-0.3,0.2-0.5,0.5-0.5s0.5,0.2,0.5,0.5v81.1
						C1011,737.8,1010.8,738,1010.5,738z"/>
				</g>
				<g>
					<path d="M430,738h-62.9c-0.3,0-0.5-0.2-0.5-0.5v-18.9c0-0.3,0.2-0.5,0.5-0.5h83.2c0.3,0,0.5,0.2,0.5,0.5s-0.2,0.5-0.5,0.5
						h-82.7V737H430c0.3,0,0.5,0.2,0.5,0.5S430.3,738,430,738z"/>
				</g>
				<g>
					<path d="M792.3,738H574c-0.3,0-0.5-0.2-0.5-0.5s0.2-0.5,0.5-0.5h217.8v-17.9H601c-0.3,0-0.5-0.2-0.5-0.5s0.2-0.5,0.5-0.5h191.3
						c0.3,0,0.5,0.2,0.5,0.5v18.9C792.8,737.8,792.6,738,792.3,738z"/>
				</g>
				<g>
					<path d="M1010.5,738h-25c-0.3,0-0.5-0.2-0.5-0.5s0.2-0.5,0.5-0.5h24.5v-17.9h-20c-0.3,0-0.5-0.2-0.5-0.5s0.2-0.5,0.5-0.5h20.5
						c0.3,0,0.5,0.2,0.5,0.5v18.9C1011,737.8,1010.8,738,1010.5,738z"/>
				</g>
				<g>
					<path d="M910.8,738H792.3c-0.3,0-0.5-0.2-0.5-0.5v-18.9c0-0.3,0.2-0.5,0.5-0.5h113.6c0.3,0,0.5,0.2,0.5,0.5s-0.2,0.5-0.5,0.5
						H792.8V737h118c0.3,0,0.5,0.2,0.5,0.5S911.1,738,910.8,738z"/>
				</g>
				<g class="st7">
					<path class="st8" d="M989.6,724.8h27.4v18.9h-31.9l1.2-16.5l2.3-1C988.6,726.3,989.6,725.8,989.6,724.8z"/>
				</g>
				<g class="st7">
					<polygon class="st8" points="905.9,724.8 798.9,724.8 798.9,743.7 911.3,743.7 910.2,727 907,725.9 					"/>
				</g>
				<g class="st7">
					<path class="st8" d="M890.8,386.6H615.7c-0.7,0-1.3-0.6-1.3-1.3v-14.2c0-0.7,0.6-1.3,1.3-1.3h275.2c0.7,0,1.3,0.6,1.3,1.3v14.2
						C892.2,386,891.6,386.6,890.8,386.6z"/>
				</g>
				<g>
					<path class="st6" d="M971.8,386.6h-32.6c-0.7,0-1.3-0.6-1.3-1.3v-14.2c0-0.7,0.6-1.3,1.3-1.3h32.6c0.7,0,1.3,0.6,1.3,1.3v14.2
						C973.1,386,972.6,386.6,971.8,386.6z"/>
				</g>
				<g>
					<path d="M990.2,387.1c-4.9,0-8.9-4-8.9-8.9c0-4.9,4-8.9,8.9-8.9s8.9,4,8.9,8.9C999.1,383.1,995.1,387.1,990.2,387.1z
						 M990.2,370.3c-4.4,0-7.9,3.5-7.9,7.9c0,4.4,3.5,7.9,7.9,7.9c4.4,0,7.9-3.5,7.9-7.9C998.1,373.8,994.6,370.3,990.2,370.3z"/>
				</g>
				<g>
					<g>
						<path d="M497.8,373.4H484c-0.3,0-0.5-0.2-0.5-0.5s0.2-0.5,0.5-0.5h13.8c0.3,0,0.5,0.2,0.5,0.5S498.1,373.4,497.8,373.4z"/>
					</g>
					<g>
						<path d="M497.8,378.7H484c-0.3,0-0.5-0.2-0.5-0.5s0.2-0.5,0.5-0.5h13.8c0.3,0,0.5,0.2,0.5,0.5S498.1,378.7,497.8,378.7z"/>
					</g>
					<g>
						<path d="M497.8,384H484c-0.3,0-0.5-0.2-0.5-0.5s0.2-0.5,0.5-0.5h13.8c0.3,0,0.5,0.2,0.5,0.5S498.1,384,497.8,384z"/>
					</g>
				</g>
				<g>
					<path d="M590.5,433.7h-97.4c-0.3,0-0.5-0.2-0.5-0.5s0.2-0.5,0.5-0.5h97.4c0.3,0,0.5,0.2,0.5,0.5S590.8,433.7,590.5,433.7z"/>
				</g>
				<g>
					<circle class="st4" cx="485.6" cy="433.2" r="2.3"/>
				</g>
				<g>
					<path d="M590.5,449.9h-50.6c-0.3,0-0.5-0.2-0.5-0.5s0.2-0.5,0.5-0.5h50.6c0.3,0,0.5,0.2,0.5,0.5S590.8,449.9,590.5,449.9z"/>
				</g>
				<g>
					<path d="M526.6,449.9h-33.5c-0.3,0-0.5-0.2-0.5-0.5s0.2-0.5,0.5-0.5h33.5c0.3,0,0.5,0.2,0.5,0.5S526.9,449.9,526.6,449.9z"/>
				</g>
				<g>
					<circle class="st6" cx="485.6" cy="449.4" r="2.3"/>
				</g>
				<g>
					<path d="M590.5,466.2h-29.1c-0.3,0-0.5-0.2-0.5-0.5s0.2-0.5,0.5-0.5h29.1c0.3,0,0.5,0.2,0.5,0.5S590.8,466.2,590.5,466.2z"/>
				</g>
				<g>
					<path d="M512.6,466.2h-19.5c-0.3,0-0.5-0.2-0.5-0.5s0.2-0.5,0.5-0.5h19.5c0.3,0,0.5,0.2,0.5,0.5S512.9,466.2,512.6,466.2z"/>
				</g>
				<g>
					<circle class="st5" cx="485.6" cy="465.7" r="2.3"/>
				</g>
				<g>
					<path d="M590.5,482.5h-34.4c-0.3,0-0.5-0.2-0.5-0.5s0.2-0.5,0.5-0.5h34.4c0.3,0,0.5,0.2,0.5,0.5S590.8,482.5,590.5,482.5z"/>
				</g>
				<g>
					<path d="M507.4,482.5h-14.3c-0.3,0-0.5-0.2-0.5-0.5s0.2-0.5,0.5-0.5h14.3c0.3,0,0.5,0.2,0.5,0.5S507.7,482.5,507.4,482.5z"/>
				</g>
				<g>
					<circle class="st9" cx="485.6" cy="482" r="2.3"/>
				</g>
				<g>
					<path d="M590.5,498.7h-31c-0.3,0-0.5-0.2-0.5-0.5s0.2-0.5,0.5-0.5h31c0.3,0,0.5,0.2,0.5,0.5S590.8,498.7,590.5,498.7z"/>
				</g>
				<g>
					<path d="M519.3,498.7h-26.2c-0.3,0-0.5-0.2-0.5-0.5s0.2-0.5,0.5-0.5h26.2c0.3,0,0.5,0.2,0.5,0.5S519.6,498.7,519.3,498.7z"/>
				</g>
				<g>
					<path d="M937.3,466.2H615.4c-0.3,0-0.5-0.2-0.5-0.5s0.2-0.5,0.5-0.5h321.9c0.3,0,0.5,0.2,0.5,0.5S937.6,466.2,937.3,466.2z"/>
				</g>
				<g>
					<path d="M937.3,482.5H615.4c-0.3,0-0.5-0.2-0.5-0.5s0.2-0.5,0.5-0.5h321.9c0.3,0,0.5,0.2,0.5,0.5S937.6,482.5,937.3,482.5z"/>
				</g>
				<g>
					<path d="M937.5,563.8h-322c-0.3,0-0.5-0.2-0.5-0.5s0.2-0.5,0.5-0.5h322c0.3,0,0.5,0.2,0.5,0.5S937.8,563.8,937.5,563.8z"/>
				</g>
				<g>
					<path d="M894.3,661.4H615.5c-0.3,0-0.5-0.2-0.5-0.5s0.2-0.5,0.5-0.5h278.8c0.3,0,0.5,0.2,0.5,0.5S894.6,661.4,894.3,661.4z"/>
				</g>
				<g class="st10">
					<g class="st11">
						<path d="M937.3,449.9H615.4c-0.3,0-0.5-0.2-0.5-0.5s0.2-0.5,0.5-0.5h321.9c0.3,0,0.5,0.2,0.5,0.5S937.6,449.9,937.3,449.9z"/>
					</g>
					<g class="st11">
						<path d="M937.3,498.7H615.4c-0.3,0-0.5-0.2-0.5-0.5s0.2-0.5,0.5-0.5h321.9c0.3,0,0.5,0.2,0.5,0.5S937.6,498.7,937.3,498.7z"/>
					</g>
					<g class="st11">
						<path d="M937.5,515h-322c-0.3,0-0.5-0.2-0.5-0.5s0.2-0.5,0.5-0.5h322c0.3,0,0.5,0.2,0.5,0.5S937.8,515,937.5,515z"/>
					</g>
					<g class="st11">
						<path d="M937.5,531.3h-322c-0.3,0-0.5-0.2-0.5-0.5s0.2-0.5,0.5-0.5h322c0.3,0,0.5,0.2,0.5,0.5S937.8,531.3,937.5,531.3z"/>
					</g>
					<g class="st11">
						<path d="M902.2,580.1H615.4c-0.3,0-0.5-0.2-0.5-0.5s0.2-0.5,0.5-0.5h286.8c0.3,0,0.5,0.2,0.5,0.5S902.5,580.1,902.2,580.1z"/>
					</g>
					<g class="st11">
						<path d="M896.3,596.3H615.4c-0.3,0-0.5-0.2-0.5-0.5s0.2-0.5,0.5-0.5h280.9c0.3,0,0.5,0.2,0.5,0.5S896.6,596.3,896.3,596.3z"/>
					</g>
					<g class="st11">
						<path d="M892.2,612.6H615.4c-0.3,0-0.5-0.2-0.5-0.5s0.2-0.5,0.5-0.5h276.8c0.3,0,0.5,0.2,0.5,0.5S892.5,612.6,892.2,612.6z"/>
					</g>
					<g class="st11">
						<path d="M892.9,628.9H571c-0.3,0-0.5-0.2-0.5-0.5s0.2-0.5,0.5-0.5h321.9c0.3,0,0.5,0.2,0.5,0.5S893.2,628.9,892.9,628.9z"/>
					</g>
					<g class="st11">
						<path d="M895,645.1H615.5c-0.3,0-0.5-0.2-0.5-0.5s0.2-0.5,0.5-0.5H895c0.3,0,0.5,0.2,0.5,0.5S895.3,645.1,895,645.1z"/>
					</g>
					<g class="st11">
						<path d="M998,449.9h-16.2c-0.3,0-0.5-0.2-0.5-0.5s0.2-0.5,0.5-0.5H998c0.3,0,0.5,0.2,0.5,0.5S998.3,449.9,998,449.9z"/>
					</g>
				</g>
				<g>
					<path d="M937.3,433.7H615.4c-0.3,0-0.5-0.2-0.5-0.5s0.2-0.5,0.5-0.5h321.9c0.3,0,0.5,0.2,0.5,0.5S937.6,433.7,937.3,433.7z"/>
				</g>
				<g>
					<path d="M937.5,547.5h-322c-0.3,0-0.5-0.2-0.5-0.5s0.2-0.5,0.5-0.5h322c0.3,0,0.5,0.2,0.5,0.5S937.8,547.5,937.5,547.5z"/>
				</g>
				<g>
					<path d="M998,433.7h-16.2c-0.3,0-0.5-0.2-0.5-0.5s0.2-0.5,0.5-0.5H998c0.3,0,0.5,0.2,0.5,0.5S998.3,433.7,998,433.7z"/>
				</g>
				<g>
					<path d="M986.7,466.2h-4.9c-0.3,0-0.5-0.2-0.5-0.5s0.2-0.5,0.5-0.5h4.9c0.3,0,0.5,0.2,0.5,0.5S987,466.2,986.7,466.2z"/>
				</g>
				<g>
					<circle class="st12" cx="485.6" cy="498.2" r="2.3"/>
				</g>
			</g>
			<g>
				<g>
					<g>
						<path class="st6" d="M944.9,801.7c-18.8-1-28.8-7.9-33.5-11.4c-0.2-0.2-0.6,0-0.6,0.3c0.1,2.1,0.2,5.1,0.3,5.9
							c0.1,0.6,0.3,1.2,0.8,1.6c2.4,2.3,11.4,9.7,33.2,10.7c21.8,1.1,35.1-5.9,39-8.1c0.7-0.4,1.2-1.2,1.3-2
							c0.1-0.9,0.2-4.1,0.3-6.1c0-0.3-0.3-0.5-0.5-0.3C979.4,795.4,965.7,802.7,944.9,801.7z"/>
					</g>
					<g>
						<path d="M949.6,806c-1.3,0-2.7,0-4.2-0.1c-19.8-1-27.8-7.3-29.8-9.1c-0.6-0.6-0.9-1.2-0.9-1.8c-0.1-1.2-0.3-3.6-0.6-7
							c-1.2-15.4-3.8-47.5-4.5-60.9c0-0.3,0.2-0.5,0.5-0.5c0.3,0,0.5,0.2,0.5,0.5c0.7,13.4,3.3,45.4,4.5,60.8
							c0.3,3.4,0.5,5.9,0.6,7.1c0,0.4,0.2,0.7,0.6,1.1c1.9,1.8,9.7,7.8,29.2,8.9c19.6,0.9,31.3-4.8,34.4-6.6c0.6-0.3,0.9-0.8,1-1.4
							c0.3-3.5,1-14.4,1.9-27c1.1-16,2.4-34.1,3-42.4c0-0.3,0.3-0.5,0.5-0.5c0.3,0,0.5,0.3,0.5,0.5c-0.6,8.3-1.9,26.4-3,42.4
							c-0.9,12.6-1.6,23.5-1.9,27c-0.1,1-0.6,1.7-1.5,2.2C977.5,800.8,967,806,949.6,806z"/>
					</g>
					<g>
						<path d="M949.9,798.3c-1.4,0-2.9,0-4.5-0.1c-23.7-1.2-30.7-9.6-31-10c-0.2-0.2-0.1-0.5,0.1-0.7c0.2-0.2,0.5-0.1,0.7,0.1
							c0.1,0.1,7.1,8.4,30.2,9.6c23.3,1.2,35.9-7.2,36-7.3c0.2-0.2,0.5-0.1,0.7,0.1c0.2,0.2,0.1,0.5-0.1,0.7
							C982,790.8,970.7,798.3,949.9,798.3z"/>
					</g>
					<g>
						<path d="M971.4,783c-0.2,0-0.4-0.1-0.5-0.4c-0.1-0.3,0.1-0.5,0.3-0.6c7.2-2.1,11.1-4.7,11.2-4.7c0.2-0.2,0.5-0.1,0.7,0.1
							c0.2,0.2,0.1,0.5-0.1,0.7c-0.2,0.1-4,2.7-11.4,4.9C971.5,783,971.4,783,971.4,783z"/>
					</g>
					<g>
						<path d="M971.3,778.2c-0.2,0-0.4-0.1-0.5-0.4c-0.1-0.3,0.1-0.5,0.3-0.6c7.3-2.1,11.1-4.7,11.2-4.7l0.4-0.3
							c0.2-0.2,0.5-0.1,0.7,0.1c0.2,0.2,0.1,0.5-0.1,0.7l-0.4,0.3c-0.2,0.1-4,2.7-11.5,4.9C971.4,778.2,971.3,778.2,971.3,778.2z"/>
					</g>
					<g>
						<path d="M927.2,802.8c-0.3,0-0.5-0.2-0.5-0.5l-1.2-34.5c0-0.3,0.2-0.5,0.5-0.5c0.2,0,0.5,0.2,0.5,0.5l1.2,34.5
							C927.7,802.6,927.5,802.8,927.2,802.8C927.2,802.8,927.2,802.8,927.2,802.8z"/>
					</g>
					<g>
						<path d="M949.2,733.4c-1,0-2.1,0-3.1,0c-22-0.4-35.9-5.6-39.6-7.1c-0.7-0.3-1.1-0.9-1.1-1.6v-11.4c0-0.3,0.2-0.5,0.5-0.5
							s0.5,0.2,0.5,0.5v11.4c0,0.4,0.3,0.5,0.5,0.6c3.7,1.6,17.4,6.7,39.2,7.1c25.2,0.5,38.9-5,42.5-6.7c0.2-0.1,0.4-0.4,0.4-0.5
							l1-12c0-0.3,0.3-0.5,0.5-0.5c0.3,0,0.5,0.3,0.5,0.5l-1,12c0,0.5-0.4,1.1-1,1.4C985.5,728.3,972.6,733.4,949.2,733.4z"/>
					</g>
					<g>
						<path d="M990.5,713.7c-0.3,0-0.5-0.2-0.5-0.5c0-2.4-14.9-5.9-41.8-5.9s-41.8,3.5-41.8,5.9c0,0.3-0.2,0.5-0.5,0.5
							s-0.5-0.2-0.5-0.5c0-4.5,22.1-6.9,42.8-6.9s42.8,2.4,42.8,6.9C991,713.5,990.8,713.7,990.5,713.7z"/>
					</g>
					<g>
						<path class="st12" d="M913.4,714.9c7.7-2.3,20.2-2.9,34.5-2.9c14.8,0,27.8,0.7,35.3,3.2c-7.7,1.3-20.1,3.1-34.1,3.1
							C934.1,718.3,920.9,716.4,913.4,714.9z"/>
					</g>
					<g>
						<path d="M949.7,718.8c-1.4,0-2.8,0-4.2,0c-11.9-0.3-23.3-1.6-33.9-3.9c-0.3-0.1-0.4-0.3-0.4-0.6c0.1-0.3,0.3-0.4,0.6-0.4
							c10.5,2.3,21.9,3.6,33.7,3.9c21.5,0.4,36.2-2.4,44.9-4.8c0.3-0.1,0.5,0.1,0.6,0.3s-0.1,0.5-0.3,0.6
							C982.5,716.2,969,718.8,949.7,718.8z"/>
					</g>
				</g>
				<g>
					<g>
						<path class="st12" d="M977.6,550.5c-5.3-10.9-10.2-26.6-10.4-45.6c-0.2-16-7.3-28.6-16.6-30.3c-1.8-0.3-3.6-0.3-5.5,0.2
							c-11.9,3.1-9.5,10.5-13.9,26.4c-4.4,15.9-13,41.6-16.6,54.8s6,32.8-0.3,82.2s17.4,50.1,25,58.3s7.7,19.8,7.7,19.8l2,0.1
							l2.4,0.1c0,0,0.7-8.9,5-15.5c4.4-6.6,21.4-25.4,20.9-37.6c-0.4-12.2-8.5-39.2,0.4-52.8C986.4,596.9,982.9,561.4,977.6,550.5z"
							/>
					</g>
					<g>
						<g>
							<path d="M934.3,718c-0.2,0-0.4-0.1-0.4-0.3l-0.2-0.4c-0.1-0.3-1.7-5.1,2-11.2l0.6-1c3.3-5.3,5.5-8.9,4.4-25.2
								c-0.3-5.2-1-9.7-1.7-14.1c-1.1-7.1-2-13.2-1-20c1.7-10.7,1.1-18.5-2.7-34.9c-2.3-9.8-6.6-15.5-10.5-20.6
								c-0.9-1.1-1.7-2.2-2.4-3.2c-0.8-1.2-1.5-2.7-2.2-4.4c-2.1-4.7-4.3-9.6-10.2-8.6c-0.3,0-0.5-0.1-0.6-0.4
								c0-0.3,0.1-0.5,0.4-0.6c6.6-1,9.2,4.7,11.2,9.2c0.7,1.6,1.4,3.1,2.2,4.2c0.7,1,1.5,2.1,2.4,3.2c3.9,5.1,8.4,10.9,10.7,21
								c3.8,16.5,4.4,24.4,2.7,35.3c-1,6.6-0.1,12.7,1,19.7c0.7,4.4,1.4,8.9,1.7,14.2c1,16.6-1.3,20.4-4.6,25.7l-0.6,0.9
								c-3.4,5.7-2,10.2-2,10.3l0.2,0.3c0.1,0.2,0,0.5-0.2,0.7C934.5,718,934.4,718,934.3,718z"/>
						</g>
						<g>
							<path class="st13" d="M929.8,700.1"/>
						</g>
						<g>
							<path d="M931.9,718c-0.3,0-0.5-0.2-0.5-0.5c-0.3-4.8-1-11.9-2.1-17.3c-0.5-2.7-1.2-6.1-1.9-10.1c-2.1-11.4-5-27-8.4-41.8
								c-3.7-15.7-7.8-56.5-9.5-73.9l0-0.1c-0.4,0.1-0.7,0.2-1.1,0.3c-4.8,1.4-5.8,4.9-7.4,10.3c-0.6,1.9-1.2,4.1-2.2,6.5
								c-0.7,1.8-1.4,3.3-2,4.7c-2.6,5.6-4.6,10.1-3.9,24.9c0.3,8.2,1.1,12.7,1.7,16.4c0.8,4.8,1.4,8.5,0.7,17.3
								c-1.3,17.2-2.1,28.5,8.8,42.1c4.8,6,10.8,7.1,15.5,7.9c2.6,0.5,4.9,0.9,6.6,2c4.6,3.2,3.7,9.7,3.7,10l-0.1,0.7
								c0,0.3-0.3,0.5-0.6,0.4c-0.3,0-0.5-0.3-0.4-0.6l0.1-0.7c0-0.1,0.8-6.1-3.3-9c-1.4-1-3.6-1.4-6.1-1.8
								c-4.9-0.9-11.1-1.9-16.2-8.3c-11.2-13.9-10.3-25.4-9-42.8c0.7-8.7,0.1-12.2-0.7-17.1c-0.6-3.7-1.4-8.3-1.7-16.5
								c-0.7-15.1,1.4-19.6,4-25.4c0.7-1.4,1.3-2.9,2-4.6c0.9-2.3,1.6-4.5,2.1-6.4c1.6-5.3,2.8-9.5,8.1-11c0.5-0.2,1-0.3,1.5-0.4
								l0.2,0c0.1,0,0.3,0,0.4,0.1c0.1,0.1,0.2,0.2,0.2,0.4l0.1,0.6c1.8,17.4,5.9,58.1,9.5,73.8c3.4,14.9,6.3,30.5,8.4,41.9
								c0.7,4,1.4,7.4,1.9,10.1c1.1,5.4,1.8,12.6,2.1,17.5C932.4,717.7,932.2,718,931.9,718C931.9,718,931.9,718,931.9,718z"/>
						</g>
						<g>
							<g>
								<path d="M910.4,579.4c-0.2,0-0.4-0.1-0.5-0.4c-0.1-0.3,0.1-0.5,0.3-0.6c1.1-0.3,2.3-0.8,3.8-1.4c0.9-0.4,1.7-0.9,2.4-1.4
									c0.2-0.1,0.5-0.1,0.7,0.2c0.1,0.2,0.1,0.5-0.2,0.7c-0.8,0.5-1.6,1-2.6,1.4c-1.5,0.6-2.7,1.1-3.9,1.4
									C910.5,579.4,910.4,579.4,910.4,579.4z"/>
							</g>
							<g>
								<path d="M911.4,589.8c-0.2,0-0.3-0.1-0.4-0.2c-0.2-0.2-0.1-0.5,0.1-0.7c2.3-1.5,4.3-3,6.2-4.5c0.8-0.6,1.7-1.4,2.5-2.2
									l0.2-0.2c0.2-0.2,0.5-0.2,0.7,0c0.2,0.2,0.2,0.5,0,0.7l-0.2,0.2c-0.8,0.7-1.7,1.6-2.6,2.2c-1.9,1.5-3.9,3-6.2,4.5
									C911.6,589.8,911.5,589.8,911.4,589.8z"/>
							</g>
							<g>
								<path d="M912.6,600.8c-0.1,0-0.3-0.1-0.4-0.2c-0.2-0.2-0.1-0.5,0.1-0.7c4-3.1,8.4-6.1,13.4-9.1c0.2-0.1,0.5-0.1,0.7,0.2
									c0.1,0.2,0.1,0.5-0.2,0.7c-5,3-9.4,6-13.4,9.1C912.8,600.8,912.7,600.8,912.6,600.8z"/>
							</g>
							<g>
								<path d="M914,612.7c-0.2,0-0.3-0.1-0.4-0.2c-0.2-0.2-0.1-0.5,0.1-0.7c2.6-1.9,5.4-3.8,8.1-5.6c3.2-2.2,6.5-4.4,9.6-6.8
									c0.2-0.2,0.5-0.1,0.7,0.1c0.2,0.2,0.1,0.5-0.1,0.7c-3.2,2.3-6.5,4.6-9.7,6.8c-2.7,1.8-5.4,3.7-8,5.6
									C914.2,612.7,914.1,612.7,914,612.7z"/>
							</g>
							<g>
								<path d="M915.4,623.6c-0.2,0-0.3-0.1-0.4-0.2c-0.2-0.2-0.1-0.5,0.1-0.7c7.9-6.1,14.1-10.3,20.1-13.6
									c0.2-0.1,0.5-0.1,0.7,0.2c0.1,0.2,0.1,0.5-0.2,0.7c-5.9,3.3-12,7.5-19.9,13.6C915.6,623.6,915.5,623.6,915.4,623.6z"/>
							</g>
							<g>
								<path d="M916.9,634.7c-0.2,0-0.4-0.1-0.4-0.3c-0.1-0.2,0-0.5,0.2-0.7c3-1.6,5.7-3.1,8.1-4.6c2.3-1.4,4.5-3.1,6.6-4.7
									c2-1.5,4-3,6.2-4.4c0.2-0.1,0.5-0.1,0.7,0.2c0.1,0.2,0.1,0.5-0.2,0.7c-2.1,1.3-4.1,2.9-6.1,4.4c-2.1,1.6-4.3,3.3-6.7,4.7
									c-2.4,1.5-5.1,3-8.1,4.6C917.1,634.7,917,634.7,916.9,634.7z"/>
							</g>
							<g>
								<path d="M918.8,645.6c-0.2,0-0.3-0.1-0.4-0.3c-0.1-0.2,0-0.5,0.2-0.7c1.6-0.9,3.3-1.8,4.9-2.6c1.6-0.8,3.3-1.7,4.9-2.6
									c0.8-0.4,1.7-0.9,2.5-1.3c2.7-1.4,5.5-2.9,8.3-4.2c0.3-0.1,0.5,0,0.7,0.3c0.1,0.3,0,0.5-0.3,0.7c-2.8,1.2-5.6,2.7-8.3,4.1
									c-0.8,0.4-1.7,0.9-2.5,1.3c-1.6,0.9-3.3,1.8-4.9,2.6c-1.6,0.8-3.3,1.7-4.9,2.6C919,645.6,918.9,645.6,918.8,645.6z"/>
							</g>
							<g>
								<path d="M921,655.7c-0.2,0-0.4-0.1-0.4-0.3c-0.1-0.2,0-0.5,0.2-0.7c2.9-1.6,5.9-3.1,8.8-4.5c2.9-1.4,5.8-2.9,8.7-4.5
									c0.2-0.1,0.5,0,0.7,0.2c0.1,0.2,0,0.5-0.2,0.7c-2.9,1.5-5.9,3-8.7,4.5c-2.9,1.5-5.9,3-8.8,4.5
									C921.2,655.7,921.1,655.7,921,655.7z"/>
							</g>
							<g>
								<path d="M923.1,665.7c-0.2,0-0.4-0.1-0.5-0.3c-0.1-0.2,0-0.5,0.2-0.7c6.1-2.9,10.9-5.5,15.2-8c0.2-0.1,0.5-0.1,0.7,0.2
									c0.1,0.2,0.1,0.5-0.2,0.7c-4.3,2.5-9.1,5.1-15.2,8C923.2,665.7,923.2,665.7,923.1,665.7z"/>
							</g>
							<g>
								<path d="M924.9,674.9c-0.2,0-0.3-0.1-0.4-0.2c-0.1-0.2-0.1-0.5,0.2-0.7c2.4-1.5,4.9-2.9,7.3-4.4c2.4-1.4,4.8-2.9,7.2-4.3
									c0.2-0.1,0.5-0.1,0.7,0.2s0.1,0.5-0.2,0.7c-2.4,1.4-4.8,2.9-7.2,4.3c-2.5,1.5-4.9,2.9-7.3,4.4
									C925.1,674.9,925,674.9,924.9,674.9z"/>
							</g>
							<g>
								<path d="M926.8,684.5c-0.2,0-0.3-0.1-0.4-0.3c-0.1-0.2,0-0.5,0.2-0.7c1.8-1,3.5-2,5.2-3c1.2-0.8,2.4-1.6,3.5-2.4
									c1.7-1.2,3.4-2.4,5.3-3.5c0.2-0.1,0.5,0,0.7,0.2c0.1,0.2,0,0.5-0.2,0.7c-1.8,1-3.5,2.2-5.2,3.4c-1.2,0.8-2.4,1.7-3.6,2.5
									c-1.7,1-3.4,2-5.2,3C927,684.5,926.9,684.5,926.8,684.5z"/>
							</g>
							<g>
								<path d="M928.1,691.9c-0.2,0-0.4-0.1-0.5-0.3c-0.1-0.3,0-0.5,0.3-0.7l1.1-0.4c1.8-0.7,3.5-1.4,5.3-2.3
									c1.9-1,3.8-2.1,5.5-3.3l1.2-0.8c0.2-0.1,0.5-0.1,0.7,0.2c0.1,0.2,0.1,0.5-0.2,0.7l-1.2,0.8c-1.8,1.2-3.6,2.3-5.6,3.3
									c-1.8,0.9-3.5,1.6-5.3,2.4l-1.1,0.4C928.2,691.9,928.2,691.9,928.1,691.9z"/>
							</g>
							<g>
								<path d="M929.7,700.2c-0.2,0-0.3-0.1-0.4-0.3c-0.1-0.2,0-0.5,0.2-0.7c4.3-2.3,7.9-4.3,11.5-6.6c0.2-0.1,0.5-0.1,0.7,0.2
									c0.1,0.2,0.1,0.5-0.2,0.7c-3.6,2.3-7.2,4.3-11.5,6.6C929.9,700.2,929.8,700.2,929.7,700.2z"/>
							</g>
						</g>
					</g>
					<g>
						<g>
							<path d="M970.2,717.7C970.2,717.7,970.1,717.7,970.2,717.7c-0.4-0.1-0.5-0.3-0.5-0.6c0.2-0.8,3.9-19.2,10.6-27.3
								c1.6-2,4.3-4.7,7.5-7.8c9.4-9.3,23.7-23.5,28.7-39.2c4.1-13-2.2-33.8-7.3-50.6c-3.2-10.5-5.9-19.5-5.9-25.3
								c0-8.4,3-16.3,6.2-24.6c2.6-6.9,5.3-14,6.3-21.6c1.3-9.4-1-15-3.5-20.8c-2-4.7-4-9.5-4.5-16.5c-1.4-18.7-4.4-29.1-8.5-29.3
								c-1.5,3.3-2.8,7.3-4,11.9c-0.1,0.3-0.3,0.4-0.6,0.4c-0.3-0.1-0.4-0.3-0.4-0.6c1.3-4.9,2.7-9,4.2-12.4
								c0.1-0.2,0.2-0.3,0.4-0.3c4.9-0.3,8.3,9.9,9.8,30.3c0.5,6.9,2.5,11.7,4.4,16.2c2.5,6,4.9,11.7,3.6,21.4
								c-1.1,7.8-3.8,14.9-6.4,21.9c-3.1,8.3-6.1,16.1-6.1,24.3c0,5.7,2.7,14.6,5.9,25.1c5.4,17.8,11.5,37.9,7.3,51.2
								c-5,15.9-19.4,30.2-28.9,39.6c-3.1,3.1-5.8,5.7-7.4,7.7c-6.5,7.9-10.4,26.7-10.4,26.9C970.6,717.5,970.4,717.7,970.2,717.7z"
								/>
						</g>
						<g>
							<path d="M965.7,718c-0.2,0-0.4-0.2-0.5-0.4c0-0.3,0-1,0.3-3.2c0.8-6.6,2.8-24-0.9-29.7c-5.8-9.1-9.5-33.1-10-65.9
								c-0.5-31.5,2.1-64,6.8-87.2c9.9-48.4,29.7-77.3,37.1-78.6l0.5,0c0.2,0,0.3,0.1,0.4,0.2c0.1,0.1,0.1,0.3,0,0.5
								c-1.4,2.8-2.8,6.9-4.2,12.2c-0.8,2.9-1.6,6.2-2.6,9.9c-6,22.2-14.9,55.9-17.2,75.3c-2.9,23.2-5.7,104.4-5.7,116.5
								c0,5.2,0.4,10.7,0.7,16.1c0.5,7.7,1,15,0.3,20.2c-0.5,3.4-1.1,7.2-1.8,10.4c-0.2,1-0.4,2-0.5,3c0,0.3-0.3,0.5-0.6,0.4
								c-0.3,0-0.5-0.3-0.4-0.6c0.2-0.9,0.4-1.9,0.5-3c0.6-3.3,1.3-7,1.8-10.4c0.7-5.1,0.2-12.3-0.3-20c-0.4-5.4-0.7-10.9-0.7-16.1
								c0-12.2,2.8-93.4,5.7-116.7c2.3-19.5,11.3-53.2,17.3-75.5c1-3.7,1.9-7,2.6-9.9c1.3-5,2.5-8.8,3.8-11.6
								c-6.7,2.2-26,29.9-35.8,77.7c-9.4,46.2-9.5,132.8,3,152.3c3.9,6,1.9,23.1,1.1,30.4c-0.2,1.4-0.3,2.7-0.3,2.9
								C966.2,717.7,966,717.9,965.7,718C965.7,718,965.7,718,965.7,718z"/>
						</g>
						<g>
							<g>
								<path d="M995.9,462c-0.2,0-0.4-0.2-0.5-0.4c-0.1-0.3,0.1-0.5,0.4-0.6c2.8-0.7,5.6-1.4,8.4-2c0.3-0.1,0.5,0.1,0.6,0.4
									c0.1,0.3-0.1,0.5-0.4,0.6c-2.8,0.6-5.6,1.3-8.4,2C996,462,995.9,462,995.9,462z"/>
							</g>
							<g>
								<path d="M992.7,473.7c-0.3,0-0.5-0.2-0.5-0.5c0-0.3,0.2-0.5,0.5-0.5c1.2-0.1,2.4-0.3,3.6-0.4l0.5-0.1
									c0.7-0.1,1.4-0.2,2.2-0.2c2.7-0.3,5.5-0.6,8-1.4c0.3-0.1,0.5,0,0.6,0.3c0.1,0.3,0,0.5-0.3,0.6c-2.6,0.9-5.5,1.2-8.2,1.5
									c-0.7,0.1-1.4,0.2-2.1,0.2l-0.5,0.1C995.2,473.4,994,473.6,992.7,473.7C992.7,473.7,992.7,473.7,992.7,473.7z"/>
							</g>
							<g>
								<path d="M988.4,489.7c-0.3,0-0.5-0.2-0.5-0.5s0.2-0.5,0.5-0.5c6.9,0,14,0,20.1-2.2c0.3-0.1,0.5,0,0.6,0.3
									c0.1,0.3,0,0.5-0.3,0.6C1002.6,489.7,995.4,489.7,988.4,489.7z"/>
							</g>
							<g>
								<path d="M985.2,502c-0.3,0-0.5-0.2-0.5-0.4c0-0.3,0.2-0.5,0.4-0.6c1.2-0.1,2.4-0.2,3.6-0.4c2.4-0.2,4.9-0.5,7.4-0.8
									c2.6-0.3,5.2-0.7,7.7-1.1c0.6-0.1,1.2-0.1,1.8-0.2c2-0.2,4.3-0.4,6.1-1.2c0.3-0.1,0.5,0,0.7,0.3c0.1,0.3,0,0.5-0.3,0.7
									c-1.9,0.8-4.3,1-6.3,1.2c-0.6,0.1-1.2,0.1-1.7,0.2c-2.6,0.4-5.2,0.8-7.8,1.1c-2.5,0.3-5,0.6-7.5,0.8
									C987.6,501.8,986.4,501.9,985.2,502C985.2,502,985.2,502,985.2,502z"/>
							</g>
							<g>
								<path d="M981.9,515.3c-0.3,0-0.5-0.2-0.5-0.5c0-0.3,0.2-0.5,0.5-0.5c1.5-0.1,3.1-0.1,4.6-0.1c3.8-0.1,7.6-0.2,11.5-0.6
									c5.8-0.5,11.5-1.8,18-3.9c0.3-0.1,0.5,0.1,0.6,0.3c0.1,0.3-0.1,0.5-0.3,0.6c-6.6,2.1-12.4,3.4-18.2,3.9
									c-3.9,0.4-7.8,0.5-11.5,0.6C985,515.2,983.5,515.2,981.9,515.3C981.9,515.3,981.9,515.3,981.9,515.3z"/>
							</g>
							<g>
								<path d="M978.5,530.6c-0.2,0-0.4-0.2-0.5-0.4c0-0.3,0.1-0.5,0.4-0.6c7-1.3,14.1-2,21.1-2.7c5.2-0.5,10.6-1.1,15.8-1.9
									c0.3,0,0.5,0.1,0.6,0.4c0,0.3-0.1,0.5-0.4,0.6c-5.3,0.8-10.7,1.3-15.9,1.9C992.7,528.6,985.5,529.3,978.5,530.6
									C978.6,530.6,978.5,530.6,978.5,530.6z"/>
							</g>
							<g>
								<path d="M989.3,542c-2.2,0-4.4-0.1-6.5-0.1c-2.1-0.1-4.3-0.1-6.5-0.1c-0.3,0-0.5-0.2-0.5-0.5s0.2-0.5,0.5-0.5
									c2.2,0,4.4,0.1,6.5,0.1c3.2,0.1,6.5,0.2,9.7,0.1c3.3-0.1,6.7-0.4,10-0.7c2.7-0.2,5.6-0.5,8.3-0.6c0.3,0,0.5,0.2,0.5,0.5
									s-0.2,0.5-0.5,0.5c-2.8,0.1-5.6,0.4-8.3,0.6c-3.3,0.3-6.7,0.6-10,0.7C991.4,541.9,990.4,542,989.3,542z"/>
							</g>
							<g>
								<path d="M989,557.8c-5.3,0-10.3-0.6-14.8-1.3c-0.3,0-0.5-0.3-0.4-0.6s0.3-0.5,0.6-0.4c5.7,0.8,12.3,1.6,19.1,1.1
									c4-0.3,7.7-1.1,11.7-2l0.4-0.1c0.3-0.1,0.5,0.1,0.6,0.4c0.1,0.3-0.1,0.5-0.4,0.6l-0.4,0.1c-4,0.9-7.7,1.7-11.8,2
									C991.9,557.7,990.4,557.8,989,557.8z"/>
							</g>
							<g>
								<path d="M991.8,570.4c-6.5,0-13-1-18.6-1.9c-0.3,0-0.5-0.3-0.4-0.6c0-0.3,0.3-0.5,0.6-0.4c9.1,1.5,20.5,3.3,30.3,0.4
									c0.3-0.1,0.5,0.1,0.6,0.3c0.1,0.3-0.1,0.5-0.3,0.6C1000,570,995.9,570.4,991.8,570.4z"/>
							</g>
							<g>
								<path d="M979.9,580.1c-2.4,0-4.9-0.2-7.4-0.5c-0.3,0-0.5-0.3-0.4-0.6s0.3-0.5,0.6-0.4c9.5,1.5,18.6-0.3,28.1-2.3
									c1.4-0.3,2.8-0.6,4.2-0.8c0.3,0,0.5,0.1,0.6,0.4c0.1,0.3-0.1,0.5-0.4,0.6c-1.4,0.3-2.8,0.5-4.2,0.8
									C993.8,578.8,986.9,580.1,979.9,580.1z"/>
							</g>
							<g>
								<path d="M971.9,592.7c-0.2,0-0.4-0.1-0.5-0.4c-0.1-0.3,0.1-0.5,0.3-0.6c1.6-0.4,3.2-0.9,4.8-1.4c10.2-2.9,20.7-6,31.3-4.8
									c0.3,0,0.5,0.3,0.4,0.5c0,0.3-0.3,0.5-0.5,0.4c-10.5-1.1-20.9,1.9-30.9,4.8c-1.6,0.5-3.2,0.9-4.8,1.4
									C972,592.7,971.9,592.7,971.9,592.7z"/>
							</g>
							<g>
								<path d="M978.6,602.8c-2.4,0-4.8-0.1-7.3-0.4c-0.3,0-0.5-0.3-0.4-0.6s0.3-0.5,0.6-0.4c6.6,0.7,12.9,0.5,19.2-0.8
									c2.9-0.6,5.9-1.4,8.8-2.1c3.7-1,7.5-2,11.3-2.6c0.3,0,0.5,0.1,0.6,0.4c0,0.3-0.1,0.5-0.4,0.6c-3.8,0.6-7.6,1.6-11.2,2.6
									c-2.9,0.8-5.9,1.6-8.9,2.1C986.8,602.4,982.8,602.8,978.6,602.8z"/>
							</g>
							<g>
								<path d="M975.7,615.4c-1.7,0-3.4-0.1-5-0.5c-0.3-0.1-0.4-0.3-0.4-0.6c0.1-0.3,0.3-0.4,0.6-0.4c7.6,1.5,15.3-0.9,23.5-3.5
									c6.4-2,12.9-4.1,19.5-4.2c0,0,0,0,0,0c0.3,0,0.5,0.2,0.5,0.5s-0.2,0.5-0.5,0.5c-6.4,0-12.9,2.1-19.2,4.1
									C988.5,613.3,982,615.4,975.7,615.4z"/>
							</g>
							<g>
								<path d="M970.2,628.9c-0.2,0-0.4-0.1-0.5-0.3c-0.1-0.3,0.1-0.5,0.3-0.6c0.2-0.1,0.3-0.1,0.5-0.1c0.1,0,0.2,0,0.3-0.1
									c4.9-1.3,9.9-2.5,14.7-3.6c9.6-2,20.7-4.1,31.4-4.1c0.3,0,0.5,0.2,0.5,0.5s-0.2,0.5-0.5,0.5c-10.6,0-21.7,2.1-31.2,4.1
									c-4.9,1.1-9.8,2.3-14.7,3.6c-0.1,0-0.3,0.1-0.4,0.1c-0.1,0-0.2,0-0.3,0.1C970.3,628.9,970.3,628.9,970.2,628.9z"/>
							</g>
							<g>
								<path d="M983.4,643c-3,0-6-0.1-8.9-0.2c-1.6-0.1-3.2-0.1-4.8-0.2c-0.3,0-0.5-0.2-0.5-0.5c0-0.3,0.2-0.5,0.5-0.5
									c1.6,0,3.2,0.1,4.8,0.2c6.2,0.2,12.6,0.4,19-0.3c5.2-0.6,10.1-2.3,14.9-3.9c3.1-1,6.3-2.1,9.6-2.9c0.3-0.1,0.5,0.1,0.6,0.4
									c0.1,0.3-0.1,0.5-0.4,0.6c-3.2,0.8-6.4,1.9-9.5,2.9c-4.8,1.6-9.8,3.3-15.1,3.9C990.2,642.8,986.8,643,983.4,643z"/>
							</g>
							<g>
								<path d="M972.3,659.9c-1.1,0-2.1,0-3.1-0.2c-0.3,0-0.5-0.3-0.4-0.6s0.3-0.5,0.6-0.4c5,0.5,10.5-0.4,15.3-1.3
									c1.5-0.3,2.9-0.5,4.2-0.7c4.6-0.7,9.2-1.5,13.8-2.4c0.7-0.1,1.3-0.2,2-0.3c2.7-0.5,5.4-0.9,8-1.7c0.3-0.1,0.5,0.1,0.6,0.3
									c0.1,0.3-0.1,0.5-0.3,0.6c-2.6,0.8-5.4,1.3-8.1,1.8c-0.7,0.1-1.3,0.2-2,0.3c-4.6,0.9-9.2,1.7-13.8,2.4
									c-1.3,0.2-2.8,0.4-4.2,0.7C980.8,659.1,976.5,659.9,972.3,659.9z"/>
							</g>
							<g>
								<path d="M969.2,674.6c-0.2,0-0.5-0.2-0.5-0.4c0-0.3,0.1-0.5,0.4-0.6c4.8-0.7,9.5-2.3,14.4-4l0.9-0.3
									c5.3-1.9,12.5-4.5,18.5-2.8c0.3,0.1,0.4,0.3,0.3,0.6s-0.4,0.4-0.6,0.3c-5.7-1.6-12.8,0.9-17.9,2.8l-1,0.3
									C978.9,672.2,974.2,673.8,969.2,674.6C969.2,674.6,969.2,674.6,969.2,674.6z"/>
							</g>
							<g>
								<path d="M970.2,690.7c-0.2,0-0.4-0.1-0.5-0.3c-0.1-0.3,0-0.5,0.2-0.7c1.6-0.8,3.2-1.6,4.8-2.5c1.2-0.6,2.3-1.2,3.5-1.8
									l0.9-0.4c3-1.5,6.1-3,9.5-3.7c0.3-0.1,0.5,0.1,0.6,0.4c0.1,0.3-0.1,0.5-0.4,0.6c-3.2,0.7-6.3,2.2-9.2,3.6l-0.9,0.4
									c-1.2,0.6-2.3,1.2-3.5,1.8c-1.6,0.8-3.2,1.7-4.9,2.5C970.3,690.7,970.3,690.7,970.2,690.7z"/>
							</g>
						</g>
					</g>
				</g>
			</g>
			<g>
				<path d="M635.4,357.6c-0.2,0-0.4-0.1-0.5-0.3c-0.1-0.2,0-0.5,0.2-0.7c0.3-0.2,34.1-16.7,74.8-51.1
					c37.6-31.7,88.9-85.6,120.2-162.2l1.3-3.2c1.1-2.7,2.1-5.3,3.1-8c0.1-0.3,0.4-0.4,0.6-0.3c0.3,0.1,0.4,0.4,0.3,0.6
					c-1,2.7-2,5.2-3.1,8l-1.3,3.2c-31.3,76.8-82.8,130.8-120.5,162.6c-40.8,34.5-74.7,51-75,51.2
					C635.5,357.6,635.5,357.6,635.4,357.6z"/>
			</g>
			<g>
				<path d="M844.8,104.5c0,0-0.1,0-0.1,0c-0.3-0.1-0.4-0.4-0.3-0.6c11.1-36.5,21.3-90.1,7.3-138.4c-0.1-0.3,0.1-0.5,0.3-0.6
					c0.3-0.1,0.5,0.1,0.6,0.3c14.1,48.6,3.8,102.4-7.3,139C845.2,104.4,845,104.5,844.8,104.5z"/>
			</g>
			<g>
				<g>
					<path class="st14" d="M431.5,410.7c-0.4-2.6,2-5.3,4.4-6.4s4.6-1.5,5.4-4c0,0,0.2-1,0.8-2.1c0.7-1.4,2.1-2.3,3.7-2.4
						c0.5,0,1,0.1,0.9,0.4c-0.1,1.1,0.1,3.6,0.1,3.6c0.5,3.8-3,6.8-4.9,10.1c-2,3.5-2.3,7.7-2.2,11.7c0.6,15.2,7.3,29.5,15.5,42.3
						s18.1,24.4,26.1,37.3l-12.1,24c-13.6-13.2-23.6-29.9-30.3-47.7c-0.3-0.8-0.6-1.6-0.9-2.4c-2.2-6.2-4.1-12.6-5.6-19
						c-1.5-6.5-2.7-13-3.7-19.5c-0.8-5.7-1.6-11.5-1.7-17.3"/>
				</g>
				<g class="st1">
					<path class="st2" d="M431.5,410.7c-0.4-2.6,2-5.3,4.4-6.4s4.6-1.5,5.4-4c0,0,0.2-1,0.8-2.1c0.7-1.4,2.1-2.3,3.7-2.4
						c0.5,0,1,0.1,0.9,0.4c-0.1,1.1,0.1,3.6,0.1,3.6c0.5,3.8-3,6.8-4.9,10.1c-2,3.5-2.3,7.7-2.2,11.7c0.6,15.2,7.3,29.5,15.5,42.3
						s18.1,24.4,26.1,37.3l-12.1,24c-13.6-13.2-23.6-29.9-30.3-47.7c-0.3-0.8-0.6-1.6-0.9-2.4c-2.2-6.2-4.1-12.6-5.6-19
						c-1.5-6.5-2.7-13-3.7-19.5c-0.8-5.7-1.6-11.5-1.7-17.3"/>
				</g>
				<g>
					<path d="M469.2,525.7c-0.1,0-0.3,0-0.3-0.1c-13-12.6-23.2-28.7-30.4-47.9l-0.9-2.4c-2.3-6.3-4.1-12.8-5.6-19.1
						c-1.4-6.1-2.6-12.5-3.7-19.5c-0.8-5.4-1.6-11.4-1.7-17.4c0-0.3,0.2-0.5,0.5-0.5c0.3,0,0.5,0.2,0.5,0.5
						c0.1,5.9,0.9,11.9,1.7,17.2c1.1,7,2.3,13.3,3.7,19.5c1.5,6.3,3.3,12.6,5.6,18.9l0.9,2.4c7.1,18.8,17.1,34.6,29.7,47l11.7-23.1
						c-4.2-6.7-8.9-13.1-13.5-19.3c-4.2-5.7-8.6-11.6-12.5-17.7c-10-15.6-15.1-29.5-15.6-42.5c-0.1-3.6,0.1-8.2,2.3-12
						c0.6-1,1.2-1.9,1.9-2.8c1.7-2.3,3.3-4.5,2.9-7c0-0.1-0.1-2.1-0.1-3.5c-0.1,0-0.2,0-0.4,0c-1.4,0.1-2.6,0.9-3.3,2.1
						c-0.6,1-0.8,2-0.8,2c-0.7,2.3-2.5,3-4.4,3.8c-0.4,0.2-0.9,0.4-1.3,0.6c-2.3,1-4.5,3.6-4.1,5.9c0,0.3-0.1,0.5-0.4,0.6
						c-0.3,0-0.5-0.1-0.6-0.4c-0.4-2.8,2-5.7,4.7-6.9c0.5-0.2,0.9-0.4,1.3-0.6c1.8-0.7,3.2-1.3,3.8-3.1l0,0c0,0,0.2-1,0.8-2.2
						c0.8-1.5,2.3-2.5,4.1-2.7c0,0,0,0,0,0c1.2,0,1.4,0.6,1.4,0.9c0,1.4,0.1,3.6,0.1,3.6c0.4,2.9-1.4,5.3-3.1,7.7
						c-0.6,0.9-1.3,1.8-1.8,2.7c-2.1,3.6-2.2,8-2.1,11.4c0.5,12.9,5.6,26.6,15.4,42c3.9,6.1,8.2,12,12.4,17.7
						c4.7,6.3,9.5,12.9,13.7,19.6c0.1,0.1,0.1,0.3,0,0.5l-12.1,24C469.6,525.6,469.4,525.7,469.2,525.7
						C469.3,525.7,469.2,525.7,469.2,525.7z"/>
				</g>
				<g>
					<path d="M426.9,419.9c-0.3,0-0.5-0.2-0.5-0.5c-0.1-1.3-0.3-2.9-0.9-4.3c-0.3-0.7-0.7-1.2-1.1-1.8c0,0-0.1-0.1-0.3-0.3
						c-0.2-0.3-0.7-0.9-0.9-1.1c-0.2-0.1-0.4-0.3-0.4-0.5c0-0.3,0.2-0.5,0.5-0.5c0.4,0,0.7,0.4,1.6,1.4c0.1,0.2,0.2,0.3,0.3,0.3
						c0,0,0,0.1,0.1,0.1c0.4,0.6,0.8,1.2,1.1,2c0.7,1.5,0.8,3.3,0.9,4.7C427.4,419.6,427.2,419.9,426.9,419.9
						C426.9,419.9,426.9,419.9,426.9,419.9z M423.4,411.9C423.4,411.9,423.4,411.9,423.4,411.9C423.4,411.9,423.4,411.9,423.4,411.9
						z M423.3,411.9L423.3,411.9L423.3,411.9z"/>
				</g>
				<g>
					<path class="st13" d="M426.9,419.4"/>
				</g>
				<g>
					<path class="st4" d="M540.2,535.6l9.8-5.1c0.3-2.1,1.3-8.9-0.1-7.4c-4.2,4.6-8,6.7-8.7,5l0.4-2.5c0.3-0.9,0.6-2.1,0.6-4.2
						c0-3.7-0.8-6.7-0.8-6.7s-3.1-2.4-11.1,0.4c-3.7,1.3-8.8,1.6-12.7,0.9c-12-2.1-33.1-15.8-39.7-22.4c-0.2-0.2-0.6-0.2-0.8,0.1
						c-0.8,1.3-2.8,4.8-3.7,8.7c-1,4.3-7.1,15.8-9.3,19.2c-0.3,0.5-0.3,1.2,0.2,1.7c5,4.6,34.1,23.4,59.9,27.1
						C552.9,554.3,540.2,535.6,540.2,535.6z"/>
				</g>
				<g>
					<path d="M429.1,899.1c-1.3,0-2.5,0-3.6-0.1c-1.7-0.1-3-1.4-3.2-3.1c-0.5-5.3-1.9-18.7-3.6-34.8c-2.7-25.7-6-57.7-7.7-74
						c-3-29.3,3.2-35.2,10.2-41.9c1.1-1.1,2.3-2.2,3.4-3.4l60.7-56.4l20.5-19.1c1.8-1.7,3.8-3.6,6-5.5l0.8-0.7
						c8.4-7.7,7.4-15.6,7.3-15.7c-0.1-2.9-0.1-5.7,0-8.5c0-1.7,0.1-3.4,0.1-5.1c0.1-9.5,0.2-20.3-3.5-30c-0.9-2.6-2.2-5.1-3.5-7.5
						c-0.3-0.6-2.6-4.8-2.6-4.8c-0.3-0.5-0.6-1.1-0.9-1.6c-0.6-1.2-1.3-2.4-1.9-3.7c-3.8-7.7-5.1-13.8-4.1-19.4
						c0.5-3.4,1.9-6.8,4.4-10.5c0.6-0.9,1.8-1.3,2.8-0.9c0.3,0.1,0.4,0.4,0.3,0.6c-0.1,0.3-0.4,0.4-0.6,0.3c-0.6-0.2-1.2,0-1.6,0.5
						c-2.4,3.6-3.7,6.8-4.2,10.1c-0.9,5.4,0.4,11.3,4.1,18.8c0.6,1.2,1.3,2.4,1.9,3.6c0.3,0.6,0.6,1.1,0.9,1.6
						c0.1,0.2,2.3,4.2,2.6,4.8c1.3,2.5,2.6,5,3.5,7.7c3.7,9.8,3.6,20.7,3.5,30.4c0,1.7,0,3.4-0.1,5.1c-0.1,2.8-0.1,5.6,0,8.4
						c0,0.3,1.1,8.4-7.7,16.5l-0.8,0.7c-2.1,2-4.2,3.8-5.9,5.5L486,686.2l-60.7,56.4c-1.1,1.2-2.3,2.3-3.4,3.4
						c-6.9,6.6-12.8,12.2-9.9,41.1c1.7,16.3,5,48.3,7.7,74c1.7,16.1,3.1,29.5,3.6,34.8c0.1,1.1,1.1,2.1,2.2,2.2
						c6.4,0.4,14.9-0.5,20.8-1.5c1.3-0.2,2.2-1.3,2.1-2.7c-0.9-11.2-1.3-45.3,3.1-73.8c0-0.3,0.3-0.5,0.6-0.4c0.3,0,0.5,0.3,0.4,0.6
						c-4.4,28.4-4,62.4-3.1,73.6c0.1,1.9-1.2,3.5-2.9,3.7C441.6,898.3,435,899.1,429.1,899.1z"/>
				</g>
				<g>
					<path class="st4" d="M582,519.3c-2.1-2.6-5-4.9-8.1-6.3c-1.5-0.7-3.1-1.2-4.7-1.5c-3-0.5-6.1-0.2-8.8,1.3
						c-7.1,3.9-11,13-17.7,17.4c-7.6,4.9-16.8,10-23,16.6c-2.2,2.4-4.5,4.9-6.4,7.6c-2.4,3.3-4.3,6.9-4.9,10.9
						c-1,6.1,1.1,12.3,3.8,17.9c2.8,5.5,6.3,10.7,8.4,16.6c3.3,8.9,3.3,18.7,3.3,28.2c0,5.1,0,10.1-0.1,15.2c0,3.3,1.1,6.6,3.2,9.1
						l1.1,1.3c4.5,5.5,10.8,9.2,17.7,10.5c10,1.9,22.8,3.3,30.8,0.4c3.8-1.4,8.8-3.4,10.4-7.5c1.1-2.8,0.1-5.7-1.2-8.3
						c-1.4-2.7-3.4-5-4.7-7.7c-4-7.9-4.6-17.7-4.7-26.4c-0.1-9.3,1-18.6,2.9-27.7c0.5-2.6,1.1-5.1,1.8-7.6c1.2-4.8,1.9-6.6,3.6-12.9
						c2.1-7.9,3.3-16,3.6-24.2C588.6,534.2,587.1,525.7,582,519.3z"/>
				</g>
				<g>
					<path class="st15" d="M572.1,496.2c3.2-1.4,6.2-3.3,9-5.4c4.3-3.2,8.4-7,11.3-11.6c0.2-0.3,0.4-0.7,0.6-1
						c1.4,4.7,4.3,8.9,8,11.8c1.1,0.9,2.3,1.6,3.6,2.2c6.7,3.2,15,2.2,20.4-2.3c4.5-3.8,6.6-10.2,5.6-15.8c0.8-3,1.1-6.1,1.2-9.2
						c0.2-5-0.4-10.7-4.2-14.1c-2.4-2.2-5.7-3-8.9-3.6c-6.6-1.2-14-1.2-19.3,3c-2.3,1.8-3.9,4.2-5,6.9c-1.1-8.4-5.4-16.4-12-21.7
						c-14.7-11.9-34.4-7.7-48.1,3.6c-4.7,3.9-8.8,8.5-10.1,14.6c14.8,14.9,33,12.9,33,12.9c0,0.1,12-3.1,12-3 M624.4,489.2
						c-5.1,4.3-13,5.2-19.4,2.2c-4.7-2.2-8.4-6.4-10.5-11.5c1.5,1.7,3.5,2.9,5.5,4c5,2.9,10.6,5.9,16.3,5.1c5.1-0.7,9.5-4.5,12-9.1
						c0.6-1.1,1.1-2.3,1.5-3.6C630.1,481.1,628.1,486.1,624.4,489.2z"/>
				</g>
				<g>
					<g>
						<path d="M540.8,568c-0.1,0-0.3,0-0.4,0c-1-0.1-1.9-0.7-2.4-1.5c-0.6-0.9-0.8-1.9-0.5-2.9c2.6-9.6,7.4-21.2,11.3-30.5
							c0.8-1.8,1.5-3.6,2.2-5.2c0.2-0.6,0.5-1.2,0.8-1.8c0.5-1.1,1-2.3,1.4-3.2c1.8-4.3,4.3-7.7,7.4-10c3.3-2.5,8.2-2.8,12.7-0.6
							l3.6,1.7c0.2,0.1,0.4,0.4,0.2,0.7c-0.1,0.2-0.4,0.4-0.7,0.2c-2.9-1.3-10.5-0.4-12.5,1.5c-2.6,2.4-4.3,5.9-5.8,9.3
							c-1.5,3.5-2.9,7-4.2,10.5c-2.4,6.5-6.9,18.9-9.6,29.2C543.8,566.9,542.3,568,540.8,568z M566.8,511.7c-2,0-4,0.5-5.8,1.9
							c-2.9,2.2-5.3,5.4-7,9.6c-0.4,1-0.9,2.1-1.4,3.3c-0.3,0.6-0.5,1.2-0.8,1.8c-0.7,1.6-1.4,3.4-2.2,5.2
							c-3.8,9.3-8.6,20.9-11.2,30.4c-0.2,0.7-0.1,1.5,0.3,2.1c0.4,0.6,1,1,1.7,1.1c1.2,0.2,2.4-0.7,2.8-1.9
							c2.6-10.3,7.2-22.7,9.6-29.2c1.3-3.5,2.7-7,4.2-10.5c1.5-3.5,3.3-7.1,6-9.7c1.6-1.6,6.1-2.5,9.8-2.4l-0.2-0.1c0,0,0,0,0,0
							C571,512.3,568.9,511.7,566.8,511.7z"/>
					</g>
				</g>
				<g>
					<g>
						<path d="M511.5,559.5c-0.4,0-0.8-0.1-1.2-0.2c-0.8-0.3-1.5-1-1.8-1.9c-0.3-0.9-0.2-1.8,0.2-2.6c4.5-8,12.6-18.6,18.4-26.4
							c0.9-1.2,1.7-2.3,2.5-3.4c0.5-0.6,1-1.3,1.5-1.9c0.5-0.6,1-1.3,1.5-1.9c2.5-3.3,5.3-5.6,8.4-6.9c0.3-0.1,0.5,0,0.7,0.3
							c0.1,0.3,0,0.5-0.3,0.7c-3,1.2-5.6,3.4-8,6.5c-0.5,0.6-1,1.3-1.5,1.9c-0.5,0.6-1,1.3-1.5,1.9c-0.8,1-1.6,2.2-2.5,3.4
							c-5.8,7.7-13.8,18.3-18.3,26.3c-0.3,0.6-0.4,1.2-0.2,1.8c0.2,0.6,0.6,1,1.2,1.3c1.1,0.4,2.2,0,2.8-1
							c3.1-5.6,8.3-13.8,16.1-24.9c1.8-2.5,3.9-5.5,6-8.1l0.6-0.7c1.7-2.2,2.9-3.8,5.6-5.2c0.2-0.1,0.5,0,0.7,0.2
							c0.1,0.2,0,0.5-0.2,0.7c-2.5,1.3-3.6,2.7-5.3,4.9l-0.6,0.8c-2.2,2.7-4.2,5.6-6,8.1c-7.8,11.1-13,19.2-16.1,24.9
							C513.7,558.9,512.7,559.5,511.5,559.5z"/>
					</g>
				</g>
				<g>
					<path d="M570.4,630.1c-0.1,0-0.2,0-0.3-0.1c-11.3-8.1-25.1-20.3-26.4-32.6c-1-9.2-0.1-19.1,2.6-30.4c0.1-0.5,0.3-1,0.5-1.5
						c0.5-1.6,1.1-3.2,0.3-4.2c-0.1-0.1-0.4-0.3-0.7-0.5c-0.4-0.2-1-0.4-1.5-0.6c-0.3-0.1-0.4-0.4-0.3-0.6c0.1-0.3,0.4-0.4,0.6-0.3
						c0.6,0.2,1.2,0.4,1.7,0.6c0.5,0.2,0.8,0.5,1,0.7c1.1,1.5,0.5,3.5-0.1,5.2c-0.2,0.5-0.3,1-0.4,1.5c-2.7,11.1-3.6,21-2.6,30
						c1.2,11.9,14.8,23.9,26,31.8c0.2,0.2,0.3,0.5,0.1,0.7C570.7,630,570.6,630.1,570.4,630.1z"/>
				</g>
				<g>
					<path d="M539.3,558.9c0,0-0.1,0-0.1,0c-3.4-0.7-6.7-1-9.9-0.8c-4.4,0.2-9.3-0.7-14.1-2.6c-0.3-0.1-0.4-0.4-0.3-0.6
						c0.1-0.3,0.4-0.4,0.6-0.3c4.7,1.9,9.4,2.8,13.7,2.6c3.3-0.2,6.7,0.1,10.1,0.8c0.3,0.1,0.4,0.3,0.4,0.6
						C539.7,558.7,539.5,558.9,539.3,558.9z"/>
				</g>
				<g>
					<path d="M542.1,532.4c-0.3,0-0.6-0.1-0.9-0.2c-1.1-0.7-1.2-2.5-0.2-5.7c3.7-12.7-8.5-27.5-8.6-27.6c-0.2-0.2-0.1-0.5,0.1-0.7
						s0.5-0.1,0.7,0.1c0,0,3.2,3.9,5.8,9.2c2.5,5,5,12.4,3,19.3c-1.1,3.6-0.5,4.4-0.2,4.6c1.5,0.9,7-3.6,10.5-7.1
						c0.2-0.2,0.5-0.2,0.7,0c0.2,0.2,0.2,0.5,0,0.7C551.5,526.3,545.2,532.4,542.1,532.4z"/>
				</g>
				<g>
					<path d="M568.2,511.8c-0.1,0-0.2,0-0.2-0.1c-6.3-3.4-9.5-13.8-11.2-21.9c-0.1-0.3,0.1-0.5,0.4-0.6c0.3-0.1,0.5,0.1,0.6,0.4
						c1.6,7.9,4.7,18.1,10.6,21.3c0.2,0.1,0.3,0.4,0.2,0.7C568.6,511.7,568.4,511.8,568.2,511.8z"/>
				</g>
				<g>
					<g>
						<g>
							<path d="M514.4,563.2C514.4,563.2,514.3,563.2,514.4,563.2c-0.7-0.1-1.1-0.2-1.1-0.2c-0.3-0.1-0.4-0.3-0.4-0.6
								c0.1-0.3,0.3-0.4,0.6-0.4c0,0,0.4,0.1,1,0.2c0.3,0,0.5,0.3,0.4,0.6C514.9,563,514.6,563.2,514.4,563.2z"/>
						</g>
						<g>
							<path d="M532.8,565.4C532.7,565.4,532.7,565.4,532.8,565.4c-0.7-0.1-1.4-0.2-2.1-0.2c-0.3,0-0.5-0.3-0.5-0.5
								c0-0.3,0.3-0.5,0.5-0.5c0.7,0.1,1.4,0.1,2.1,0.2c0.3,0,0.5,0.3,0.4,0.6C533.2,565.2,533,565.4,532.8,565.4z M526.6,565
								C526.6,565,526.6,565,526.6,565c-0.7,0-1.4-0.1-2.1-0.2c-0.3,0-0.5-0.3-0.4-0.6c0-0.3,0.3-0.5,0.6-0.4c0.7,0.1,1.4,0.2,2,0.2
								c0.3,0,0.5,0.3,0.5,0.5C527.1,564.8,526.8,565,526.6,565z M520.4,564.2C520.4,564.2,520.4,564.2,520.4,564.2
								c-0.8-0.1-1.5-0.2-2.1-0.4c-0.3,0-0.5-0.3-0.4-0.6c0-0.3,0.3-0.5,0.6-0.4c0.7,0.1,1.3,0.2,2,0.3c0.3,0,0.5,0.3,0.4,0.6
								C520.9,564.1,520.7,564.2,520.4,564.2z"/>
						</g>
						<g>
							<path d="M537.9,566.2c0,0-0.1,0-0.1,0c0,0-0.4-0.1-1-0.2c-0.3,0-0.5-0.3-0.4-0.6c0-0.3,0.3-0.5,0.6-0.4c0.6,0.1,1,0.2,1,0.2
								c0.3,0.1,0.4,0.3,0.4,0.6C538.3,566,538.1,566.2,537.9,566.2z"/>
						</g>
					</g>
				</g>
				<g>
					<path d="M537.2,593.5c-0.3,0-0.5-0.2-0.5-0.5c0-0.4,0-1.1,0-2c0-0.3,0.2-0.5,0.5-0.5c0,0,0,0,0,0c0.3,0,0.5,0.2,0.5,0.5
						c0,0.9,0,1.6,0,2C537.7,593.3,537.5,593.5,537.2,593.5C537.2,593.5,537.2,593.5,537.2,593.5z M537.1,587.5
						C537.1,587.5,537.1,587.5,537.1,587.5c-0.3,0-0.5-0.2-0.5-0.5c0-0.7,0-1.3,0-2c0-0.3,0.2-0.5,0.5-0.5c0.3,0,0.5,0.2,0.5,0.5
						c0,0.7,0,1.3,0,2C537.6,587.3,537.4,587.5,537.1,587.5z M537.3,581.5C537.3,581.5,537.3,581.5,537.3,581.5
						c-0.3,0-0.5-0.3-0.5-0.6c0.1-0.5,0.1-1.2,0.2-2c0-0.3,0.3-0.5,0.6-0.4c0.3,0,0.5,0.3,0.4,0.6c-0.1,0.8-0.2,1.4-0.2,2
						C537.8,581.3,537.6,581.5,537.3,581.5z M538.1,575.5C538,575.5,538,575.5,538.1,575.5c-0.3,0-0.5-0.3-0.5-0.6l0.3-2
						c0-0.3,0.3-0.5,0.6-0.4c0.3,0,0.5,0.3,0.4,0.6l-0.3,2C538.5,575.4,538.3,575.5,538.1,575.5z M538.9,569.6
						C538.9,569.6,538.9,569.6,538.9,569.6c-0.3,0-0.5-0.3-0.5-0.6l0.3-2c0-0.3,0.3-0.5,0.6-0.4c0.3,0,0.5,0.3,0.4,0.6l-0.3,2
						C539.4,569.4,539.2,569.6,538.9,569.6z"/>
				</g>
				<g>
					<path d="M511.7,626.4l-15,2c-1.3,0.2-2.6-0.6-3.1-1.8l-9.5-24.9c-0.5-1.4,0.4-2.8,1.8-3l15-2c1.3-0.2,2.6,0.6,3.1,1.8l9.5,24.9
						C514.1,624.8,513.2,626.2,511.7,626.4z"/>
				</g>
				<g>
					<path d="M550.1,659.8h-0.2c-0.6,0-1.2,0-1.8,0c-0.3,0-0.5-0.2-0.5-0.5s0.2-0.5,0.5-0.5c0.6,0,1.2,0,1.8,0h0.2
						c0.3,0,0.5,0.2,0.5,0.5S550.4,659.8,550.1,659.8z M554.1,659.7c-0.3,0-0.5-0.2-0.5-0.5c0-0.3,0.2-0.5,0.5-0.5
						c0.7-0.1,1.3-0.1,2-0.2c0.3,0,0.5,0.2,0.6,0.4s-0.2,0.5-0.4,0.6C555.5,659.5,554.8,659.6,554.1,659.7
						C554.1,659.7,554.1,659.7,554.1,659.7z M544.1,659.5C544.1,659.5,544.1,659.5,544.1,659.5c-0.7-0.1-1.4-0.1-2.1-0.2
						c-0.3,0-0.5-0.3-0.4-0.6c0-0.3,0.3-0.5,0.6-0.4c0.6,0.1,1.3,0.2,2,0.2c0.3,0,0.5,0.3,0.4,0.5
						C544.6,659.3,544.4,659.5,544.1,659.5z M560,658.8c-0.2,0-0.4-0.2-0.5-0.4c-0.1-0.3,0.1-0.5,0.4-0.6c0.6-0.1,1.3-0.3,1.9-0.4
						c0.3-0.1,0.5,0.1,0.6,0.4c0.1,0.3-0.1,0.5-0.4,0.6c-0.7,0.2-1.3,0.3-2,0.5C560.1,658.8,560.1,658.8,560,658.8z M538.2,658.7
						C538.1,658.7,538.1,658.7,538.2,658.7c-0.8-0.1-1.4-0.3-2.1-0.4c-0.3-0.1-0.4-0.3-0.4-0.6c0.1-0.3,0.3-0.4,0.6-0.4
						c0.6,0.1,1.3,0.3,1.9,0.4c0.3,0.1,0.4,0.3,0.4,0.6C538.6,658.5,538.4,658.7,538.2,658.7z M532.3,657.3c0,0-0.1,0-0.1,0
						c-0.7-0.2-1.3-0.4-1.9-0.6c-0.3-0.1-0.4-0.4-0.3-0.6s0.4-0.4,0.6-0.3c0.6,0.2,1.3,0.4,1.9,0.6c0.3,0.1,0.4,0.4,0.3,0.6
						C532.8,657.1,532.6,657.3,532.3,657.3z M565.8,657.2c-0.2,0-0.4-0.1-0.5-0.3c-0.1-0.3,0-0.5,0.3-0.6c0.6-0.2,1.2-0.4,1.8-0.7
						c0.3-0.1,0.5,0,0.7,0.3s0,0.5-0.3,0.7c-0.6,0.3-1.3,0.5-1.9,0.7C565.9,657.2,565.9,657.2,565.8,657.2z M526.6,655.4
						c-0.1,0-0.1,0-0.2,0c-0.7-0.2-1.3-0.5-1.9-0.7c-0.3-0.1-0.4-0.4-0.3-0.6c0.1-0.3,0.4-0.4,0.7-0.3c0.6,0.2,1.2,0.5,1.9,0.7
						c0.3,0.1,0.4,0.4,0.3,0.6C527,655.3,526.8,655.4,526.6,655.4z M521.1,653.1c-0.1,0-0.1,0-0.2,0c-1.2-0.6-1.8-0.9-1.8-0.9
						c-0.2-0.1-0.3-0.4-0.2-0.7c0.1-0.2,0.4-0.3,0.7-0.2c0,0,0.6,0.3,1.8,0.9c0.2,0.1,0.4,0.4,0.2,0.7
						C521.5,653,521.3,653.1,521.1,653.1z"/>
				</g>
				<g>
					<path d="M564,727.5c-0.2,0-0.4-0.1-0.5-0.4c-0.9-3.5-2.7-16-2.8-16.6c-0.5-3.4-1.4-12.1-0.6-17.2c0.7-4.9,13.1-15,13.6-15.4
						c0.2-0.2,0.5-0.1,0.7,0.1c0.2,0.2,0.1,0.5-0.1,0.7c-0.1,0.1-12.6,10.2-13.2,14.8c-0.7,4.6,0,12.8,0.6,17c0,0.1,1.9,13,2.8,16.5
						c0.1,0.3-0.1,0.5-0.4,0.6C564.1,727.5,564,727.5,564,727.5z"/>
				</g>
				<g>
					<path d="M533.7,499c-0.2,0-0.4,0-0.6,0c-8.1-0.2-17.5-5.4-19.8-8.1c-2.3-2.7-0.7-5,0.3-6.5c0.4-0.6,0.8-1.2,0.8-1.5
						c-0.2-0.9,0.2-1.4,0.6-1.7c0.4-0.4,0.8-0.7,0.4-2.1c-0.2-0.9,0.6-1.6,1.4-2.2c0.6-0.5,1.3-1.1,1.4-1.6c0-0.3-0.1-0.6-0.4-0.9
						c-2.2-2.5-4.2-5.1-3.6-6.8c0.2-0.7,0.8-1.1,1.8-1.3c3.1-0.6,8.7-3.3,9.7-9.2c1-6.1,2.8-10.2,2.8-10.3c0.1-0.3,0.4-0.4,0.7-0.3
						c0.3,0.1,0.4,0.4,0.3,0.7c0,0-1.8,4.1-2.8,10.1c-1.1,6.5-7.1,9.3-10.5,10c-0.9,0.2-1,0.5-1,0.7c-0.5,1.4,2.4,4.6,3.4,5.8
						c0.5,0.6,0.7,1.1,0.7,1.7c-0.1,1-0.9,1.7-1.7,2.3c-0.5,0.4-1.1,0.9-1,1.2c0.5,2-0.2,2.6-0.7,3.1c-0.3,0.3-0.4,0.4-0.3,0.7
						c0.2,0.7-0.3,1.5-0.9,2.3c-1,1.5-2.2,3.2-0.4,5.3c2.2,2.5,11.3,7.5,19.1,7.7c3.8,0.1,6.8-0.9,8.9-3c0.2-0.2,0.5-0.2,0.7,0
						c0.2,0.2,0.2,0.5,0,0.7C540.6,497.9,537.6,499,533.7,499z"/>
				</g>
				<g>
					<path class="st14" d="M510.2,632.3c0,0,58.2,20.1,108-4.3l-13.3-22.1c0,0-7.9,2.6-34.5,10.6c-25.2,7.5-38.8,8.9-52.1,4.5
						c-2.1-0.7-4-2-5.2-3.9c0,0-2-3.2-2.1-6.1c-0.2-2.9-2.9-4-3.6-3.8s0,0,0,0s0.4,7.6-2.2,9.3c-2.3,1.5-11.6,2.2-15-3
						s-4.3,3.7-1.2,11.7c3.1,8,10.3,8.4,13.5,7s7.9,0.2,7.9,0.2"/>
				</g>
				<g class="st1">
					<path class="st2" d="M510.2,632.3c0,0,58.2,20.1,108-4.3l-13.3-22.1c0,0-7.9,2.6-34.5,10.6c-25.2,7.5-38.8,8.9-52.1,4.5
						c-2.1-0.7-4-2-5.2-3.9c0,0-2-3.2-2.1-6.1c-0.2-2.9-2.9-4-3.6-3.8s0,0,0,0s0.4,7.6-2.2,9.3c-2.3,1.5-11.6,2.2-15-3
						s-4.3,3.7-1.2,11.7c3.1,8,10.3,8.4,13.5,7s7.9,0.2,7.9,0.2"/>
				</g>
				<g>
					<path d="M561.9,640.5c-21.1,0-38.7-4-46.9-6.3c-0.8,0.8-1.6,1.4-2.4,1.6c-0.6,0.2-1.1,0.2-1.6-0.1c-0.8-0.4-1.1-1.4-1.1-3
						c-1.1-0.3-4.7-1.2-7.2-0.1c-1.6,0.7-4.6,1.1-7.7-0.2c-2-0.8-4.8-2.8-6.5-7.1c-2.3-5.8-2.6-12.8-0.7-13.8
						c0.8-0.4,1.8,0.1,2.7,1.6c3.2,4.9,12.3,4.2,14.3,2.9c1.8-1.2,2-6,2-8.3c-0.1-0.1-0.3-0.2-0.3-0.3c0,0,0-0.1,0-0.1
						c0-0.2,0.1-0.4,0.4-0.5l0.3-0.1c0.5-0.1,1.5,0.1,2.2,0.7c0.7,0.5,1.9,1.6,2,3.6c0.1,2.7,2,5.8,2,5.9c1,1.6,2.5,2.6,3.8,3.2
						c0.6-0.3,1.3-0.3,1.8,0c0.4,0.2,0.7,0.5,0.9,1c12.5,3.7,25.5,2.4,50.3-5c26.3-7.9,34.4-10.6,34.5-10.6c0.2-0.1,0.5,0,0.6,0.2
						l13.3,22.1c0.1,0.1,0.1,0.3,0.1,0.4c0,0.1-0.1,0.2-0.3,0.3C599.6,637.6,579.6,640.5,561.9,640.5z M515.7,633.4
						c15.4,4.2,61.6,13.8,101.8-5.6l-12.8-21.3c-1.9,0.6-10.9,3.5-34.1,10.5c-24.6,7.3-37.8,8.7-50.3,5.1c0.2,1.9-0.7,4.8-2,7.4
						C517.5,631,516.6,632.3,515.7,633.4z M510.9,633c0,1,0.2,1.6,0.6,1.8c0.2,0.1,0.5,0.1,0.8,0c0.5-0.1,1-0.5,1.5-1
						C512.5,633.5,511.5,633.2,510.9,633z M510.2,631.8c0.1,0,0.1,0,0.2,0c0.1,0,1.6,0.5,4.2,1.3c1-1,1.9-2.5,2.7-4
						c1.6-3.1,2.1-5.9,1.8-7.3c-0.3-0.1-0.7-0.2-1-0.3c-2.4-0.8-4.3-2.2-5.5-4.1c-0.1-0.1-2.1-3.3-2.2-6.3c-0.1-1.4-0.9-2.3-1.5-2.7
						c-0.4-0.3-0.8-0.5-1.1-0.5c0,1.8,0,7.5-2.4,9.2c-2.4,1.6-12,2.5-15.7-3.1c-0.8-1.2-1.3-1.4-1.4-1.3c-1.1,0.5-1.2,6.6,1.1,12.5
						c1.2,3.2,3.3,5.4,6,6.6c2.7,1.1,5.4,0.8,6.9,0.2C505.1,630.5,508.9,631.4,510.2,631.8C510.2,631.8,510.2,631.8,510.2,631.8z"/>
				</g>
				<g>
					<g>
						<path class="st4" d="M632.8,620.9c-3.3,6.4-13.8,11.8-20.7,14.8c-1,0.4-2.1,0.1-2.7-0.8c-10.8-17.4-1.1-27.1-12.4-40.3
							c-13.4-15.7-30.3-33.9-37.4-53.2c-0.8-2.1-1.5-4.2-2.1-6.3c-0.1-0.3-0.2-0.6-0.2-1c-1.3-6,2.4-13.5,7.3-17l0.1-0.1
							c3.3-2.3,7.5-2.4,11.6-1.3c3,0.8,5.9,2.3,8.1,4c5.7,4.4,9.4,10.9,12.9,17.2c8.4,15.1,16.8,30.2,25.2,45.3
							c3.5,6.2,8.1,12.4,11.2,18.6C636.5,606.4,635.6,615.5,632.8,620.9z"/>
					</g>
				</g>
				<g>
					<path d="M467.1,912.9c-1.3,0-2.4,0-3.5-0.1c-1.7-0.1-3-1.5-3.2-3.2c-0.6-8.2-5.9-81.2-11.4-108.6c-5.8-29-4.7-35.8,0.2-40.7
						l53.9-53.5c9.7-9.7,19.3-18.6,29.3-27.2c0.2-0.2,0.5-0.2,0.7,0.1c0.2,0.2,0.2,0.5-0.1,0.7c-10,8.6-19.6,17.5-29.3,27.2
						L450,761.1c-4,4-6.1,8.9,0,39.7c5.5,27.5,10.8,100.5,11.4,108.8c0.1,1.2,1,2.2,2.2,2.2c5.2,0.4,11.9-0.1,20.7-1.5
						c1.2-0.2,2.2-1.4,2.1-2.7c-0.9-11-1.3-44.5,3.1-72.9c3.5-22.6-0.4-39-3-46.7c-0.7-1.9,0.1-4.1,1.8-5.1
						c55.5-33.6,78.1-42.9,78.4-43l1-0.4c12.9-5.1,27.5-11,34.3-23.5c5.3-9.8,7-22.6,4.7-35.1c-2.9-16-11.8-24.8-22-34.9
						c-2.1-2.1-4.3-4.2-6.5-6.5c-0.2-0.2-0.2-0.5,0-0.7c0.2-0.2,0.5-0.2,0.7,0c2.2,2.3,4.3,4.4,6.4,6.5
						c10.4,10.3,19.3,19.2,22.3,35.5c2.3,12.7,0.5,25.7-4.9,35.7c-7,12.8-21.8,18.7-34.8,23.9l-0.9,0.4c-0.2,0.1-22.8,9.4-78.2,43
						c-1.3,0.8-1.9,2.4-1.4,3.9c2.6,7.8,6.5,24.3,3,47.1c-4.4,28.3-4,61.8-3.1,72.7c0.1,1.7-1.2,3.4-2.9,3.7
						C477.5,912.4,471.8,912.9,467.1,912.9z"/>
				</g>
				<g>
					<g>
						<g>
							<path d="M444.9,778.3c-0.1,0-0.3-0.1-0.4-0.2c-0.2-0.2-0.1-0.5,0.1-0.7c0.5-0.4,0.8-0.6,0.8-0.6c0.2-0.2,0.5-0.1,0.7,0.1
								s0.1,0.5-0.1,0.7c0,0-0.3,0.2-0.8,0.6C445.1,778.3,445,778.3,444.9,778.3z"/>
						</g>
						<g>
							<path d="M440.9,883.1c-0.3,0-0.5-0.2-0.5-0.4c-0.1-0.6-0.1-1.3-0.2-2c0-0.3,0.2-0.5,0.5-0.5c0.3,0,0.5,0.2,0.5,0.5
								c0.1,0.7,0.1,1.4,0.2,2C441.4,882.8,441.2,883,440.9,883.1C440.9,883.1,440.9,883.1,440.9,883.1z M440.4,877.1
								c-0.3,0-0.5-0.2-0.5-0.5c0-0.6-0.1-1.3-0.1-2c0-0.3,0.2-0.5,0.5-0.5c0.3,0,0.5,0.2,0.5,0.5c0,0.7,0.1,1.3,0.1,2
								C440.9,876.9,440.7,877.1,440.4,877.1C440.4,877.1,440.4,877.1,440.4,877.1z M440.1,871.2c-0.3,0-0.5-0.2-0.5-0.5
								c0-0.6,0-1.3-0.1-2c0-0.3,0.2-0.5,0.5-0.5c0.3,0,0.5,0.2,0.5,0.5c0,0.7,0,1.3,0.1,2C440.6,870.9,440.4,871.2,440.1,871.2
								C440.1,871.2,440.1,871.2,440.1,871.2z M439.9,865.2c-0.3,0-0.5-0.2-0.5-0.5c0-0.7,0-1.3,0-2c0-0.3,0.2-0.5,0.5-0.5
								s0.5,0.2,0.5,0.5c0,0.7,0,1.3,0,2C440.4,865,440.2,865.2,439.9,865.2C439.9,865.2,439.9,865.2,439.9,865.2z M439.9,859.2
								C439.9,859.2,439.9,859.2,439.9,859.2c-0.3,0-0.5-0.2-0.5-0.5c0-0.7,0-1.3,0-2c0-0.3,0.2-0.5,0.5-0.5c0,0,0,0,0,0
								c0.3,0,0.5,0.2,0.5,0.5c0,0.7,0,1.3,0,2C440.4,859,440.2,859.2,439.9,859.2z M440.1,853.3
								C440.1,853.3,440.1,853.3,440.1,853.3c-0.3,0-0.5-0.2-0.5-0.5c0-0.7,0.1-1.3,0.1-2c0-0.3,0.2-0.5,0.5-0.5
								c0.3,0,0.5,0.2,0.5,0.5c0,0.7-0.1,1.3-0.1,2C440.6,853.1,440.4,853.3,440.1,853.3z M440.5,847.3
								C440.4,847.3,440.4,847.3,440.5,847.3c-0.3,0-0.5-0.3-0.5-0.5c0-0.7,0.1-1.3,0.1-2c0-0.3,0.3-0.5,0.5-0.5
								c0.3,0,0.5,0.3,0.5,0.5c-0.1,0.7-0.1,1.3-0.1,2C440.9,847.1,440.7,847.3,440.5,847.3z M440.8,841.4
								C440.8,841.4,440.8,841.4,440.8,841.4c-0.3,0-0.5-0.2-0.5-0.5c0-0.7,0.1-1.3,0.1-2c0-0.3,0.2-0.5,0.5-0.5
								c0.3,0,0.5,0.2,0.5,0.5c0,0.7,0,1.3-0.1,2C441.3,841.2,441.1,841.4,440.8,841.4z M440.9,835.4c-0.3,0-0.5-0.2-0.5-0.5
								c0-0.7,0-1.3,0-2c0-0.3,0.2-0.5,0.5-0.5c0,0,0,0,0,0c0.3,0,0.5,0.2,0.5,0.5c0,0.7,0,1.3,0,2
								C441.4,835.2,441.2,835.4,440.9,835.4L440.9,835.4z M440.8,829.4c-0.3,0-0.5-0.2-0.5-0.5c0-0.7-0.1-1.3-0.1-2
								c0-0.3,0.2-0.5,0.5-0.5c0.3,0,0.5,0.2,0.5,0.5c0,0.7,0.1,1.3,0.1,2C441.3,829.2,441.1,829.4,440.8,829.4
								C440.8,829.4,440.8,829.4,440.8,829.4z M440.5,823.5c-0.3,0-0.5-0.2-0.5-0.5c0-0.7-0.1-1.3-0.1-2c0-0.3,0.2-0.5,0.5-0.5
								c0.3,0,0.5,0.2,0.5,0.5c0.1,0.7,0.1,1.3,0.1,2C441,823.2,440.8,823.5,440.5,823.5C440.5,823.5,440.5,823.5,440.5,823.5z
								 M440,817.5c-0.3,0-0.5-0.2-0.5-0.5c-0.1-0.7-0.1-1.3-0.2-2c0-0.3,0.2-0.5,0.4-0.5c0.3,0,0.5,0.2,0.5,0.4
								c0.1,0.7,0.1,1.3,0.2,2C440.6,817.3,440.4,817.5,440,817.5C440.1,817.5,440.1,817.5,440,817.5z M439.4,811.6
								c-0.3,0-0.5-0.2-0.5-0.4l-0.2-2c0-0.3,0.2-0.5,0.4-0.6c0.3,0,0.5,0.2,0.6,0.4l0.2,2C440,811.3,439.8,811.6,439.4,811.6
								C439.5,811.6,439.4,811.6,439.4,811.6z M438.7,805.7c-0.2,0-0.5-0.2-0.5-0.4l-0.2-2c0-0.3,0.2-0.5,0.4-0.6
								c0.3,0,0.5,0.2,0.6,0.4l0.2,2C439.3,805.4,439.1,805.6,438.7,805.7C438.8,805.7,438.8,805.7,438.7,805.7z M438,799.7
								c-0.3,0-0.5-0.2-0.5-0.4c-0.1-0.7-0.2-1.3-0.2-2c0-0.3,0.2-0.5,0.4-0.5c0.3,0,0.5,0.2,0.5,0.4c0.1,0.6,0.1,1.3,0.2,2
								C438.6,799.5,438.4,799.7,438,799.7C438.1,799.7,438,799.7,438,799.7z M437.5,793.8c-0.3,0-0.5-0.2-0.5-0.5
								c0-0.7-0.1-1.4-0.1-2c0-0.3,0.2-0.5,0.5-0.5c0,0,0,0,0,0c0.3,0,0.5,0.2,0.5,0.5c0,0.6,0,1.2,0.1,2
								C438,793.5,437.8,793.8,437.5,793.8C437.5,793.8,437.5,793.8,437.5,793.8z M438,787.9c0,0-0.1,0-0.1,0
								c-0.3-0.1-0.4-0.4-0.3-0.6c0.2-0.6,0.4-1.3,0.7-1.9c0.1-0.3,0.4-0.4,0.7-0.2c0.3,0.1,0.4,0.4,0.2,0.7
								c-0.3,0.6-0.5,1.2-0.7,1.8C438.4,787.7,438.2,787.9,438,787.9z M440.7,782.6c-0.1,0-0.2,0-0.3-0.1c-0.2-0.2-0.3-0.5-0.1-0.7
								c0.4-0.5,0.8-1.1,1.3-1.6c0.2-0.2,0.5-0.2,0.7,0c0.2,0.2,0.2,0.5,0,0.7c-0.4,0.5-0.9,1-1.2,1.5
								C441,782.6,440.9,782.6,440.7,782.6z"/>
						</g>
						<g>
							<path d="M441.5,888c-0.3,0-0.5-0.2-0.5-0.5c0-0.3,0-0.5-0.1-0.9c-0.1-0.3,0.1-0.5,0.4-0.6c0.3-0.1,0.5,0.1,0.6,0.4
								c0.1,0.5,0.1,0.8,0.1,1.1C442,887.8,441.8,888,441.5,888z"/>
						</g>
					</g>
				</g>
				<g>
					<path d="M432.1,889.2c-0.9,0-1.7,0-2.6-0.1c-0.3,0-0.5-0.3-0.5-0.5c0-0.3,0.3-0.5,0.5-0.5c9.4,0.6,18.5-2.3,18.6-2.4
						c0.3-0.1,0.5,0.1,0.6,0.3c0.1,0.3-0.1,0.5-0.3,0.6C448.4,886.7,440.7,889.2,432.1,889.2z"/>
				</g>
				<g>
					<path d="M469.9,901.5c-1,0-2,0-3-0.1c-0.3,0-0.5-0.3-0.5-0.5c0-0.3,0.3-0.5,0.5-0.5c9.4,0.7,18.5-2.2,18.6-2.3
						c0.3-0.1,0.5,0.1,0.6,0.3c0.1,0.3-0.1,0.5-0.3,0.6C485.9,899.1,478.4,901.5,469.9,901.5z"/>
				</g>
				<g>
					<g>
						<g>
							<path d="M560.4,711.6c-0.1,0-0.3-0.1-0.4-0.2c-0.2-0.2-0.1-0.5,0.1-0.7c0.5-0.4,0.8-0.6,0.8-0.6c0.2-0.2,0.5-0.1,0.7,0.1
								c0.2,0.2,0.1,0.5-0.1,0.7c0,0-0.3,0.2-0.8,0.6C560.6,711.6,560.5,711.6,560.4,711.6z"/>
						</g>
						<g>
							<path d="M476.9,896.1c-0.3,0-0.5-0.2-0.5-0.5l0-2c0-0.3,0.2-0.5,0.5-0.5c0.3,0,0.5,0.2,0.5,0.5l0,2
								C477.4,895.8,477.1,896.1,476.9,896.1C476.9,896.1,476.9,896.1,476.9,896.1z M476.7,890.1c-0.3,0-0.5-0.2-0.5-0.5l0-2
								c0-0.3,0.2-0.5,0.5-0.5c0.3,0,0.5,0.2,0.5,0.5l0,2C477.2,889.8,477,890.1,476.7,890.1C476.7,890.1,476.7,890.1,476.7,890.1z
								 M476.6,884.1c-0.3,0-0.5-0.2-0.5-0.5l0-2c0-0.3,0.2-0.5,0.5-0.5c0,0,0,0,0,0c0.3,0,0.5,0.2,0.5,0.5l0,2
								C477.1,883.9,476.9,884.1,476.6,884.1C476.6,884.1,476.6,884.1,476.6,884.1z M476.6,878.1c-0.3,0-0.5-0.2-0.5-0.5l0-2
								c0-0.3,0.2-0.5,0.5-0.5c0,0,0,0,0,0c0.3,0,0.5,0.2,0.5,0.5l0,2C477.1,877.9,476.8,878.1,476.6,878.1
								C476.6,878.1,476.6,878.1,476.6,878.1z M476.5,872.1c-0.3,0-0.5-0.2-0.5-0.5l0-2c0-0.3,0.2-0.5,0.5-0.5c0,0,0,0,0,0
								c0.3,0,0.5,0.2,0.5,0.5l0,2C477,871.9,476.8,872.1,476.5,872.1C476.5,872.1,476.5,872.1,476.5,872.1z M476.5,866.1
								C476.5,866.1,476.5,866.1,476.5,866.1c-0.3,0-0.5-0.2-0.5-0.5l0-2c0-0.3,0.2-0.5,0.5-0.5c0,0,0,0,0,0c0.3,0,0.5,0.2,0.5,0.5
								l0,2C477,865.9,476.8,866.1,476.5,866.1z M476.5,860.1C476.5,860.1,476.5,860.1,476.5,860.1c-0.3,0-0.5-0.2-0.5-0.5
								c0-0.7,0-1.4,0-2c0-0.3,0.2-0.5,0.5-0.5c0.3,0,0.5,0.2,0.5,0.5c0,0.6,0,1.3,0,2C477,859.9,476.8,860.1,476.5,860.1z
								 M476.8,854.2C476.8,854.2,476.8,854.2,476.8,854.2c-0.3,0-0.5-0.3-0.5-0.5c0-0.6,0.1-1.3,0.1-2c0-0.3,0.3-0.5,0.5-0.5
								c0.3,0,0.5,0.3,0.5,0.5c0,0.7-0.1,1.4-0.1,2C477.3,854,477,854.2,476.8,854.2z M477.2,848.2
								C477.2,848.2,477.2,848.2,477.2,848.2c-0.3,0-0.5-0.3-0.5-0.5l0.1-2c0-0.3,0.2-0.5,0.5-0.5c0.3,0,0.5,0.3,0.5,0.5l-0.1,2
								C477.7,848,477.5,848.2,477.2,848.2z M477.6,842.2C477.6,842.2,477.6,842.2,477.6,842.2c-0.3,0-0.5-0.3-0.5-0.5l0.1-2
								c0-0.3,0.2-0.5,0.5-0.5c0.3,0,0.5,0.3,0.5,0.5l-0.1,2C478.1,842,477.9,842.2,477.6,842.2z M478,836.2
								C478,836.2,478,836.2,478,836.2c-0.3,0-0.5-0.3-0.5-0.5l0.1-2c0-0.3,0.3-0.5,0.5-0.5c0.3,0,0.5,0.3,0.5,0.5l-0.1,2
								C478.5,836,478.3,836.2,478,836.2z M478.4,830.3C478.4,830.3,478.4,830.3,478.4,830.3c-0.3,0-0.5-0.3-0.5-0.5l0.1-2
								c0-0.3,0.3-0.5,0.5-0.5c0.3,0,0.5,0.2,0.5,0.5l-0.1,2C478.9,830.1,478.7,830.3,478.4,830.3z M478.7,824.3
								C478.7,824.3,478.7,824.3,478.7,824.3c-0.3,0-0.5-0.2-0.5-0.5c0-0.7,0.1-1.3,0.1-2c0-0.3,0.2-0.5,0.5-0.5
								c0.3,0,0.5,0.2,0.5,0.5c0,0.7-0.1,1.3-0.1,2C479.2,824.1,479,824.3,478.7,824.3z M478.9,818.3
								C478.9,818.3,478.9,818.3,478.9,818.3c-0.3,0-0.5-0.2-0.5-0.5c0-0.7,0-1.3,0-2c0-0.3,0.2-0.5,0.5-0.5c0.3,0,0.5,0.2,0.5,0.5
								c0,0.7,0,1.3,0,2C479.4,818.1,479.2,818.3,478.9,818.3z M479,812.3c-0.3,0-0.5-0.2-0.5-0.5c0-0.7,0-1.3,0-2
								c0-0.3,0.2-0.5,0.5-0.5c0.3,0,0.5,0.2,0.5,0.5c0,0.7,0,1.3,0,2C479.5,812.1,479.3,812.3,479,812.3
								C479,812.3,479,812.3,479,812.3z M478.8,806.3c-0.3,0-0.5-0.2-0.5-0.5c0-0.7-0.1-1.3-0.1-2c0-0.3,0.2-0.5,0.5-0.5
								c0.3,0,0.5,0.2,0.5,0.5c0.1,0.7,0.1,1.3,0.1,2C479.3,806.1,479.1,806.3,478.8,806.3C478.8,806.3,478.8,806.3,478.8,806.3z
								 M478.3,800.4c-0.2,0-0.5-0.2-0.5-0.4c-0.1-0.7-0.2-1.3-0.3-1.9c-0.1-0.3,0.1-0.5,0.4-0.6c0.3-0.1,0.5,0.1,0.6,0.4
								c0.1,0.6,0.2,1.3,0.3,2C478.8,800.1,478.6,800.3,478.3,800.4C478.3,800.4,478.3,800.4,478.3,800.4z M476.8,794.6
								c-0.2,0-0.4-0.1-0.5-0.4c-0.2-0.6-0.4-1.3-0.6-1.9c-0.1-0.3,0.1-0.5,0.3-0.6c0.3-0.1,0.5,0.1,0.6,0.3
								c0.2,0.6,0.4,1.3,0.6,1.9c0.1,0.3-0.1,0.5-0.3,0.6C476.9,794.6,476.9,794.6,476.8,794.6z M475.2,788.8
								c-0.2,0-0.4-0.2-0.5-0.4c-0.2-0.7-0.3-1.3-0.4-2c0-0.3,0.1-0.5,0.4-0.6c0.3-0.1,0.5,0.1,0.6,0.4c0.1,0.6,0.2,1.3,0.4,1.9
								c0.1,0.3-0.1,0.5-0.4,0.6C475.3,788.8,475.3,788.8,475.2,788.8z M473.9,782.4l0-0.2c0-0.6,0-1.3,0.1-1.9
								c0-0.3,0.3-0.5,0.5-0.4c0.3,0,0.5,0.3,0.4,0.5c-0.1,0.6-0.1,1.2-0.1,1.8l0,0.2L473.9,782.4z M475.4,777c-0.1,0-0.1,0-0.2,0
								c-0.3-0.1-0.4-0.4-0.3-0.6c0.2-0.6,0.5-1.3,0.8-1.9c0.1-0.2,0.4-0.3,0.7-0.2c0.2,0.1,0.3,0.4,0.2,0.7
								c-0.3,0.6-0.6,1.2-0.8,1.8C475.8,776.9,475.6,777,475.4,777z M478.4,771.8c-0.1,0-0.2,0-0.3-0.1c-0.2-0.2-0.3-0.5-0.1-0.7
								c0.4-0.5,0.8-1,1.3-1.5c0.2-0.2,0.5-0.2,0.7,0c0.2,0.2,0.2,0.5,0,0.7c-0.5,0.5-0.9,1-1.3,1.5
								C478.7,771.8,478.5,771.8,478.4,771.8z M482.5,767.6c-0.1,0-0.3-0.1-0.4-0.2c-0.2-0.2-0.2-0.5,0-0.7c0.5-0.4,1-0.9,1.5-1.3
								c0.2-0.2,0.5-0.1,0.7,0.1s0.1,0.5-0.1,0.7c-0.5,0.4-1,0.8-1.5,1.3C482.7,767.5,482.6,767.6,482.5,767.6z M487.2,763.9
								c-0.2,0-0.3-0.1-0.4-0.2c-0.2-0.2-0.1-0.5,0.1-0.7l1.6-1.1c0.2-0.2,0.5-0.1,0.7,0.1c0.2,0.2,0.1,0.5-0.1,0.7l-1.6,1.1
								C487.4,763.9,487.3,763.9,487.2,763.9z M492.1,760.4c-0.2,0-0.3-0.1-0.4-0.2c-0.2-0.2-0.1-0.5,0.1-0.7l1.6-1.2
								c0.2-0.2,0.5-0.1,0.7,0.1c0.2,0.2,0.1,0.5-0.1,0.7l-1.6,1.2C492.3,760.4,492.2,760.4,492.1,760.4z M497,757
								c-0.2,0-0.3-0.1-0.4-0.2c-0.2-0.2-0.1-0.5,0.1-0.7l1.6-1.2c0.2-0.2,0.5-0.1,0.7,0.1c0.2,0.2,0.1,0.5-0.1,0.7l-1.6,1.2
								C497.2,756.9,497.1,757,497,757z M501.9,753.5c-0.2,0-0.3-0.1-0.4-0.2c-0.2-0.2-0.1-0.5,0.1-0.7l1.6-1.2
								c0.2-0.2,0.5-0.1,0.7,0.1c0.2,0.2,0.1,0.5-0.1,0.7l-1.6,1.2C502.1,753.5,502,753.5,501.9,753.5z M506.8,750
								c-0.2,0-0.3-0.1-0.4-0.2c-0.2-0.2-0.1-0.5,0.1-0.7l1.6-1.2c0.2-0.2,0.5-0.1,0.7,0.1c0.2,0.2,0.1,0.5-0.1,0.7l-1.6,1.2
								C507,750,506.9,750,506.8,750z M511.7,746.5c-0.2,0-0.3-0.1-0.4-0.2c-0.2-0.2-0.1-0.5,0.1-0.7l1.6-1.2
								c0.2-0.2,0.5-0.1,0.7,0.1s0.1,0.5-0.1,0.7l-1.6,1.2C511.9,746.5,511.8,746.5,511.7,746.5z M516.5,743c-0.2,0-0.3-0.1-0.4-0.2
								c-0.2-0.2-0.1-0.5,0.1-0.7l1.6-1.2c0.2-0.2,0.5-0.1,0.7,0.1c0.2,0.2,0.1,0.5-0.1,0.7l-1.6,1.2C516.7,743,516.6,743,516.5,743
								z M521.4,739.5c-0.2,0-0.3-0.1-0.4-0.2c-0.2-0.2-0.1-0.5,0.1-0.7l1.6-1.2c0.2-0.2,0.5-0.1,0.7,0.1c0.2,0.2,0.1,0.5-0.1,0.7
								l-1.6,1.2C521.6,739.5,521.5,739.5,521.4,739.5z M526.3,736.1c-0.2,0-0.3-0.1-0.4-0.2c-0.2-0.2-0.1-0.5,0.1-0.7l1.6-1.2
								c0.2-0.2,0.5-0.1,0.7,0.1c0.2,0.2,0.1,0.5-0.1,0.7l-1.6,1.2C526.5,736,526.4,736.1,526.3,736.1z M531.1,732.6
								c-0.2,0-0.3-0.1-0.4-0.2c-0.2-0.2-0.1-0.5,0.1-0.7l1.6-1.2c0.2-0.2,0.5-0.1,0.7,0.1c0.2,0.2,0.1,0.5-0.1,0.7l-1.6,1.2
								C531.3,732.5,531.2,732.6,531.1,732.6z M536,729.1c-0.2,0-0.3-0.1-0.4-0.2c-0.2-0.2-0.1-0.5,0.1-0.7l1.6-1.2
								c0.2-0.2,0.5-0.1,0.7,0.1c0.2,0.2,0.1,0.5-0.1,0.7l-1.6,1.2C536.2,729,536.1,729.1,536,729.1z M540.9,725.6
								c-0.2,0-0.3-0.1-0.4-0.2c-0.2-0.2-0.1-0.5,0.1-0.7l1.6-1.2c0.2-0.2,0.5-0.1,0.7,0.1c0.2,0.2,0.1,0.5-0.1,0.7l-1.6,1.2
								C541.1,725.5,541,725.6,540.9,725.6z M545.7,722.1c-0.2,0-0.3-0.1-0.4-0.2c-0.2-0.2-0.1-0.5,0.1-0.7l1.6-1.2
								c0.2-0.2,0.5-0.1,0.7,0.1c0.2,0.2,0.1,0.5-0.1,0.7L546,722C545.9,722,545.8,722.1,545.7,722.1z M550.6,718.6
								c-0.2,0-0.3-0.1-0.4-0.2c-0.2-0.2-0.1-0.5,0.1-0.7l1.6-1.2c0.2-0.2,0.5-0.1,0.7,0.1c0.2,0.2,0.1,0.5-0.1,0.7l-1.6,1.2
								C550.8,718.5,550.7,718.6,550.6,718.6z M555.5,715.1c-0.2,0-0.3-0.1-0.4-0.2c-0.2-0.2-0.1-0.5,0.1-0.7l1.6-1.2
								c0.2-0.2,0.5-0.1,0.7,0.1s0.1,0.5-0.1,0.7l-1.6,1.2C555.7,715,555.6,715.1,555.5,715.1z"/>
						</g>
						<g>
							<path d="M477,900.9c-0.3,0-0.5-0.2-0.5-0.5v-1c0-0.3,0.2-0.5,0.5-0.5s0.5,0.2,0.5,0.5v1C477.5,900.7,477.3,900.9,477,900.9z"
								/>
						</g>
					</g>
				</g>
				<g>
					<path class="st4" d="M484.9,920.9c0,0,2.3,0.2,4.3,4.3c2.1,4.2,6.2,7.5,2.1,13.6c-2.8,4-4.7,5.8-5.9,6.3
						c-1.1,0.5-2.1,1.2-2.8,2.1c-2.2,3-8.5,10.5-15.6,15.6c-11.3,8.1-19.1,9.3-21.5,7.4c-2.4-1.9,0.1-19.9,12.2-30.7
						c0,0-5.4,8.3-2.8,13.7c2.7,5.4,16.2-6.6,17.4-7.8c1.2-1.2,11.6-10.4,12.5-15.2S486,924.6,484.9,920.9z"/>
				</g>
				<g>
					<path d="M457.4,954.9c-0.5,0-0.9-0.1-1.4-0.2c-1.2-0.4-2-1.4-2.3-3c-0.9-4.4,1.9-10.4,4.6-14.2l0.6-0.8c3-4.3,6.2-8.8,7.5-13.9
						c0.9-3.3,0.6-6.8,0.2-10.1c0-0.3,0.2-0.5,0.4-0.6c0.3,0,0.5,0.2,0.6,0.4c0.4,3.3,0.7,7.1-0.2,10.5c-1.3,5.3-4.5,9.8-7.6,14.2
						l-0.6,0.8c-2.8,3.9-5.2,9.6-4.4,13.4c0.2,1.2,0.8,2,1.7,2.3c3.2,1.1,9.8-3.7,12.1-5.7c4.5-3.8,8.9-8.3,12.9-13.3
						c3-3.6,4.2-7.2,3.7-10.7c-0.3-1.8-0.8-3.6-1.3-5.4c-0.6-2.3-1.3-4.7-1.5-7.1c0-0.3,0.2-0.5,0.5-0.5c0.3,0,0.5,0.2,0.5,0.5
						c0.2,2.3,0.9,4.7,1.5,7c0.5,1.8,1,3.6,1.3,5.5c0.6,3.8-0.8,7.6-3.9,11.5c-4.1,5-8.5,9.6-13.1,13.5
						C468.8,949.2,461.9,954.9,457.4,954.9z"/>
				</g>
				<g>
					<path class="st4" d="M444.2,905.1c0,0,2.1,0,4.4,3.7c2.3,3.8,6.4,6.6,3,12.6c-2.3,4-4,5.8-5.1,6.4c-1,0.5-1.9,1.2-2.5,2.2
						c-1.8,3-7.2,10.5-13.5,15.9c-10,8.5-17.2,10.2-19.6,8.6c-2.4-1.6-1.4-18.8,9.1-29.8c0,0-4.5,8.2-1.6,13.1
						c2.9,4.9,14.7-7.5,15.8-8.7c1-1.2,10.1-10.6,10.6-15.2C445.3,909.4,445.5,908.6,444.2,905.1z"/>
				</g>
				<g>
					<path d="M420.6,939.2c-0.3,0-0.6,0-0.9-0.1c-1.2-0.3-2-1.2-2.5-2.7c-1.2-4.4,1.5-10.7,3.2-13.7l0.1-0.1
						c2.7-4.5,5.5-9.1,6.4-14.3c0.6-3.2,0-6.5-0.6-9.5c-0.1-0.3,0.1-0.5,0.4-0.6c0.3-0.1,0.5,0.1,0.6,0.4c0.6,3.1,1.2,6.5,0.6,9.9
						c-0.9,5.3-3.7,10.1-6.5,14.6l-0.1,0.1c-1.7,2.9-4.3,8.8-3.1,12.9c0.3,1.1,0.9,1.8,1.7,2c3.1,0.8,8.9-4.2,10.9-6.2
						c3.9-3.9,7.7-8.5,11.1-13.5c2.5-3.6,3.4-7.1,2.6-10.4c-0.2-0.8-0.4-1.5-0.5-2.2c-0.6-2.7-1.2-5.1-1.7-8.3
						c0-0.3,0.1-0.5,0.4-0.6c0.3,0,0.5,0.1,0.6,0.4c0.5,3.2,1,5.4,1.7,8.3c0.2,0.7,0.3,1.4,0.5,2.2c0.8,3.6-0.1,7.3-2.8,11.2
						c-3.5,5.1-7.3,9.7-11.3,13.7C431.3,932.9,424.9,939.2,420.6,939.2z"/>
				</g>
				<g>
					<path class="st15" d="M557.2,466.6c0,0-5.5,16.9,2.5,31.3c0,0,7.1,1.1,12.4-1.7c5.3-2.8,1.2-38.2,1.2-38.2L557.2,466.6z"/>
				</g>
				<g>
					<g>
						<path d="M351.9,325.5c-5.6,0-12.1-3.6-15.1-6.4c-0.1-0.1-6.9-6.2-11-7.8c-0.1,0-0.1-0.1-0.2-0.1c-5.6-2-64.2-24.5-87.5-73
							c-0.1-0.1-0.1-0.3,0-0.4c0.1-0.1,0.2-0.2,0.4-0.3l26.7-4.2c0.2,0,0.4,0.1,0.5,0.2c0,0.1,5,7.1,21.6,28.9
							c16.2,21.3,26.1,29.9,39.3,34.2c0.5,0.2,1,0.3,1.6,0.4c0.5,0,3.6-0.2,6.1-0.8c0.5-0.1,1-0.3,1.5-0.5c2.4-0.8,5.6-1.9,11.8,0.7
							c3.2,1.3,4.7,2.7,4.4,4.1c-0.3,1.3-2.2,2.1-4,2.2c2,1.9,11.2,7.7,14.4,8.6c1.1,0.4,1.7,1.4,1.6,2.8c-0.3,4-5.2,10.3-9.8,11.2
							C353.4,325.4,352.7,325.5,351.9,325.5z M326.6,310.5c4.3,1.9,10.6,7.6,10.9,7.8c3.2,3.1,10.7,7.1,16.4,6c4.3-0.8,8.7-7,9-10.2
							c0.1-1.5-0.7-1.7-0.9-1.8c-2-0.6-6.2-3-9.1-4.8c-6.6-4.1-6.4-4.9-6.4-5.2c0-0.1,0.1-0.6,0.8-0.5c1.6,0.1,3.4-0.6,3.6-1.4
							c0.1-0.3,0-1.4-3.8-3c-5.8-2.4-8.7-1.5-11-0.7c-0.6,0.2-1.1,0.4-1.6,0.5c-2.7,0.6-6.1,0.8-6.3,0.8c0,0-0.1,0-0.1,0
							c-0.6-0.1-1.2-0.2-1.8-0.4c-13.2-4.3-23.6-13.4-39.7-34.6c-14.9-19.6-20.4-27.2-21.4-28.7l-25.7,4c24.3,49.9,86.4,71.8,87,72
							C326.5,310.4,326.6,310.4,326.6,310.5z"/>
					</g>
					<g>
						<path class="st13" d="M326.1,310.7"/>
					</g>
					<g>
						<path class="st6" d="M250.7,167l7.9-7.8c2.1,0.3,8.9,1.5,7,2.4c-5.7,2.5-8.8,5.5-7.5,6.7l2.5,0.4c0.9,0,2.2,0,4.2,0.7
							c3.5,1.2,6.1,2.9,6.1,2.9s1.4,3.7-3.8,10.4c-2.3,3.1-3.1,7.1-3.6,11c-1.7,12.1,3.5,37.1,7.7,45.5c0.1,0.3,0,0.6-0.3,0.7
							c-1.5,0.3-5.4,1.1-9.4,0.8c-4.4-0.3-17.2,1.9-21.1,2.9c-0.6,0.2-1.2-0.1-1.5-0.7c-2.9-6.2-11.7-39.7-7.2-65.3
							C236.9,149.2,250.7,167,250.7,167z"/>
					</g>
					<g>
						<path d="M103,18.5c-0.1,0-0.3-0.1-0.4-0.2C83.8-1.4,71.3-18.4,65.2-32.2c-0.5-0.9-0.8-1.8-1.1-2.6c-0.1-0.3,0.1-0.5,0.3-0.6
							c0.3-0.1,0.5,0.1,0.6,0.3c0.3,0.8,0.6,1.6,1.1,2.5C72.1-19,84.6-2,103.4,17.7c0.2,0.2,0.2,0.5,0,0.7
							C103.2,18.5,103.1,18.5,103,18.5z"/>
					</g>
					<g>
						<path class="st16" d="M164,0.5c-0.1,0-0.3,0-0.4-0.1c-0.7-0.7-1.4-1.4-2.2-2.1c-6-5.8-16.2-11.4-26-16.8
							c-6.5-3.6-13.3-7.3-19-11.1c-2.3-1.5-4.4-3.2-6.3-5.1c-0.2-0.2-0.2-0.5,0-0.7s0.5-0.2,0.7,0c1.8,1.8,3.9,3.5,6.1,4.9
							c5.6,3.8,12.4,7.5,18.9,11.1c9.9,5.4,20.1,11,26.2,16.9c0.8,0.7,1.5,1.4,2.2,2.1c0.2,0.2,0.2,0.5,0,0.7
							C164.3,0.5,164.1,0.5,164,0.5z"/>
					</g>
					<g>
						<path d="M180.1,28.5c-0.2,0-0.4-0.2-0.5-0.4c0-0.1-2.9-14.2-16-27.7c-0.2-0.2-0.2-0.5,0-0.7c0.2-0.2,0.5-0.2,0.7,0
							c13.2,13.7,16.2,28.1,16.2,28.3C180.6,28.2,180.5,28.4,180.1,28.5C180.2,28.5,180.1,28.5,180.1,28.5z"/>
					</g>
					<g>
						<path d="M134,87.4c0,0-0.1,0-0.1,0c-0.8-0.2-78-24.2-109.2-51.7C15.1,27.3,2.8,8.2-1.9-34.9c0-0.3,0.2-0.5,0.4-0.6
							c0.3,0,0.5,0.2,0.6,0.4c2.6,23.6,9.2,54.9,26.2,70c29.9,26.4,102.2,49.4,108.4,51.4l20-44.3c-0.6-1.6-5.5-14.1-23.6-20.2
							c-7.6-2.6-20.3-3.1-32.6-3.5c-8.9-0.3-18-0.7-25.2-1.8C57.4,14.1,46.1,5.3,38.6-9.7L26.8-34.8c-0.1-0.3,0-0.5,0.2-0.7
							c0.2-0.1,0.5,0,0.7,0.2l11.7,25.1c7.4,14.6,18.5,23.3,33,25.6c7.1,1.1,16.2,1.5,25.1,1.8c12.4,0.4,25.2,0.9,32.9,3.5
							c10.3,3.5,16.4,9,19.7,13c3.5,4.4,4.6,7.9,4.7,8c0,0.1,0,0.2,0,0.3l-20.3,44.9C134.4,87.3,134.2,87.4,134,87.4z"/>
					</g>
					<g>
						<path d="M226.5,29.2c0,0-0.1,0-0.1,0c-0.1,0-0.3-0.2-0.3-0.3l-25.2-63.7c-0.1-0.3,0-0.5,0.3-0.6c0.3-0.1,0.5,0,0.6,0.3
							l25,63.1l16.5-12.1l-29.2-50.6c-0.1-0.2-0.1-0.5,0.2-0.7c0.2-0.1,0.5-0.1,0.7,0.2l29.4,51c0.1,0.2,0.1,0.5-0.1,0.7l-17.4,12.7
							C226.7,29.2,226.6,29.2,226.5,29.2z"/>
					</g>
					<g>
						<path class="st6" d="M235.9,173.5c5.9-6.2-0.7-3.3-26-25.5c-25.4-22.2-76.1-60.1-76.1-60.1s0.8-18.9,11.3-41.2
							c10.4-22.3,18-35.2,30.5-30.1c24.3,26.1,63,50.6,63,50.6l-16.9-44.5c-0.2-0.5,0-1.1,0.5-1.3l20.2-9.4c0.5-0.2,1-0.1,1.3,0.4
							c4.8,7.1,41.8,62.3,42,85.7c-2.7,21.8-14,51-14,51s3.1,12.8-0.7,23.2C271,172.2,253.1,185.9,235.9,173.5z"/>
					</g>
					<g>
						<path class="st15" d="M304.1,106.5c0,0,65.5,28.3,44.2,57.7c0,0-2.2,17.3-20.7,16.9c-17.8-0.3-53.2-4.8-59.6,9.8
							c-0.7,1.6-1.4,3.1-2.4,4.5c-6.2,8.9-27.5,34-52.7-2.8c-30-43.7,5.4-52.8,10.1-63.6c0,0,4.7-13.6,23.2-22.5
							S286.3,97.1,304.1,106.5z"/>
					</g>
				</g>
			</g>
			<g>
				<g>
					<g>
						<g>
							<path d="M798.6,357.7c-0.1,0-0.1,0-0.2,0c-0.3-0.1-0.4-0.4-0.3-0.6c0,0,0.1-0.4,0.4-1c0.1-0.2,0.4-0.3,0.7-0.2
								c0.2,0.1,0.3,0.4,0.2,0.7c-0.3,0.5-0.4,0.8-0.4,0.8C799,357.6,798.8,357.7,798.6,357.7z"/>
						</g>
						<g>
							<path d="M800.4,353.2c-0.1,0-0.1,0-0.2,0c-0.3-0.1-0.4-0.4-0.3-0.6l0.7-1.8c0.1-0.3,0.4-0.4,0.6-0.3c0.3,0.1,0.4,0.4,0.3,0.6
								l-0.7,1.8C800.8,353.1,800.6,353.2,800.4,353.2z M802.5,347.8c-0.1,0-0.1,0-0.2,0c-0.3-0.1-0.4-0.4-0.3-0.6l0.7-1.8
								c0.1-0.3,0.4-0.4,0.6-0.3c0.3,0.1,0.4,0.4,0.3,0.6l-0.7,1.8C802.9,347.7,802.7,347.8,802.5,347.8z M804.6,342.4
								c-0.1,0-0.1,0-0.2,0c-0.3-0.1-0.4-0.4-0.3-0.6l0.7-1.8c0.1-0.3,0.4-0.4,0.6-0.3c0.3,0.1,0.4,0.4,0.3,0.6l-0.7,1.8
								C805,342.3,804.8,342.4,804.6,342.4z M806.6,337c-0.1,0-0.1,0-0.2,0c-0.3-0.1-0.4-0.4-0.3-0.6l0.7-1.8
								c0.1-0.3,0.4-0.4,0.6-0.3c0.3,0.1,0.4,0.4,0.3,0.6l-0.7,1.8C807,336.9,806.8,337,806.6,337z M808.6,331.6c-0.1,0-0.1,0-0.2,0
								c-0.3-0.1-0.4-0.4-0.3-0.6l0.7-1.8c0.1-0.3,0.4-0.4,0.6-0.3s0.4,0.4,0.3,0.6l-0.7,1.8C809,331.5,808.8,331.6,808.6,331.6z
								 M810.5,326.1c-0.1,0-0.1,0-0.2,0c-0.3-0.1-0.4-0.4-0.3-0.6c0.2-0.6,0.4-1.2,0.6-1.8c0.1-0.3,0.4-0.4,0.6-0.3
								c0.3,0.1,0.4,0.4,0.3,0.6c-0.2,0.6-0.4,1.2-0.6,1.8C810.9,326,810.7,326.1,810.5,326.1z"/>
						</g>
						<g>
							<path d="M812.3,320.6c0,0-0.1,0-0.1,0c-0.3-0.1-0.4-0.3-0.4-0.6l0.1-0.2c0.1-0.3,0.1-0.5,0.1-0.6c0-0.3,0.2-0.5,0.5-0.5
								s0.5,0.2,0.5,0.5c0,0.3-0.1,0.6-0.2,0.9l-0.1,0.2C812.7,320.4,812.5,320.6,812.3,320.6z"/>
						</g>
					</g>
				</g>
				<g>
					<path d="M946.3,132.3c-0.2,0-0.4-0.1-0.5-0.4c-0.8-2.8-1.7-5.5-2.6-8.4l-0.6-2c0-0.1,0-0.3,0.1-0.4c0.1-0.1,0.2-0.2,0.4-0.2
						c2.2-0.2,4.4-0.5,6.6-0.8c2.2-0.3,4.4-0.5,6.6-0.8c0.3,0,0.5,0.1,0.5,0.4c0.1,0.3,0.2,0.6,0.3,0.9c0.2,0.5,0.3,1,0.4,1.4
						c0.7,2.6,1,5.3,0.9,8c0,0.2-0.2,0.4-0.4,0.5C954.1,131,950.2,131.6,946.3,132.3C946.4,132.3,946.3,132.3,946.3,132.3z
						 M943.8,121.8l0.4,1.4c0.9,2.7,1.7,5.3,2.5,8c3.5-0.6,7.1-1.2,10.8-1.7c0.1-2.5-0.2-4.9-0.9-7.3c-0.1-0.5-0.3-0.9-0.4-1.4
						c-0.1-0.2-0.1-0.3-0.2-0.5c-2.1,0.2-4.1,0.5-6.2,0.8C947.8,121.3,945.8,121.6,943.8,121.8z M957.9,130L957.9,130L957.9,130z"/>
				</g>
				<g>
					<g>
						<path d="M783.4,357.7c-0.1,0-0.1,0-0.2,0c-0.2-0.1-0.4-0.4-0.2-0.7c5.8-12.4,11.1-25.1,15.5-37.9c2.7-7.7,27-5.6,50.6-3.5
							c12.1,1,23.6,2,30.1,1.4c2.4-0.2,4.5,0.5,6.2,2.1c6.9,6.6,6.9,26.7,6.3,38.1c0,0.3-0.3,0.5-0.5,0.5c-0.3,0-0.5-0.3-0.5-0.5
							c1-19.4-1.1-32.6-6-37.3c-1.5-1.5-3.3-2.1-5.4-1.9c-6.7,0.6-18.1-0.4-30.3-1.4c-21-1.8-47.2-4.1-49.6,2.9
							c-4.4,12.8-9.7,25.6-15.5,38C783.8,357.6,783.6,357.7,783.4,357.7z"/>
					</g>
				</g>
				<g>
					<g>
						<path d="M735.2,353.8c-0.7,0-1.5-0.2-2-0.7c-3.4-3.1-5.4-6.4-5.8-9.7c-0.3-2.3,0.5-4.7,2.1-6.3c2.2-2.2,3.6-4.6,5.1-7.2
							c0.7-1.2,1.4-2.5,2.3-3.8c3.3-5,7.5-7.5,11.9-10.2c0.1-0.1,0.3-0.1,0.5-0.1c0.1,0,0.3,0.1,0.3,0.3c0.6,1.5,1.4,2,2.3,2.6
							c0.9,0.6,2,1.3,2.7,3c0.1,0.3,0,0.5-0.3,0.7c0,0,0,0,0,0c0.1,0.1,0.2,0.1,0.2,0.2c0.4,0.9,0.4,3.3,0.4,6.3
							c0,4.3,0,9.8,1.2,12.1c0.2,0.4,0.2,0.9,0,1.2c-0.2,0.4-0.5,0.6-0.9,0.8c-0.6,0.2-2.6,0.6-4.2-1.5c-1.2-1.5-2-3-2.4-4.7
							c-0.3,1-0.7,2.1-1,3.2c-2.4,8.2-8.9,12.4-10.8,13.5C736.2,353.7,735.7,353.8,735.2,353.8z M748.9,316.9
							c-4.2,2.6-8.1,5-11.2,9.6c-0.8,1.2-1.5,2.5-2.2,3.7c-1.5,2.6-3,5.2-5.2,7.5c-1.4,1.4-2.1,3.5-1.9,5.5c0.4,3.1,2.2,6.2,5.4,9.1
							c0.6,0.5,1.6,0.6,2.4,0.2c1.8-1,8-5.1,10.3-12.9c0.4-1.3,0.8-2.6,1.2-3.8c0.1-0.3,0.4-0.6,0.8-0.6c0.4,0,0.7,0.2,0.8,0.6
							c0.4,1.8,1.2,3.5,2.4,5c1.2,1.6,2.5,1.3,3.1,1.1c0.1,0,0.2-0.1,0.3-0.2c0.1-0.1,0.1-0.3,0-0.4c-1.3-2.5-1.3-8.1-1.3-12.5
							c0-2.7,0-5.2-0.3-5.9c-0.1-0.3,0-0.5,0.3-0.7c0,0,0,0,0,0c-0.1-0.1-0.2-0.1-0.2-0.2c-0.6-1.4-1.4-1.9-2.3-2.5
							C750.4,318.9,749.5,318.3,748.9,316.9z"/>
					</g>
					<g>
						<path class="st5" d="M826.2,160.4c-29.7,2.7-44.7,43.5-56.3,72.6c-6,14.9-21.2,66.2-30.4,88.2c-0.2,0.4,0.2,0.8,0.6,0.7
							c4.7-0.7,9.4,1.1,14.9,2.3c14-24.2,37.1-66.6,48.1-87.1C815.5,214.1,838.8,179.2,826.2,160.4z"/>
					</g>
					<g>
						<path class="st5" d="M901.4,204.7c-1.9-29.5-11.6-36.2-29.4-44.4c-1.9-0.9-3.9-1.5-6-1.7l-22.4-2.8
							c-23.2,0.6-39.3,3.5-38.3,39.8c1.1,39.1,10,57.9-4.8,101c-1.2,3.4-6.4,16-6.3,17.3c0.7,7.2,0.9,9,1.3,14.7
							c31.5-5.6,63-6.9,94.4-0.4c0.6,0.1,1.2-0.3,1.3-0.9C894.8,289.9,903.6,238.2,901.4,204.7z"/>
					</g>
				</g>
				<g>
					<g>
						<g>
							<path class="st14" d="M869.1,151.9c-4.3,7.9,0.3,16.2-6.4,15.7c-10.3-0.8-20-6.3-19.5-16c0.3-4.9-0.4-10.4-1.6-15.8
								c0,0,4.5,3.1,7.8,6.2s8.5,8.1,12.2,8.9C865.4,151.8,866.4,152.2,869.1,151.9z"/>
						</g>
						<g class="st1">
							<path class="st2" d="M869.1,151.9c-4.3,7.9,0.3,16.2-6.4,15.7c-10.3-0.8-20-6.3-19.5-16c0.3-4.9-0.4-10.4-1.6-15.8
								c0,0,4.5,3.1,7.8,6.2s8.5,8.1,12.2,8.9C865.4,151.8,866.4,152.2,869.1,151.9z"/>
						</g>
						<g>
							<path d="M863.2,168.1c-0.2,0-0.4,0-0.6,0c-10-0.8-20.5-6.3-20-16.5c0.3-4.4-0.3-9.7-1.6-15.7c-0.1-0.3,0.1-0.5,0.4-0.6
								c0.3-0.1,0.5,0.1,0.6,0.4c1.3,6.1,1.9,11.4,1.6,15.9c-0.4,6.9,5.4,14.4,19,15.5c1.1,0.1,1.9-0.1,2.4-0.5c1-0.8,1.1-2.7,1.2-5
								c0.2-2.9,0.4-6.4,2.3-9.9c0.1-0.2,0.4-0.3,0.7-0.2s0.3,0.4,0.2,0.7c-1.8,3.3-2,6.7-2.2,9.5c-0.1,2.6-0.3,4.6-1.5,5.7
								C865.2,167.9,864.4,168.1,863.2,168.1z"/>
						</g>
						<g>
							<path class="st15" d="M841.7,123.6c-2-3.7-4.3-12.7-1.4-15.5c3-2.8,5.1-1.5,8.3-2.6c3.1-1.1,6.4-3.1,9.8-4
								c5.6-1.5,12-1.7,16.7,1.9c1.9,1.4,3.4,3.3,4.6,5.4c12.5-14.2,11.6-52.3-2.9-59.7c-8.4-4.3-16.5,21.4-26,25.3
								c-7.4,3-24,8.5-28.4,17.8c-2,4.3-1.5,10.1,0.6,15.5c1.1,2.8,5.2,8.3,7.4,11c0.6,0.8,1.1,1.4,1.6,2.1c1.8-0.6,3.4-0.4,4.9,0.2
								"/>
						</g>
						<g>
							<path d="M868,152.4c-8.2,0-12.8-4.4-17.7-9c-2.6-2.5-5.4-5.1-8.8-7.2c-0.3-0.1-0.5-0.3-0.7-0.5c-0.1-0.1-0.2-0.2-0.3-0.2
								c-3.8-1.5-14-5.7-11.4-12.8c0.1-0.1,1.1-2.6,3.5-3.2c0.3-0.1,0.5,0.1,0.6,0.4s-0.1,0.5-0.4,0.6c-1.9,0.5-2.9,2.6-2.9,2.6
								c-2,5.5,5.3,9.2,10.9,11.5c0.2,0.1,0.3,0.2,0.4,0.3c0.2,0.1,0.4,0.3,0.6,0.4c3.6,2.1,6.4,4.8,9,7.3
								c5.4,5.2,10.1,9.6,19.5,8.6c0.2,0,0.4-0.1,0.6-0.1c0.2,0,0.4,0,0.6-0.1c3.1-0.4,5.7-2.5,7.7-6.1c4.9-9,5-26.1,0.1-36.5
								c-0.1-0.2,0-0.5,0.2-0.7c0.2-0.1,0.5,0,0.7,0.2c5,10.6,4.9,28.1-0.1,37.4c-2.1,3.9-5,6.2-8.4,6.6c-0.2,0-0.4,0.1-0.7,0.1
								c-0.2,0-0.4,0-0.6,0.1C869.7,152.4,868.8,152.4,868,152.4z"/>
						</g>
						<g>
							<path d="M872.5,133c-0.3,0-0.5-0.2-0.5-0.5s0.2-0.5,0.5-0.5c0.9,0,3.3-1,3.9-2.4c0.3-0.6,0.2-1.1-0.3-1.6
								c-2.1-2.6-4-10.1-4.1-10.4c-0.1-0.3,0.1-0.5,0.4-0.6c0.3-0.1,0.5,0.1,0.6,0.4c0,0.1,1.9,7.6,3.9,10c0.9,1.1,0.7,2,0.4,2.7
								C876.5,131.7,873.9,133,872.5,133z"/>
						</g>
						<g>
							<path d="M841.4,135.7c-0.5,0-0.8-0.1-0.9-0.1c-0.3-0.1-0.4-0.3-0.4-0.6c0.1-0.3,0.3-0.5,0.6-0.4c0,0,2.3,0.4,3.2-1.2
								c0.1-0.2,0.4-0.3,0.7-0.2c0.2,0.1,0.3,0.4,0.2,0.7C843.9,135.4,842.3,135.7,841.4,135.7z"/>
						</g>
					</g>
				</g>
				<g>
					<path class="st4" d="M879.7,123.6c8.1-0.2,52.8-1.3,58.9-1.7c0.3-3.9-2-11.1-2-11.1c-18.5,1.7-38.7,3.6-57.2,5.3
						c-0.9,0.1-1.7,0.7-1.9,1.6c-0.3,1.2-0.5,3,0.2,4.6C878,123.1,878.9,123.6,879.7,123.6z"/>
				</g>
				<g>
					<path class="st4" d="M1011.1,101.5c0,0,2.1,14.3,1.4,21.4c-15.8,0.5-31.7,0.9-47.7,1.2c-12.1,0.2-24.2,0.4-36.1,0.6
						c-0.5-0.5-2.8-2.9-2.9-6.8c-0.1-4.2,2.6-6.8,3.1-7.2C955.7,107.9,984.3,104.3,1011.1,101.5z"/>
				</g>
				<g>
					<path class="st14" d="M945.6,129.5c0,0-4.3-3.3-9-4.3c-2.2-0.4-3.9-4-4.3-6c-0.4-2,3.4-1.2,4.9,0.5c1.2,1.4,3.4,1.4,5.1,1.7
						c2,0.4,3.9,1.2,5.6,2.2c0.7,0.4,1.4,0.9,1.9,1.6"/>
				</g>
				<g class="st1">
					<path class="st2" d="M945.6,129.5c0,0-4.3-3.3-9-4.3c-2.2-0.4-3.9-4-4.3-6c-0.4-2,3.4-1.2,4.9,0.5c1.2,1.4,3.4,1.4,5.1,1.7
						c2,0.4,3.9,1.2,5.6,2.2c0.7,0.4,1.4,0.9,1.9,1.6"/>
				</g>
				<g>
					<path d="M945.6,130c-0.1,0-0.2,0-0.3-0.1c0,0-4.3-3.2-8.8-4.2c-2.6-0.5-4.3-4.6-4.7-6.4c-0.1-0.7,0.1-1.3,0.7-1.6
						c1.2-0.6,3.8,0.2,5.1,1.6c0.8,1,2.3,1.2,3.8,1.4c0.4,0,0.7,0.1,1,0.2c1.9,0.4,3.9,1.1,5.8,2.3c0.9,0.5,1.6,1.1,2.1,1.7
						c0.2,0.2,0.1,0.5-0.1,0.7c-0.2,0.2-0.5,0.1-0.7-0.1c-0.4-0.5-0.9-1-1.7-1.5c-1.8-1.1-3.6-1.8-5.5-2.1c-0.3-0.1-0.7-0.1-1-0.1
						c-1.5-0.2-3.3-0.4-4.4-1.7c-1-1.1-3.1-1.8-3.9-1.4c-0.1,0-0.2,0.1-0.2,0.5c0.4,1.8,2,5.3,3.9,5.6c4.8,1,9,4.3,9.2,4.4
						c0.2,0.2,0.3,0.5,0.1,0.7C945.9,129.9,945.7,130,945.6,130z"/>
				</g>
				<g>
					<ellipse class="st4" cx="1011.1" cy="112.4" rx="6" ry="10.8"/>
				</g>
				<g>
					<ellipse class="st15" cx="1011.6" cy="112.4" rx="4.1" ry="8.5"/>
				</g>
				<g>
					<path class="st14" d="M954.5,108c1.3,1.9-1.8,5.2-5.4,6.7c-5.7,2.3-14,0.7-15.2-2c-0.8-1.8,1.7-3.7,2.2-4
						C941.1,104.8,952.6,105.2,954.5,108z"/>
				</g>
				<g class="st1">
					<path class="st2" d="M954.5,108c1.3,1.9-1.8,5.2-5.4,6.7c-5.7,2.3-14,0.7-15.2-2c-0.8-1.8,1.7-3.7,2.2-4
						C941.1,104.8,952.6,105.2,954.5,108z"/>
				</g>
				<g>
					<path d="M942.9,116.3c-4.4,0-8.6-1.4-9.4-3.4c-0.9-2.1,1.7-4.2,2.4-4.6c3.4-2.7,9.8-3.4,14.3-2.7c2.4,0.4,4.1,1.1,4.7,2.1l0,0
						c0.4,0.6,0.5,1.3,0.3,2.1c-0.6,1.9-3,4.1-5.9,5.3C947.3,116,945.1,116.3,942.9,116.3z M946.7,106.3c-3.7,0-7.9,0.8-10.3,2.8
						c-0.5,0.3-2.7,2-2,3.4c1,2.3,8.9,4,14.6,1.7c2.5-1.1,4.8-3.1,5.3-4.7c0.1-0.5,0.1-0.9-0.1-1.3c0,0,0,0,0,0
						c-0.5-0.8-2-1.4-4.1-1.7C949,106.4,947.9,106.3,946.7,106.3z"/>
				</g>
				<g>
					<path class="st5" d="M861.7,188.1c2.1-2.6,4.9-6.7,6.9-12.2c2.4-6.7-1.5-11.6,0-13.2c7.3-7.6,66.2,31,69.1,27.8
						c5.1-5.5,6.1-16.8,5-61.9l16.2-0.6c1.5-0.1,5.3,20.2,5.7,22.5c1.6,8.6,2.5,17.3,2.8,26c0.4,13.3,0.4,30.5-6.4,42.4
						c-5.4,9.4-56.5-4-77.4-11.2C862.7,200.7,861.7,188.1,861.7,188.1z"/>
				</g>
				<g>
					<g>
						<g>
							<path class="st14" d="M869.1,151.9c-4.3,7.9,0.3,16.2-6.4,15.7c-10.3-0.8-20-6.3-19.5-16c0.3-4.9-0.4-10.4-1.6-15.8
								c0,0,4.5,3.1,7.8,6.2s8.5,8.1,12.2,8.9C865.4,151.8,866.4,152.2,869.1,151.9z"/>
						</g>
						<g class="st1">
							<path class="st2" d="M869.1,151.9c-4.3,7.9,0.3,16.2-6.4,15.7c-10.3-0.8-20-6.3-19.5-16c0.3-4.9-0.4-10.4-1.6-15.8
								c0,0,4.5,3.1,7.8,6.2s8.5,8.1,12.2,8.9C865.4,151.8,866.4,152.2,869.1,151.9z"/>
						</g>
						<g>
							<path d="M863.2,168.1c-0.2,0-0.4,0-0.6,0c-10-0.8-20.5-6.3-20-16.5c0.3-4.4-0.3-9.7-1.6-15.7c-0.1-0.3,0.1-0.5,0.4-0.6
								c0.3-0.1,0.5,0.1,0.6,0.4c1.3,6.1,1.9,11.4,1.6,15.9c-0.4,6.9,5.4,14.4,19,15.5c1.1,0.1,1.9-0.1,2.4-0.5c1-0.8,1.1-2.7,1.2-5
								c0.2-2.9,0.4-6.4,2.3-9.9c0.1-0.2,0.4-0.3,0.7-0.2s0.3,0.4,0.2,0.7c-1.8,3.3-2,6.7-2.2,9.5c-0.1,2.6-0.3,4.6-1.5,5.7
								C865.2,167.9,864.4,168.1,863.2,168.1z"/>
						</g>
						<g>
							<path class="st15" d="M841.7,123.6c-2-3.7-4.3-12.7-1.4-15.5c3-2.8,5.1-1.5,8.3-2.6c3.1-1.1,6.4-3.1,9.8-4
								c5.6-1.5,12-1.7,16.7,1.9c1.9,1.4,3.4,3.3,4.6,5.4c12.5-14.2,11.6-52.3-2.9-59.7c-8.4-4.3-16.5,21.4-26,25.3
								c-7.4,3-24,8.5-28.4,17.8c-2,4.3-1.5,10.1,0.6,15.5c1.1,2.8,5.2,8.3,7.4,11c0.6,0.8,1.1,1.4,1.6,2.1c1.8-0.6,3.4-0.4,4.9,0.2
								"/>
						</g>
						<g>
							<path d="M868,152.4c-8.2,0-12.8-4.4-17.7-9c-2.6-2.5-5.4-5.1-8.8-7.2c-0.3-0.1-0.5-0.3-0.7-0.5c-0.1-0.1-0.2-0.2-0.3-0.2
								c-3.8-1.5-14-5.7-11.4-12.8c0.1-0.1,1.1-2.6,3.5-3.2c0.3-0.1,0.5,0.1,0.6,0.4s-0.1,0.5-0.4,0.6c-1.9,0.5-2.9,2.6-2.9,2.6
								c-2,5.5,5.3,9.2,10.9,11.5c0.2,0.1,0.3,0.2,0.4,0.3c0.2,0.1,0.4,0.3,0.6,0.4c3.6,2.1,6.4,4.8,9,7.3
								c5.4,5.2,10.1,9.6,19.5,8.6c0.2,0,0.4-0.1,0.6-0.1c0.2,0,0.4,0,0.6-0.1c3.1-0.4,5.7-2.5,7.7-6.1c4.9-9,5-26.1,0.1-36.5
								c-0.1-0.2,0-0.5,0.2-0.7c0.2-0.1,0.5,0,0.7,0.2c5,10.6,4.9,28.1-0.1,37.4c-2.1,3.9-5,6.2-8.4,6.6c-0.2,0-0.4,0.1-0.7,0.1
								c-0.2,0-0.4,0-0.6,0.1C869.7,152.4,868.8,152.4,868,152.4z"/>
						</g>
						<g>
							<path d="M872.5,133c-0.3,0-0.5-0.2-0.5-0.5s0.2-0.5,0.5-0.5c0.9,0,3.3-1,3.9-2.4c0.3-0.6,0.2-1.1-0.3-1.6
								c-2.1-2.6-4-10.1-4.1-10.4c-0.1-0.3,0.1-0.5,0.4-0.6c0.3-0.1,0.5,0.1,0.6,0.4c0,0.1,1.9,7.6,3.9,10c0.9,1.1,0.7,2,0.4,2.7
								C876.5,131.7,873.9,133,872.5,133z"/>
						</g>
						<g>
							<path d="M841.4,135.7c-0.5,0-0.8-0.1-0.9-0.1c-0.3-0.1-0.4-0.3-0.4-0.6c0.1-0.3,0.3-0.5,0.6-0.4c0,0,2.3,0.4,3.2-1.2
								c0.1-0.2,0.4-0.3,0.7-0.2c0.2,0.1,0.3,0.4,0.2,0.7C843.9,135.4,842.3,135.7,841.4,135.7z"/>
						</g>
					</g>
				</g>
			</g>
			<g>
				<path d="M786.2,314.7c-0.2,0-0.4-0.1-0.5-0.3c-0.1-0.3,0.1-0.5,0.3-0.6c0.4-0.1,42-13.8,92.3-2.7c0.3,0.1,0.4,0.3,0.4,0.6
					c-0.1,0.3-0.3,0.4-0.6,0.4c-50-11-91.3,2.5-91.7,2.7C786.3,314.7,786.3,314.7,786.2,314.7z"/>
			</g>
			<g>
				<g>
					<g>
						<path d="M838.2,155.5c-0.2,0-0.5-0.2-0.5-0.4c-0.1-0.6-0.2-1-0.2-1c-0.1-0.3,0.1-0.5,0.4-0.6c0.3-0.1,0.5,0.1,0.6,0.4
							c0,0,0.1,0.4,0.2,1C838.7,155.2,838.6,155.4,838.2,155.5C838.3,155.5,838.2,155.5,838.2,155.5z"/>
					</g>
					<g>
						<path d="M849.8,170.5c-0.1,0-0.2,0-0.2-0.1c-0.6-0.4-1.3-0.7-1.9-1.2c-0.2-0.2-0.3-0.5-0.1-0.7c0.2-0.2,0.5-0.3,0.7-0.1
							c0.6,0.4,1.2,0.8,1.8,1.1c0.2,0.1,0.3,0.4,0.2,0.7C850.1,170.4,850,170.5,849.8,170.5z M844.7,166.6c-0.1,0-0.3-0.1-0.4-0.2
							c-0.5-0.5-1-1.1-1.5-1.6c-0.2-0.2-0.1-0.5,0.1-0.7c0.2-0.2,0.5-0.1,0.7,0.1c0.4,0.6,0.9,1.1,1.4,1.6c0.2,0.2,0.2,0.5,0,0.7
							C844.9,166.5,844.8,166.6,844.7,166.6z M840.8,161.4c-0.2,0-0.3-0.1-0.4-0.3c-0.4-0.6-0.7-1.3-1-1.9c-0.1-0.2,0-0.5,0.2-0.7
							c0.2-0.1,0.5,0,0.7,0.2c0.3,0.6,0.6,1.3,1,1.9c0.1,0.2,0.1,0.5-0.2,0.7C841,161.4,840.9,161.4,840.8,161.4z"/>
					</g>
					<g>
						<path d="M854.7,172.5c0,0-0.1,0-0.1,0c-0.4-0.1-0.7-0.2-1-0.3c-0.3-0.1-0.4-0.4-0.3-0.6c0.1-0.3,0.4-0.4,0.6-0.3l0,0
							c0.3,0.1,0.6,0.2,1,0.3c0.3,0.1,0.4,0.3,0.4,0.6C855.1,172.3,854.9,172.5,854.7,172.5z"/>
					</g>
				</g>
			</g>
			<g>
				<path d="M844.3,357.6c-0.1,0-0.2,0-0.3-0.1c-0.2-0.2-0.3-0.5-0.1-0.7c5-7.4,6.6-17,6.6-17.1c0-0.3,0.3-0.5,0.6-0.4
					c0.3,0,0.5,0.3,0.4,0.6c0,0.1-1.7,9.9-6.8,17.5C844.6,357.5,844.5,357.6,844.3,357.6z"/>
			</g>
			<g>
				<g>
					<path d="M875.8,226.2c-0.1,0-0.2,0-0.3-0.1c-3.6-2.1-5.4-3.1-8.9-5c-0.2-0.1-0.3-0.3-0.3-0.5c0.6-7.5,0.7-11.3,0.6-19.3
						c0-0.3,0.2-0.5,0.4-0.5l18.6-2c0.3,0,0.5,0.1,0.5,0.4c1.3,7-0.1,17.8-0.6,21.9c0,0.3-0.1,0.6-0.1,0.8c0,0.1,0.1,0.2,0,0.3
						c-0.1,0.3-0.2,0.8-0.7,0.7c-0.1,0-0.2,0-0.3-0.1c-3.5,1.4-5.4,2.1-9,3.2C875.9,226.2,875.9,226.2,875.8,226.2z M867.4,220.4
						c3.3,1.7,5.1,2.7,8.4,4.7c3.5-1.2,5.4-1.9,9-3.3c0-0.2,0.1-0.5,0.1-0.8c0.5-3.6,1.8-14.3,0.7-21.1l-17.7,1.9
						C868.1,209.4,868,213.3,867.4,220.4z"/>
				</g>
			</g>
			<g>
				<g>
					<g>
						<path d="M885.4,204.1c-0.2,0-0.5-0.2-0.5-0.4c0-0.3,0.1-0.5,0.4-0.6c0.6-0.1,1-0.2,1-0.2c0.3-0.1,0.5,0.1,0.6,0.4
							c0.1,0.3-0.1,0.5-0.4,0.6C886.5,203.9,886.1,204,885.4,204.1C885.5,204.1,885.4,204.1,885.4,204.1z"/>
					</g>
					<g>
						<path d="M878.3,205.2c-0.2,0-0.5-0.2-0.5-0.4c0-0.3,0.1-0.5,0.4-0.6l0.2,0c0.7-0.1,1.4-0.2,2.1-0.3c0.3,0,0.5,0.2,0.6,0.4
							c0,0.3-0.2,0.5-0.4,0.6c-0.7,0.1-1.4,0.2-2.1,0.3L878.3,205.2C878.4,205.2,878.4,205.2,878.3,205.2z"/>
					</g>
					<g>
						<path d="M872.6,205.9c-0.3,0-0.5-0.2-0.5-0.5s0.2-0.5,0.5-0.5c0.1,0,0.3,0,0.4,0c0.2,0,0.4-0.1,0.6-0.1c0.3,0,0.5,0.2,0.5,0.5
							s-0.2,0.5-0.5,0.5c-0.1,0-0.3,0-0.4,0C873,205.9,872.8,205.9,872.6,205.9z"/>
					</g>
				</g>
			</g>
			<g>
				<path d="M126.5,74.1c-0.1,0-0.2,0-0.3-0.1c-0.5-0.5-11.9-11.4-13.7-14.6c-1.9-3.2-2-15.5-2-16c0-0.3,0.2-0.5,0.5-0.5
					s0.5,0.2,0.5,0.5c0,0.1,0,12.6,1.8,15.5c1.8,3.1,13.4,14.3,13.5,14.4c0.2,0.2,0.2,0.5,0,0.7C126.8,74,126.6,74.1,126.5,74.1z"/>
			</g>
			<g>
				<g>
					<g>
						<path d="M4.5-33.5c-0.2,0-0.5-0.2-0.5-0.4c-0.1-0.6-0.2-0.9-0.2-0.9c-0.1-0.3,0.1-0.5,0.3-0.6c0.3-0.1,0.5,0.1,0.6,0.3
							c0,0,0.1,0.4,0.2,1.1C5-33.8,4.8-33.5,4.5-33.5C4.5-33.5,4.5-33.5,4.5-33.5z"/>
					</g>
					<g>
						<path d="M110.3,60.7c-0.1,0-0.1,0-0.2,0c-0.6-0.2-1.3-0.5-1.9-0.7c-0.3-0.1-0.4-0.4-0.3-0.6s0.4-0.4,0.6-0.3
							c0.6,0.2,1.3,0.5,1.9,0.7c0.3,0.1,0.4,0.4,0.3,0.6C110.7,60.6,110.5,60.7,110.3,60.7z M104.6,58.6c-0.1,0-0.1,0-0.2,0
							l-1.9-0.7c-0.3-0.1-0.4-0.4-0.3-0.6c0.1-0.3,0.4-0.4,0.6-0.3l1.9,0.7c0.3,0.1,0.4,0.4,0.3,0.6C105,58.5,104.8,58.6,104.6,58.6
							z M98.9,56.5c-0.1,0-0.1,0-0.2,0l-1.9-0.7c-0.3-0.1-0.4-0.4-0.3-0.7c0.1-0.3,0.4-0.4,0.7-0.3l1.9,0.7c0.3,0.1,0.4,0.4,0.3,0.6
							C99.3,56.3,99.1,56.5,98.9,56.5z M93.3,54.2c-0.1,0-0.1,0-0.2,0l-1.9-0.8C91,53.3,90.9,53,91,52.7c0.1-0.3,0.4-0.4,0.7-0.3
							l1.9,0.8c0.3,0.1,0.4,0.4,0.3,0.7C93.7,54.1,93.5,54.2,93.3,54.2z M87.7,51.8c-0.1,0-0.1,0-0.2,0L85.7,51
							c-0.3-0.1-0.4-0.4-0.3-0.7c0.1-0.3,0.4-0.4,0.7-0.3l1.9,0.8c0.3,0.1,0.4,0.4,0.3,0.7C88.1,51.7,87.9,51.8,87.7,51.8z
							 M82.2,49.4c-0.1,0-0.1,0-0.2,0c-0.6-0.3-1.2-0.5-1.8-0.8c-0.3-0.1-0.4-0.4-0.3-0.7c0.1-0.3,0.4-0.4,0.7-0.3
							c0.6,0.3,1.2,0.5,1.8,0.8c0.3,0.1,0.4,0.4,0.3,0.7C82.6,49.3,82.4,49.4,82.2,49.4z M76.7,46.9c-0.1,0-0.1,0-0.2,0L74.6,46
							c-0.3-0.1-0.4-0.4-0.2-0.7c0.1-0.3,0.4-0.4,0.7-0.2l1.8,0.8c0.3,0.1,0.4,0.4,0.2,0.7C77,46.8,76.8,46.9,76.7,46.9z M71.2,44.4
							c-0.1,0-0.1,0-0.2,0l-1.8-0.9c-0.2-0.1-0.4-0.4-0.2-0.7c0.1-0.2,0.4-0.4,0.7-0.2l1.8,0.9c0.2,0.1,0.4,0.4,0.2,0.7
							C71.5,44.3,71.4,44.4,71.2,44.4z M65.7,41.7c-0.1,0-0.1,0-0.2-0.1l-1.8-0.9c-0.2-0.1-0.3-0.4-0.2-0.7c0.1-0.2,0.4-0.3,0.7-0.2
							l1.8,0.9c0.2,0.1,0.3,0.4,0.2,0.7C66.1,41.6,65.9,41.7,65.7,41.7z M60.3,39c-0.1,0-0.2,0-0.2-0.1L58.3,38
							c-0.2-0.1-0.3-0.4-0.2-0.7c0.1-0.2,0.4-0.3,0.7-0.2l1.8,0.9c0.2,0.1,0.3,0.4,0.2,0.7C60.7,38.9,60.5,39,60.3,39z M54.9,36.2
							c-0.1,0-0.2,0-0.2-0.1l-1.8-1c-0.2-0.1-0.3-0.4-0.2-0.7c0.1-0.2,0.4-0.3,0.7-0.2l1.8,1c0.2,0.1,0.3,0.4,0.2,0.7
							C55.3,36.1,55.1,36.2,54.9,36.2z M49.6,33.3c-0.1,0-0.2,0-0.2-0.1c-0.6-0.3-1.2-0.7-1.8-1c-0.2-0.1-0.3-0.4-0.2-0.7
							c0.1-0.2,0.4-0.3,0.7-0.2c0.6,0.3,1.2,0.7,1.8,1c0.2,0.1,0.3,0.4,0.2,0.7C50,33.2,49.8,33.3,49.6,33.3z M44.3,30.3
							c-0.1,0-0.2,0-0.3-0.1c-0.6-0.3-1.2-0.7-1.7-1c-0.2-0.1-0.3-0.4-0.2-0.7c0.1-0.2,0.4-0.3,0.7-0.2c0.6,0.3,1.2,0.7,1.7,1
							c0.2,0.1,0.3,0.4,0.2,0.7C44.7,30.2,44.5,30.3,44.3,30.3z M39.1,27.2c-0.1,0-0.2,0-0.3-0.1c-0.6-0.4-1.2-0.7-1.7-1.1
							c-0.2-0.1-0.3-0.5-0.2-0.7c0.1-0.2,0.5-0.3,0.7-0.2c0.6,0.4,1.1,0.7,1.7,1.1c0.2,0.1,0.3,0.5,0.2,0.7
							C39.5,27.1,39.3,27.2,39.1,27.2z M34,23.9c-0.1,0-0.2,0-0.3-0.1c-0.6-0.4-1.1-0.8-1.7-1.1c-0.2-0.2-0.3-0.5-0.1-0.7
							c0.2-0.2,0.5-0.3,0.7-0.1c0.5,0.4,1.1,0.7,1.7,1.1c0.2,0.2,0.3,0.5,0.1,0.7C34.4,23.8,34.2,23.9,34,23.9z M29.1,20.4
							c-0.1,0-0.2,0-0.3-0.1c-0.6-0.4-1.1-0.8-1.6-1.2c-0.2-0.2-0.3-0.5-0.1-0.7c0.2-0.2,0.5-0.3,0.7-0.1c0.5,0.4,1,0.8,1.6,1.2
							c0.2,0.2,0.3,0.5,0.1,0.7C29.4,20.4,29.2,20.4,29.1,20.4z M24.4,16.6c-0.1,0-0.3,0-0.3-0.1c-0.5-0.5-0.9-1-1.4-1.5
							c-0.2-0.2-0.2-0.5,0-0.7c0.2-0.2,0.5-0.2,0.7,0c0.4,0.5,0.9,1,1.4,1.4c0.2,0.2,0.2,0.5,0,0.7C24.7,16.5,24.5,16.6,24.4,16.6z
							 M20.6,11.9c-0.2,0-0.3-0.1-0.4-0.2c-0.4-0.6-0.8-1.1-1.1-1.7c-0.1-0.2-0.1-0.5,0.2-0.7c0.2-0.1,0.5-0.1,0.7,0.2
							c0.4,0.6,0.7,1.1,1.1,1.7c0.2,0.2,0.1,0.5-0.1,0.7C20.8,11.9,20.7,11.9,20.6,11.9z M17.4,6.7c-0.2,0-0.4-0.1-0.4-0.3
							c-0.3-0.6-0.6-1.2-0.9-1.8c-0.1-0.2,0-0.5,0.2-0.7c0.2-0.1,0.5,0,0.7,0.2c0.3,0.6,0.6,1.2,0.9,1.8c0.1,0.2,0,0.5-0.2,0.7
							C17.6,6.7,17.5,6.7,17.4,6.7z M14.8,1.3c-0.2,0-0.4-0.1-0.5-0.3c-0.3-0.6-0.5-1.2-0.8-1.9c-0.1-0.3,0-0.5,0.3-0.7
							c0.3-0.1,0.5,0,0.7,0.3c0.3,0.6,0.5,1.2,0.8,1.9c0.1,0.3,0,0.5-0.3,0.7C15,1.2,14.9,1.3,14.8,1.3z M12.5-4.4
							c-0.2,0-0.4-0.1-0.5-0.3c-0.2-0.6-0.5-1.3-0.7-1.9c-0.1-0.3,0-0.5,0.3-0.6c0.3-0.1,0.5,0,0.6,0.3C12.5-6.3,12.8-5.7,13-5
							c0.1,0.3,0,0.5-0.3,0.6C12.7-4.4,12.6-4.4,12.5-4.4z M10.5-10.1c-0.2,0-0.4-0.1-0.5-0.3c-0.2-0.6-0.4-1.3-0.6-1.9
							c-0.1-0.3,0.1-0.5,0.3-0.6c0.3-0.1,0.5,0.1,0.6,0.3c0.2,0.6,0.4,1.3,0.6,1.9c0.1,0.3-0.1,0.5-0.3,0.6
							C10.6-10.1,10.6-10.1,10.5-10.1z M8.8-15.9c-0.2,0-0.4-0.1-0.5-0.4c-0.2-0.7-0.4-1.3-0.6-2c-0.1-0.3,0.1-0.5,0.3-0.6
							c0.3-0.1,0.5,0.1,0.6,0.3c0.2,0.6,0.4,1.3,0.5,1.9c0.1,0.3-0.1,0.5-0.3,0.6C8.9-15.9,8.8-15.9,8.8-15.9z M7.2-21.7
							c-0.2,0-0.4-0.1-0.5-0.4c-0.2-0.7-0.3-1.3-0.5-2c-0.1-0.3,0.1-0.5,0.4-0.6c0.3-0.1,0.5,0.1,0.6,0.4c0.2,0.6,0.3,1.3,0.5,2
							c0.1,0.3-0.1,0.5-0.4,0.6C7.3-21.7,7.2-21.7,7.2-21.7z M5.7-27.6c-0.2,0-0.4-0.2-0.5-0.4c-0.2-0.7-0.3-1.4-0.4-2
							c-0.1-0.3,0.1-0.5,0.4-0.6c0.3-0.1,0.5,0.1,0.6,0.4c0.1,0.6,0.3,1.3,0.4,2c0.1,0.3-0.1,0.5-0.4,0.6
							C5.8-27.6,5.8-27.6,5.7-27.6z"/>
					</g>
					<g>
						<path d="M115,62.4c-0.1,0-0.1,0-0.2,0l-0.9-0.3c-0.3-0.1-0.4-0.4-0.3-0.6s0.4-0.4,0.6-0.3l0.9,0.3c0.3,0.1,0.4,0.4,0.3,0.6
							C115.4,62.3,115.2,62.4,115,62.4z"/>
					</g>
				</g>
			</g>
			<g>
				<path d="M391.5,421.8c-1.9,0-3.6-1.2-4.2-3.1l-13-41.2c-0.7-2.4,0.5-4.7,2.8-5.5l64.9-20.4c2.4-0.7,4.7,0.5,5.5,2.8l13,41.2
					c0.7,2.4-0.6,4.7-2.9,5.5l-11.8,3.7c-0.3,0.1-0.5-0.1-0.6-0.3c-0.1-0.3,0.1-0.5,0.3-0.6l11.8-3.7c1.8-0.6,2.8-2.4,2.3-4.3
					l-13-41.2c-0.6-1.8-2.5-2.7-4.3-2.2l-64.9,20.4c-1.8,0.6-2.7,2.5-2.2,4.3l13,41.2c0.6,1.8,2.4,2.8,4.3,2.3l39-12.3
					c0.3-0.1,0.5,0.1,0.6,0.3s-0.1,0.5-0.3,0.6l-39,12.3C392.3,421.7,391.9,421.8,391.5,421.8z"/>
			</g>
			<g>
				<g>
					<g>
						<path d="M375.8,378.1C375.8,378.1,375.7,378.1,375.8,378.1l-1.1-0.2c-0.3-0.1-0.4-0.3-0.4-0.6s0.3-0.4,0.6-0.4l1,0.2
							c0.3,0.1,0.4,0.3,0.4,0.6C376.2,377.9,376,378.1,375.8,378.1z"/>
					</g>
					<g>
						<path d="M414.1,387.4c0,0-0.1,0-0.1,0l-1.8-0.4c-0.3-0.1-0.4-0.3-0.4-0.6s0.3-0.4,0.6-0.4l1.8,0.4c0.3,0.1,0.4,0.3,0.4,0.6
							C414.6,387.3,414.3,387.4,414.1,387.4z M408.6,386.1c0,0-0.1,0-0.1,0l-1.8-0.4c-0.3-0.1-0.4-0.3-0.4-0.6
							c0.1-0.3,0.3-0.4,0.6-0.4l1.8,0.4c0.3,0.1,0.4,0.3,0.4,0.6C409.1,386,408.9,386.1,408.6,386.1z M403.2,384.8c0,0-0.1,0-0.1,0
							l-1.8-0.4c-0.3-0.1-0.4-0.3-0.4-0.6s0.3-0.4,0.6-0.4l1.8,0.4c0.3,0.1,0.4,0.3,0.4,0.6C403.6,384.6,403.4,384.8,403.2,384.8z
							 M397.7,383.4c0,0-0.1,0-0.1,0l-1.8-0.4c-0.3-0.1-0.4-0.3-0.4-0.6c0.1-0.3,0.3-0.4,0.6-0.4l1.8,0.4c0.3,0.1,0.4,0.3,0.4,0.6
							C398.1,383.3,397.9,383.4,397.7,383.4z M392.2,382.1c0,0-0.1,0-0.1,0l-1.8-0.4c-0.3-0.1-0.4-0.3-0.4-0.6s0.3-0.4,0.6-0.4
							l1.8,0.4c0.3,0.1,0.4,0.3,0.4,0.6C392.6,382,392.4,382.1,392.2,382.1z M386.7,380.8c0,0-0.1,0-0.1,0l-1.8-0.4
							c-0.3-0.1-0.4-0.3-0.4-0.6s0.3-0.4,0.6-0.4l1.8,0.4c0.3,0.1,0.4,0.3,0.4,0.6C387.1,380.6,386.9,380.8,386.7,380.8z
							 M381.2,379.4c0,0-0.1,0-0.1,0l-1.8-0.4c-0.3-0.1-0.4-0.3-0.4-0.6c0.1-0.3,0.3-0.4,0.6-0.4l1.8,0.4c0.3,0.1,0.4,0.3,0.4,0.6
							C381.7,379.3,381.5,379.4,381.2,379.4z"/>
					</g>
					<g>
						<path d="M418.8,388.6C418.8,388.6,418.7,388.6,418.8,388.6l-1.1-0.2c-0.3-0.1-0.4-0.3-0.4-0.6c0.1-0.3,0.3-0.4,0.6-0.4
							l0.7,0.1l0.4-0.5c0.2-0.2,0.5-0.2,0.7-0.1c0.2,0.2,0.2,0.5,0.1,0.7l-0.6,0.7C419.1,388.5,418.9,388.6,418.8,388.6z"/>
					</g>
					<g>
						<path d="M422.1,384.7c-0.1,0-0.2,0-0.3-0.1c-0.2-0.2-0.2-0.5-0.1-0.7l1.4-1.6c0.2-0.2,0.5-0.2,0.7-0.1
							c0.2,0.2,0.2,0.5,0.1,0.7l-1.4,1.6C422.4,384.6,422.2,384.7,422.1,384.7z M426.2,379.9c-0.1,0-0.2,0-0.3-0.1
							c-0.2-0.2-0.2-0.5-0.1-0.7l1.4-1.6c0.2-0.2,0.5-0.2,0.7-0.1c0.2,0.2,0.2,0.5,0.1,0.7l-1.4,1.6
							C426.4,379.8,426.3,379.9,426.2,379.9z M430.2,375.1c-0.1,0-0.2,0-0.3-0.1c-0.2-0.2-0.2-0.5-0.1-0.7l1.4-1.6
							c0.2-0.2,0.5-0.2,0.7-0.1c0.2,0.2,0.2,0.5,0.1,0.7l-1.4,1.6C430.5,375,430.4,375.1,430.2,375.1z M434.3,370.3
							c-0.1,0-0.2,0-0.3-0.1c-0.2-0.2-0.2-0.5-0.1-0.7l1.4-1.6c0.2-0.2,0.5-0.2,0.7-0.1c0.2,0.2,0.2,0.5,0.1,0.7l-1.4,1.6
							C434.6,370.2,434.4,370.3,434.3,370.3z M438.3,365.5c-0.1,0-0.2,0-0.3-0.1c-0.2-0.2-0.2-0.5-0.1-0.7l1.4-1.6
							c0.2-0.2,0.5-0.2,0.7-0.1c0.2,0.2,0.2,0.5,0.1,0.7l-1.4,1.6C438.6,365.4,438.5,365.5,438.3,365.5z M442.4,360.7
							c-0.1,0-0.2,0-0.3-0.1c-0.2-0.2-0.2-0.5-0.1-0.7l1.4-1.6c0.2-0.2,0.5-0.2,0.7-0.1c0.2,0.2,0.2,0.5,0.1,0.7l-1.4,1.6
							C442.7,360.6,442.5,360.7,442.4,360.7z"/>
					</g>
					<g>
						<path d="M446.5,355.9c-0.1,0-0.2,0-0.3-0.1c-0.2-0.2-0.3-0.5-0.1-0.7l0.6-0.8c0.2-0.2,0.5-0.3,0.7-0.1
							c0.2,0.2,0.3,0.5,0.1,0.7l-0.6,0.8C446.8,355.8,446.7,355.9,446.5,355.9z"/>
					</g>
				</g>
			</g>
		</g>
	</g>
</g>
</svg>
