<svg width="566" height="1034" viewBox="0 0 566 1034" fill="none" xmlns="http://www.w3.org/2000/svg">
<path opacity="0.32" d="M562.5 699C586.214 977.994 455.5 1065 243 1024.5C86.5352 994.68 33.5 929 0 840.677V540.5V0.5C139 675.5 545.5 499 562.5 699Z" fill="#A8CAFF"/>
<path d="M339.481 947.232C316.051 961.99 285.086 954.947 270.317 931.501C255.549 908.055 262.57 877.085 285.999 862.327C309.428 847.569 340.393 854.612 355.161 878.058C369.93 901.504 362.909 932.474 339.481 947.232Z" fill="#F2B0A1"/>
<path d="M339.422 942.999C317.023 957.108 287.421 950.375 273.303 927.961C259.183 905.546 265.896 875.94 288.294 861.831C310.692 847.722 340.294 854.455 354.413 876.87C368.532 899.284 361.82 928.891 339.422 942.999Z" fill="#FFB4A5"/>
<path d="M192.827 861.165L438.918 706.153C442.645 703.806 443.762 698.881 441.413 695.152L387.677 609.843C376.6 592.257 353.372 586.974 335.8 598.043L139.82 721.49C122.247 732.559 116.981 755.79 128.058 773.376L181.77 858.648C184.13 862.403 189.08 863.525 192.827 861.165Z" fill="#D5E5FF"/>
<path d="M192.453 861.399L439.964 705.494C442.872 703.662 443.582 700.041 441.413 698.11L369.172 633.647C356.952 622.744 336.78 622.334 320.385 632.662L177.697 722.54C161.302 732.867 152.958 751.234 157.516 766.968L184.258 859.285C185.169 862.426 189.185 863.458 192.453 861.399Z" fill="#B8D1FF"/>
<path d="M192.642 861.361L440.152 705.455C443.061 703.624 443.771 700.003 441.603 698.073L369.36 633.609C357.141 622.706 336.969 622.296 320.573 632.624L177.887 722.501C161.491 732.829 153.147 751.196 157.706 766.929L184.446 859.247C185.36 862.382 189.378 863.418 192.642 861.361Z" fill="#B8D1FF"/>
<path opacity="0.8" d="M288.332 797.028C265.339 811.511 234.687 804.179 219.868 780.653C205.048 757.126 211.674 726.314 234.666 711.831C257.658 697.348 288.311 704.679 303.13 728.206C317.95 751.733 311.323 782.545 288.332 797.028Z" fill="#ACC6FF"/>
<path d="M309.988 907.935C309.988 907.935 317.128 929.054 313.056 931.619C308.982 934.184 296.397 934.522 292.649 933.088C288.902 931.654 282.085 928.357 298.53 925.114C298.53 925.114 305.546 924.965 298.773 911.204L309.988 907.935Z" fill="#BA7C3D"/>
<path d="M313.424 907.137C313.424 907.137 326.339 925.429 330.842 923.727C335.346 922.028 343.207 912.195 344.325 908.341C345.444 904.486 348.01 898.8 334.418 908.22C334.418 908.22 329.142 911.998 323.174 900.024L313.424 907.137Z" fill="#C6813D"/>
<path d="M229.533 791.873L279.45 768.021C279.45 768.021 306.129 860.796 310.264 907.999L298.711 911.481C298.711 911.481 246.249 804.114 247.298 789.222L229.533 791.873Z" fill="#4775D1"/>
<path d="M279.45 768.02L229.426 791.893C229.426 791.893 264.055 856.463 313.777 907.788L324.044 901.453C324.044 901.453 269.966 792.917 258.118 783.824L279.45 768.02Z" fill="#538EFF"/>
<path d="M288.775 781.62C288.361 781.881 287.814 781.757 287.552 781.342C287.291 780.927 287.416 780.38 287.829 780.119C288.244 779.858 288.791 779.982 289.053 780.397C289.314 780.812 289.189 781.359 288.775 781.62Z" fill="#F2F2F2"/>
<path d="M279.374 764.648L267.651 727.299C266.933 725.014 269.767 723.305 271.45 725.006C274.119 727.707 277.486 731.459 281.233 736.429C281.683 737.022 282.446 736.925 283.093 736.551L294.721 730.176C295.353 729.811 295.218 729.236 294.954 728.554C292.428 722.09 278.997 691.752 251.022 695.796C219.741 700.32 203.485 702.734 196.014 722.856C189.558 740.248 188.811 747.806 188.767 750.091C188.758 750.552 189.07 750.957 189.519 751.068L204.832 754.539C205.403 754.678 205.646 754.492 205.717 753.906C206.208 749.936 208.832 737.898 214.703 755.912L228.753 792.26C228.886 792.607 229.298 792.756 229.626 792.577L279.085 765.371C279.341 765.228 279.459 764.926 279.374 764.648Z" fill="#FBB03B"/>
<path d="M253.29 823.81L297.324 798.954C298.681 798.189 299.159 796.464 298.39 795.108L281.383 764.987C280.617 763.628 278.894 763.149 277.539 763.918L233.506 788.773C232.148 789.539 231.67 791.263 232.44 792.62L249.445 822.741C250.215 824.097 251.935 824.579 253.29 823.81Z" fill="#F2F2F2" stroke="#C6813D" stroke-miterlimit="10"/>
<path d="M236.167 791.489L257.497 779.449L265.784 794.129L244.454 806.168L236.167 791.489Z" fill="#7AB1D1"/>
<path d="M242.837 806.974C242.556 807.151 242.185 807.067 242.007 806.785C241.83 806.504 241.914 806.133 242.195 805.956C242.477 805.778 242.848 805.863 243.025 806.144C243.203 806.426 243.118 806.797 242.837 806.974Z" fill="#CCCCCC"/>
<path d="M288.944 781.889C288.382 782.243 287.639 782.074 287.284 781.512C286.93 780.949 287.099 780.206 287.661 779.852C288.223 779.497 288.967 779.666 289.321 780.229C289.676 780.791 289.507 781.535 288.944 781.889Z" fill="#999999"/>
<path d="M257.293 779.59L278.84 767.427L287.143 782.135L265.596 794.297L257.293 779.59Z" fill="#D9E021"/>
<path d="M244.303 805.874L265.633 793.835L273.921 808.515L252.59 820.554L244.303 805.874Z" fill="#FBB03B"/>
<path d="M265.429 793.974L286.976 781.813L295.279 796.521L273.731 808.682L265.429 793.974Z" fill="#FF8674"/>
<path d="M252.936 697.462C251.985 697.76 250.54 695.86 249.709 693.216C248.877 690.574 248.974 688.189 249.925 687.89C250.876 687.592 252.322 689.492 253.153 692.134C253.984 694.778 253.887 697.163 252.936 697.462Z" fill="#C6813D"/>
<path d="M212.426 712.106C211.493 712.456 209.947 710.636 208.974 708.042C208 705.448 207.969 703.061 208.902 702.711C209.836 702.362 211.381 704.181 212.354 706.776C213.328 709.37 213.359 711.756 212.426 712.106Z" fill="#C6813D"/>
<path d="M242.968 719.133C232.94 725.45 219.304 721.827 212.511 711.042C205.718 700.257 208.339 686.394 218.367 680.078C228.395 673.761 242.031 677.384 248.824 688.169C255.618 698.953 252.996 712.817 242.968 719.133Z" fill="#C6813D"/>
<path d="M239.207 719.145C239.207 719.145 239.552 723.231 237.088 723.833C234.72 724.415 233.407 720.887 233.407 720.887L239.207 719.145Z" fill="#C6813D"/>
<path d="M243.353 715.623C243.035 715.722 242.668 715.45 242.53 715.015C242.393 714.58 242.539 714.145 242.856 714.046C243.174 713.946 243.541 714.218 243.679 714.654C243.816 715.09 243.67 715.524 243.353 715.623Z" fill="#1A1A1A"/>
<path d="M228.43 719.683C228.104 719.742 227.775 719.442 227.698 719.012C227.62 718.582 227.822 718.186 228.149 718.127C228.476 718.068 228.804 718.368 228.882 718.798C228.959 719.228 228.757 719.624 228.43 719.683Z" fill="#1A1A1A"/>
<path d="M224.135 716.644C224.135 716.644 226.519 714.767 229.601 715.349" stroke="#603813" stroke-miterlimit="10" stroke-linecap="round"/>
<path d="M262.18 812.073C262.18 812.073 260.482 813.171 259.248 811.836C259.248 811.836 258.193 810.817 257.073 810.996C256.023 811.164 255.861 809.274 255.862 808.628C255.863 807.968 257.19 806.814 256.544 806.519C256.319 806.419 263.407 802.04 262.71 804.75C262.71 804.75 262.719 805.034 263.218 805.413C263.56 805.671 263.741 806.093 263.682 806.519C263.645 806.79 263.549 807.135 263.365 807.573C263.141 808.104 263.053 808.68 263.121 809.255C263.228 810.117 263.188 811.423 262.18 812.073Z" fill="#251C0B"/>
<path d="M258.296 807.029L260.108 806.571C261.212 806.344 262.12 807.101 262.342 808.19L262.694 809.533C262.94 810.464 262.338 811.413 261.38 811.609L261.054 811.676C260.138 811.864 259.246 811.283 259.061 810.38L258.296 807.029Z" fill="#C6813D"/>
<path d="M259.549 797.202C259.549 797.202 263.653 802.995 259.643 805.335L257.18 806.483C256.542 806.781 255.108 806.73 254.394 806.109C253.419 805.2 251.403 801.811 251.403 801.811L259.549 797.202Z" fill="#FF3200"/>
<path d="M260.421 809.707C260.369 809.727 260.303 809.68 260.273 809.601C260.243 809.522 260.26 809.442 260.313 809.422C260.364 809.403 260.43 809.451 260.46 809.529C260.49 809.609 260.473 809.688 260.421 809.707Z" fill="#1A1A1A"/>
<path d="M261.168 809.194C261.168 809.194 261.376 808.171 260.918 808.399" stroke="#754C24" stroke-width="0.5" stroke-miterlimit="10" stroke-linecap="round"/>
<path d="M260.831 807.779C260.761 807.848 260.4 808.217 260.266 808.562C260.264 808.573 260.25 808.573 260.242 808.568C260.202 808.527 260.107 808.406 260.088 808.209C260.065 807.925 260.277 807.668 260.564 807.672C260.651 807.674 260.742 807.698 260.831 807.764C260.835 807.762 260.838 807.775 260.831 807.779Z" fill="white"/>
<path d="M261.984 809.19C261.929 809.199 261.873 809.139 261.86 809.056C261.846 808.972 261.88 808.898 261.935 808.889C261.989 808.881 262.045 808.94 262.058 809.023C262.072 809.107 262.038 809.181 261.984 809.19Z" fill="#1A1A1A"/>
<path d="M260.786 810.213C260.786 810.213 260.232 810.41 259.955 810.097" stroke="#251C0B" stroke-width="0.5" stroke-miterlimit="10" stroke-linecap="round"/>
<path d="M262.071 809.694C262.058 809.712 262.529 809.618 262.603 809.178" stroke="#251C0B" stroke-width="0.5" stroke-miterlimit="10" stroke-linecap="round"/>
<path d="M261.709 811.913C261.709 811.913 259.915 809.983 258.849 810.223C257.782 810.464 260.418 812.617 261.709 811.913Z" fill="#251C0B"/>
<path d="M261.324 811.828C261.324 811.828 261.759 810.202 262.855 809.712C262.849 809.71 263.378 811.198 261.324 811.828Z" fill="#251C0B"/>
<path d="M258.925 810.3C258.681 810.415 258.387 810.303 258.269 810.052C258.153 809.802 258.257 809.505 258.502 809.391C258.747 809.277 259.04 809.388 259.157 809.638C259.274 809.89 259.171 810.185 258.925 810.3Z" fill="#C6813D"/>
<path d="M258.921 810.007C258.921 810.007 258.6 810.28 258.455 809.854" stroke="#754C24" stroke-width="0.5" stroke-miterlimit="10" stroke-linecap="round"/>
<path d="M259.489 805.408L259.996 807.522L258.733 808.242L257.631 806.265C257.631 806.265 257.396 805.456 258.226 805.065C259.06 804.667 259.489 805.408 259.489 805.408Z" fill="#C6813D"/>
<path d="M259.789 806.651C259.789 806.651 259.275 806.88 259.035 807.283C259.035 807.283 259.132 806.577 259.697 806.264L259.789 806.651Z" fill="#B8702F"/>
<path d="M275.703 784.905C275.703 784.905 277.452 784.046 276.963 782.366C276.963 782.366 276.656 781.217 278.043 779.822C278.766 779.096 278.589 778.378 278.252 777.86C277.88 777.283 277.712 776.601 277.787 775.923C277.813 775.687 277.779 775.459 277.76 775.256C277.756 775.212 277.752 775.167 277.747 775.123C277.448 772.782 274.547 771.849 272.889 773.529L267.898 778.58C267.898 778.58 266.809 780.96 269.393 781.728C269.393 781.728 269.63 781.876 269.692 782.487C269.734 782.893 269.997 783.244 270.377 783.403C270.622 783.505 270.958 783.602 271.415 783.665C271.959 783.74 272.475 783.956 272.91 784.293C273.568 784.804 274.669 785.415 275.703 784.905Z" fill="#FF3200"/>
<path d="M273.457 779.201L272.183 780.473C271.451 781.275 271.627 782.398 272.414 783.121L273.347 784.076C273.996 784.738 275.076 784.713 275.71 784.02L275.926 783.783C276.534 783.121 276.499 782.095 275.842 781.498L273.457 779.201Z" fill="#FFB4A5"/>
<path d="M274.275 775.014C274.898 776.913 273.79 777.818 273.79 777.818L273.784 777.808C273.717 777.883 273.639 777.956 273.547 778.019L271.379 779.485C267.848 782.345 263.941 775.811 263.941 775.811L272.37 771.033L274.275 775.014Z" fill="#7AB1D1"/>
<path d="M274.448 782.248C274.399 782.186 274.393 782.108 274.435 782.075C274.477 782.042 274.55 782.067 274.6 782.129C274.649 782.191 274.655 782.269 274.614 782.302C274.572 782.335 274.499 782.311 274.448 782.248Z" fill="#1A1A1A"/>
<path d="M273.829 782.643C273.829 782.643 272.878 782.308 273.299 782.043" stroke="#FF8674" stroke-width="0.25" stroke-miterlimit="10" stroke-linecap="round"/>
<path d="M272.825 781.667C272.915 781.644 273.401 781.527 273.751 781.586C273.762 781.589 273.77 781.579 273.767 781.567C273.753 781.514 273.704 781.375 273.546 781.26C273.323 781.102 273.006 781.15 272.866 781.385C272.824 781.454 272.8 781.545 272.809 781.649C272.809 781.664 272.818 781.672 272.825 781.667Z" fill="white"/>
<path d="M273.256 783.312C273.195 783.261 273.174 783.187 273.208 783.145C273.241 783.105 273.319 783.114 273.38 783.166C273.441 783.217 273.463 783.292 273.428 783.332C273.395 783.373 273.317 783.364 273.256 783.312Z" fill="#1A1A1A"/>
<path d="M274.859 782.835C274.859 782.835 275.296 782.474 275.176 782.089" stroke="#FF3200" stroke-width="0.25" stroke-miterlimit="10" stroke-linecap="round"/>
<path d="M273.792 783.639C273.813 783.635 273.502 783.983 273.102 783.822" stroke="#FF3200" stroke-width="0.25" stroke-miterlimit="10" stroke-linecap="round"/>
<path d="M275.807 784.438C275.807 784.438 275.101 781.999 275.829 781.237C276.555 780.476 277.025 783.723 275.807 784.438Z" fill="#FF3200"/>
<path d="M275.927 784.077C275.927 784.077 274.366 783.632 273.422 784.293C273.42 784.289 274.391 785.463 275.927 784.077Z" fill="#FF3200"/>
<path d="M275.167 781.189C275.018 780.968 275.074 780.671 275.29 780.524C275.506 780.378 275.803 780.438 275.951 780.659C276.101 780.879 276.046 781.176 275.829 781.322C275.613 781.469 275.316 781.409 275.167 781.189Z" fill="#FFB4A5"/>
<path d="M275.608 781.195C275.608 781.195 275.997 781.064 275.712 780.735" stroke="#FF8674" stroke-width="0.25" stroke-miterlimit="10" stroke-linecap="round"/>
<path d="M271.531 779.385L273.024 780.854L274.245 780.166L273.154 778.276C273.154 778.276 272.604 777.68 271.866 778.173C271.132 778.664 271.531 779.385 271.531 779.385Z" fill="#FFB4A5"/>
<path d="M272.405 780.248C272.405 780.248 272.849 779.936 273.302 779.94C273.302 779.94 272.673 779.672 272.134 779.983L272.405 780.248Z" fill="#FFA490"/>
<path d="M283.556 802.226C283.556 802.226 281.902 803.302 280.549 802.238C280.352 802.082 280.201 801.873 280.09 801.644C279.84 801.128 279.422 800.139 279.74 799.854C280.631 799.056 282.466 796.409 284.257 798.897C284.829 799.693 284.692 801.492 283.556 802.226Z" fill="#603813"/>
<path d="M279.175 796.548L281.218 796.029C282.465 795.774 283.485 796.627 283.738 797.848L284.138 799.356C284.415 800.405 283.742 801.474 282.662 801.694L282.296 801.767C281.265 801.981 280.258 801.324 280.052 800.312L279.175 796.548Z" fill="#C6813D"/>
<path d="M280.572 785.483C280.572 785.483 285.203 792 280.688 794.646L277.917 795.945C277.201 796.282 275.584 796.228 274.781 795.525C273.683 794.504 271.404 790.692 271.404 790.692L280.572 785.483Z" fill="#FBB03B"/>
<path d="M281.587 799.582C281.529 799.604 281.455 799.552 281.422 799.465C281.389 799.378 281.409 799.29 281.467 799.267C281.525 799.245 281.599 799.298 281.632 799.385C281.665 799.471 281.645 799.56 281.587 799.582Z" fill="#1A1A1A"/>
<path d="M282.412 798.986C282.412 798.986 282.648 797.832 282.128 798.092" stroke="#754C24" stroke-width="0.25" stroke-miterlimit="10" stroke-linecap="round"/>
<path d="M282.034 797.393C281.956 797.47 281.547 797.885 281.398 798.273C281.396 798.284 281.38 798.289 281.374 798.279C281.331 798.234 281.22 798.095 281.198 797.872C281.172 797.551 281.412 797.263 281.731 797.266C281.828 797.267 281.929 797.293 282.031 797.366C282.041 797.374 282.039 797.385 282.034 797.393Z" fill="white"/>
<path d="M283.353 798.966C283.292 798.976 283.23 798.909 283.215 798.817C283.199 798.725 283.237 798.643 283.299 798.633C283.36 798.623 283.421 798.69 283.437 798.782C283.452 798.873 283.414 798.955 283.353 798.966Z" fill="#1A1A1A"/>
<path d="M281.986 800.131C281.986 800.131 281.363 800.354 281.047 800.002" stroke="#603813" stroke-width="0.25" stroke-miterlimit="10" stroke-linecap="round"/>
<path d="M283.432 799.543C283.416 799.563 283.951 799.458 284.031 798.961" stroke="#603813" stroke-width="0.25" stroke-miterlimit="10" stroke-linecap="round"/>
<path d="M281.898 802.251C281.898 802.251 281.316 799.662 280.112 799.932C278.908 800.203 280.552 802.122 281.898 802.251Z" fill="#603813"/>
<path d="M281.508 802.014C281.508 802.014 283.083 800.12 284.309 799.566C284.312 799.564 284.584 802.14 281.508 802.014Z" fill="#603813"/>
<path d="M279.913 800.206C279.637 800.335 279.306 800.213 279.174 799.932C279.042 799.651 279.159 799.318 279.437 799.189C279.713 799.059 280.044 799.182 280.176 799.462C280.308 799.744 280.19 800.077 279.913 800.206Z" fill="#C6813D"/>
<path d="M279.885 799.904C279.885 799.904 279.521 800.214 279.36 799.732" stroke="#754C24" stroke-width="0.25" stroke-miterlimit="10" stroke-linecap="round"/>
<path d="M280.519 794.724L281.094 797.104L279.673 797.918L278.426 795.691C278.426 795.691 278.156 794.78 279.094 794.336C280.032 793.892 280.519 794.724 280.519 794.724Z" fill="#C6813D"/>
<path d="M280.859 796.121C280.859 796.121 280.277 796.379 280.01 796.836C280.01 796.836 280.12 796.041 280.751 795.687L280.859 796.121Z" fill="#B8702F"/>
<path d="M254.516 798.152C254.516 798.152 252.986 799.14 251.74 798.155C251.555 798.011 251.418 797.817 251.318 797.605C251.089 797.128 250.702 796.214 251.001 795.95C251.828 795.216 253.53 792.778 255.172 795.078C255.697 795.819 255.568 797.48 254.516 798.152Z" fill="#C6813D"/>
<path d="M250.485 792.897L252.373 792.425C253.526 792.192 254.467 792.979 254.693 794.113L255.056 795.511C255.312 796.48 254.684 797.463 253.687 797.664L253.346 797.732C252.392 797.925 251.465 797.318 251.276 796.379L250.485 792.897Z" fill="#EEB6B5"/>
<path d="M251.806 782.681C251.806 782.681 256.065 788.712 251.889 791.144L249.327 792.336C248.663 792.644 247.173 792.591 246.432 791.939C245.422 790.991 243.326 787.469 243.326 787.469L251.806 782.681Z" fill="#D9E021"/>
<path d="M252.695 795.709C252.642 795.729 252.573 795.68 252.542 795.599C252.512 795.518 252.531 795.436 252.585 795.415C252.639 795.396 252.707 795.445 252.738 795.525C252.769 795.606 252.749 795.688 252.695 795.709Z" fill="#1A1A1A"/>
<path d="M253.466 795.161C253.466 795.161 253.685 794.094 253.206 794.334" stroke="#C6813D" stroke-width="0.25" stroke-miterlimit="10" stroke-linecap="round"/>
<path d="M253.12 793.686C253.045 793.756 252.671 794.139 252.531 794.497C252.529 794.508 252.514 794.508 252.507 794.503C252.467 794.462 252.364 794.337 252.346 794.129C252.323 793.835 252.547 793.566 252.843 793.57C252.933 793.571 253.026 793.597 253.121 793.665C253.129 793.669 253.127 793.681 253.12 793.686Z" fill="white"/>
<path d="M254.32 795.176C254.264 795.185 254.207 795.123 254.193 795.037C254.18 794.952 254.214 794.876 254.271 794.867C254.328 794.858 254.385 794.92 254.399 795.004C254.413 795.09 254.377 795.167 254.32 795.176Z" fill="#1A1A1A"/>
<path d="M253.07 796.217C253.07 796.217 252.496 796.421 252.201 796.095" stroke="#C6813D" stroke-width="0.25" stroke-miterlimit="10" stroke-linecap="round"/>
<path d="M254.408 795.678C254.396 795.695 254.885 795.6 254.964 795.138" stroke="#C6813D" stroke-width="0.25" stroke-miterlimit="10" stroke-linecap="round"/>
<path d="M252.982 798.17C252.982 798.17 252.451 795.777 251.336 796.024C250.221 796.271 251.741 798.051 252.982 798.17Z" fill="#C6813D"/>
<path d="M252.627 797.953C252.627 797.953 254.77 794.994 256.311 796.704C256.308 796.706 253.536 800.321 252.627 797.953Z" fill="#C6813D"/>
<path d="M251.129 796.257C250.875 796.376 250.57 796.259 250.448 795.998C250.327 795.736 250.436 795.429 250.69 795.31C250.946 795.192 251.25 795.308 251.372 795.568C251.493 795.83 251.385 796.138 251.129 796.257Z" fill="#EEB6B5"/>
<path d="M251.132 796C251.132 796 250.795 796.284 250.647 795.84" stroke="#C6813D" stroke-width="0.25" stroke-miterlimit="10" stroke-linecap="round"/>
<path d="M251.731 791.217L252.253 793.416L250.938 794.164L249.796 792.104C249.796 792.104 249.55 791.262 250.417 790.853C251.285 790.449 251.731 791.217 251.731 791.217Z" fill="#EEB6B5"/>
<path d="M252.039 792.512C252.039 792.512 251.502 792.751 251.253 793.169C251.253 793.169 251.355 792.435 251.941 792.109L252.039 792.512Z" fill="#E5A9A7"/>
<path opacity="0.2" d="M236.18 791.483L278.806 767.424L295.218 796.496L252.592 820.556L236.18 791.483Z" fill="#999999"/>
<path d="M294.72 730.177C294.72 730.177 287.165 733.987 283.092 736.552C283.52 737.232 290.416 753.348 292.42 765.396C292.655 766.814 292.135 768.247 291.049 769.187L286.195 772.971C285.947 773.165 285.827 773.487 285.913 773.788C286.406 775.527 288.911 778.902 288.911 778.902C289.89 780.457 289.934 782.361 288.499 783.507C286.552 785.06 284.229 787.144 284.333 788.19C284.506 789.94 286.537 790.297 292.296 785.834C292.477 785.691 292.743 785.738 292.865 785.932L293.492 786.927C294.108 787.905 300.555 781.951 301.571 775.671C303.025 766.69 303.092 750.994 294.72 730.177Z" fill="#C6813D"/>
<path d="M292.453 765.176C292.453 765.176 288.971 743.58 285.931 734.879L283.157 736.511C283.157 736.511 291.386 757.68 292.453 765.176Z" fill="#BA7C3D"/>
<path d="M203.172 754.163L190.447 751.269C190.447 751.269 186.52 769.87 198.936 780.55L221.813 791.281C221.813 791.281 226.268 799.859 232.694 801.03C232.694 801.03 233.612 802.112 240.927 796.793C240.927 796.793 248.223 803.108 249.831 801.146C249.831 801.146 251.529 800.077 240.611 791.774C240.611 791.774 235.263 783.284 227.103 784.629C227.103 784.629 205.193 770.917 203.695 768.539C202.197 766.162 203.172 754.163 203.172 754.163Z" fill="#C6813D"/>
<path d="M203.191 754.169L199.039 753.326L203.269 767.796L203.191 754.169Z" fill="#BA7C3D"/>
<path opacity="0.4" d="M252.786 782.131L249.01 784.226L282.438 803.732L286.878 801.291L252.786 782.131Z" fill="#F2F2F2"/>
<path opacity="0.4" d="M247.732 784.973L246.474 785.671L280.362 804.936L281.822 804.13L247.732 784.973Z" fill="#F2F2F2"/>
<path d="M240.019 712.795C240.019 712.795 242.491 711.038 245.542 711.773" stroke="#603813" stroke-miterlimit="10" stroke-linecap="round"/>
<path d="M212.802 711.505C217.325 718.684 221.151 711.89 227.797 712.733C258.741 716.661 255.91 699.418 249.116 688.631C242.321 677.845 235.713 669.551 219.914 675.978C205.069 682.017 206.01 700.722 212.802 711.505Z" fill="#42210B"/>
</svg>
