<svg width="64" height="64" viewBox="0 0 64 64" fill="none" xmlns="http://www.w3.org/2000/svg">
<path d="M5.17733 30.7022C5.11205 30.4333 5.15605 30.1494 5.29968 29.9129C5.44331 29.6764 5.67486 29.5065 5.94356 29.4404L12.2846 27.8902C12.4193 27.8533 12.56 27.8438 12.6985 27.8622C12.837 27.8806 12.9704 27.9266 13.0908 27.9974C13.2111 28.0683 13.3161 28.1625 13.3995 28.2746C13.4828 28.3867 13.5429 28.5144 13.5761 28.6501C13.6093 28.7857 13.6149 28.9267 13.5927 29.0646C13.5705 29.2025 13.5209 29.3346 13.4468 29.453C13.3727 29.5714 13.2756 29.6738 13.1612 29.754C13.0469 29.8343 12.9176 29.8908 12.7811 29.9202L6.44114 31.4705C6.35979 31.4908 6.27622 31.501 6.19235 31.5008C5.95816 31.5006 5.7308 31.4218 5.54675 31.277C5.3627 31.1322 5.2326 30.9297 5.17733 30.7022ZM12.7874 43.6821L6.93349 45.1142C6.68573 45.1752 6.46883 45.3247 6.32367 45.5345C6.17852 45.7444 6.11514 46.0001 6.14547 46.2535C6.17581 46.5068 6.29777 46.7403 6.48836 46.91C6.67896 47.0797 6.92503 47.1737 7.18019 47.1745C7.2644 47.1747 7.34831 47.1645 7.43003 47.1442L13.2839 45.7121C13.4204 45.6826 13.5497 45.6261 13.664 45.5459C13.7784 45.4656 13.8755 45.3633 13.9496 45.2449C14.0237 45.1264 14.0733 44.9944 14.0955 44.8565C14.1177 44.7186 14.1121 44.5776 14.0789 44.4419C14.0457 44.3062 13.9857 44.1786 13.9023 44.0665C13.8189 43.9544 13.714 43.8601 13.5936 43.7893C13.4732 43.7185 13.3398 43.6725 13.2013 43.6541C13.0628 43.6356 12.9221 43.6452 12.7874 43.6821V43.6821ZM27.4618 51.3788L25.716 51.8064C25.4683 51.8674 25.2514 52.0169 25.1062 52.2268C24.9611 52.4366 24.8977 52.6923 24.928 52.9457C24.9584 53.199 25.0803 53.4326 25.2709 53.6022C25.4615 53.7719 25.7076 53.866 25.9627 53.8667C26.0466 53.867 26.1302 53.8568 26.2115 53.8364L27.9572 53.4099C28.0911 53.3779 28.2173 53.3197 28.3287 53.2388C28.44 53.1578 28.5343 53.0556 28.606 52.9382C28.6778 52.8207 28.7256 52.6902 28.7468 52.5542C28.768 52.4182 28.7621 52.2793 28.7294 52.1456C28.6968 52.0118 28.6381 51.8859 28.5567 51.7749C28.4752 51.6639 28.3727 51.5701 28.2549 51.4989C28.1371 51.4276 28.0064 51.3803 27.8703 51.3598C27.7342 51.3392 27.5953 51.3456 27.4618 51.3788V51.3788ZM35.6101 49.3875L30.718 50.5823C30.4702 50.6433 30.2533 50.7928 30.1081 51.0027C29.963 51.2125 29.8996 51.4682 29.9299 51.7216C29.9603 51.975 30.0822 52.2085 30.2728 52.3781C30.4634 52.5478 30.7095 52.6419 30.9647 52.6427C31.0485 52.6428 31.1321 52.6326 31.2135 52.6123L36.1035 51.4175C36.2401 51.3881 36.3693 51.3316 36.4837 51.2513C36.598 51.171 36.6951 51.0687 36.7692 50.9503C36.8433 50.8319 36.8929 50.6998 36.9152 50.5619C36.9374 50.424 36.9317 50.283 36.8985 50.1473C36.8653 50.0116 36.8053 49.884 36.7219 49.7719C36.6386 49.6598 36.5336 49.5656 36.4132 49.4947C36.2928 49.4239 36.1594 49.3779 36.0209 49.3595C35.8825 49.3411 35.7417 49.3506 35.607 49.3875H35.6101ZM10.8723 18.2627C10.9565 18.2625 11.0404 18.2523 11.1221 18.2324L29.381 13.7677C29.5175 13.7383 29.6468 13.6818 29.7611 13.6015C29.8755 13.5213 29.9726 13.4189 30.0467 13.3005C30.1208 13.1821 30.1704 13.05 30.1926 12.9121C30.2148 12.7742 30.2092 12.6332 30.176 12.4976C30.1428 12.3619 30.0827 12.2342 29.9994 12.1221C29.916 12.01 29.811 11.9158 29.6906 11.8449C29.5703 11.7741 29.4369 11.7281 29.2984 11.7097C29.1599 11.6913 29.0192 11.7008 28.8845 11.7377L10.6256 16.2013C10.3769 16.2614 10.1588 16.4107 10.0128 16.6209C9.86677 16.831 9.80291 17.0875 9.83332 17.3416C9.86373 17.5957 9.98629 17.8298 10.1778 17.9996C10.3693 18.1693 10.6164 18.2629 10.8723 18.2627ZM32.3905 13.0047C32.4747 13.0049 32.5586 12.9947 32.6403 12.9743L33.6229 12.7339C33.7595 12.7045 33.8888 12.6479 34.0031 12.5677C34.1174 12.4874 34.2145 12.3851 34.2886 12.2667C34.3627 12.1483 34.4124 12.0162 34.4346 11.8783C34.4568 11.7404 34.4511 11.5994 34.4179 11.4637C34.3848 11.328 34.3247 11.2004 34.2413 11.0883C34.158 10.9762 34.053 10.8819 33.9326 10.8111C33.8122 10.7403 33.6788 10.6943 33.5404 10.6759C33.4019 10.6575 33.2611 10.667 33.1264 10.7039L32.1438 10.9443C31.896 11.0053 31.6791 11.1548 31.534 11.3647C31.3888 11.5745 31.3254 11.8302 31.3558 12.0836C31.3861 12.337 31.5081 12.5705 31.6987 12.7401C31.8893 12.9098 32.1353 13.0039 32.3905 13.0047ZM58.8866 40.3412L23.6243 48.9631C22.8166 49.1608 21.9634 49.0296 21.2524 48.5983C20.5414 48.167 20.0308 47.471 19.8329 46.6634L18.4269 40.914C18.3611 40.6447 18.4049 40.3602 18.5488 40.1232C18.6927 39.8862 18.9249 39.7161 19.1942 39.6502C19.4635 39.5844 19.748 39.6282 19.985 39.7721C20.222 39.916 20.3922 40.1481 20.458 40.4175L21.864 46.1668C21.8966 46.3002 21.9551 46.4258 22.0363 46.5366C22.1174 46.6473 22.2196 46.741 22.337 46.8122C22.4543 46.8835 22.5846 46.9309 22.7203 46.9518C22.856 46.9727 22.9944 46.9667 23.1278 46.9341L58.39 38.3132C58.5234 38.2806 58.6491 38.2221 58.7598 38.1409C58.8705 38.0598 58.9642 37.9576 59.0355 37.8403C59.1067 37.7229 59.1541 37.5926 59.175 37.457C59.196 37.3213 59.1899 37.1828 59.1573 37.0494L54.585 18.3474L40.9298 31.943C40.2555 32.616 39.4097 33.0915 38.4842 33.3178C37.5588 33.5441 36.589 33.5126 35.6802 33.2266L17.2928 27.4616L19.3406 35.84L23.5449 34.8124C23.6796 34.7755 23.8204 34.766 23.9588 34.7844C24.0973 34.8028 24.2307 34.8488 24.3511 34.9196C24.4715 34.9905 24.5765 35.0847 24.6598 35.1968C24.7432 35.3089 24.8032 35.4366 24.8364 35.5723C24.8696 35.7079 24.8753 35.8489 24.8531 35.9868C24.8308 36.1247 24.7812 36.2568 24.7071 36.3752C24.633 36.4936 24.5359 36.596 24.4216 36.6762C24.3072 36.7565 24.178 36.813 24.0414 36.8424L18.821 38.124L3.95743 41.7566C3.87607 41.7769 3.79251 41.7871 3.70864 41.7869C3.45347 41.7861 3.20741 41.692 3.01681 41.5223C2.82621 41.3527 2.70426 41.1192 2.67392 40.8658C2.64358 40.6125 2.70697 40.3568 2.85212 40.1469C2.99727 39.937 3.21417 39.7875 3.46194 39.7265L17.3074 36.3407L14.2017 23.6378C14.0043 22.8302 14.1357 21.9773 14.5669 21.2665C14.9982 20.5558 15.694 20.0453 16.5014 19.8474L51.7637 11.2255C52.5714 11.0278 53.4246 11.159 54.1356 11.5903C54.8466 12.0216 55.3572 12.7176 55.5551 13.5252L61.1884 36.556C61.3841 37.3631 61.2517 38.215 60.8202 38.9246C60.3887 39.6342 59.6933 40.1437 58.8866 40.3412V40.3412ZM54.0059 15.9755L53.5282 14.0228C53.4956 13.8894 53.4371 13.7638 53.3559 13.6531C53.2748 13.5423 53.1726 13.4486 53.0552 13.3774C52.9379 13.3061 52.8076 13.2587 52.6719 13.2378C52.5362 13.2169 52.3977 13.2229 52.2644 13.2555L17.0021 21.8774C16.8688 21.91 16.7431 21.9686 16.6324 22.0497C16.5216 22.1309 16.428 22.2331 16.3567 22.3504C16.2855 22.4678 16.238 22.598 16.2171 22.7337C16.1962 22.8694 16.2023 23.0079 16.2349 23.1413L16.7126 25.0929L36.3053 31.2311C36.8507 31.4031 37.4328 31.4222 37.9883 31.2864C38.5438 31.1505 39.0514 30.865 39.4559 30.4607L54.0059 15.9755Z" fill="#FDC368"/>
</svg>
