<svg id="Layer_1" data-name="Layer 1" xmlns="http://www.w3.org/2000/svg" viewBox="0 0 1076.31 1041.86"><defs><style>.cls-1,.cls-3{fill:#d5e5ff;}.cls-1{opacity:0.64;}.cls-2{fill:#f9f3f1;}.cls-3{opacity:0.8;}.cls-21,.cls-4{fill:#fff;}.cls-4{opacity:0.15;}.cls-11,.cls-16,.cls-20,.cls-22,.cls-27,.cls-29,.cls-30,.cls-32,.cls-5,.cls-6,.cls-7,.cls-9{fill:none;}.cls-12,.cls-16,.cls-5,.cls-6,.cls-7,.cls-9{stroke:#b8d1ff;}.cls-11,.cls-12,.cls-16,.cls-20,.cls-22,.cls-27,.cls-29,.cls-30,.cls-32,.cls-5,.cls-6,.cls-7,.cls-9{stroke-miterlimit:10;}.cls-5{stroke-width:6px;}.cls-32,.cls-6{stroke-width:4px;}.cls-12,.cls-7{stroke-width:7px;}.cls-8{fill:#cab497;}.cls-9{stroke-width:2px;}.cls-10{fill:#fbb03b;}.cls-11{stroke:#fbb03b;stroke-width:3px;}.cls-12,.cls-15{fill:#b8d1ff;}.cls-13{fill:#ff3200;}.cls-14{fill:#7ab1d1;}.cls-16,.cls-20,.cls-22,.cls-27,.cls-29,.cls-30{stroke-linecap:round;}.cls-16,.cls-27{stroke-width:0.25px;}.cls-17{fill:#ffb4a5;}.cls-18{fill:#faf3ee;}.cls-19{fill:#1a1a1a;}.cls-20{stroke:#ff8674;}.cls-20,.cls-29{stroke-width:0.5px;}.cls-22{stroke:#ff3200;}.cls-23{fill:#ffa490;}.cls-24{fill:#251c0b;}.cls-25{fill:#00a99d;}.cls-26{fill:#6bc79d;}.cls-27{stroke:#fff;}.cls-28{fill:#c6813d;}.cls-29{stroke:#754c24;}.cls-30{stroke:#251c0b;}.cls-31{fill:#b8702f;}.cls-32{stroke:#5d9f73;}.cls-33{fill:#f7931e;}.cls-34{fill:#ff7d00;}.cls-35{fill:#5d9f73;}.cls-36{fill:#fbcd3b;}.cls-37{fill:#da7582;}.cls-38{fill:#eeb6b5;}.cls-39{fill:#e19ab3;}</style></defs><title>home</title><path class="cls-1" d="M1920,0h0c2.08,88.66-260.42,185.26-689.84,240.25C649.29,314.64,812.72,920,1137.51,1011.7,1575.24,1135.31,1920,839,1920,839" transform="translate(-843.7)"/><rect class="cls-2" x="290.96" y="483.23" width="202.35" height="303.06" rx="10"/><rect class="cls-3" x="290.96" y="483.15" width="201.97" height="109.41"/><path class="cls-4" d="M1313,482l-130.5,35.54v20.36l-48.23,14.8v23.87l50-15.36.17-22.72,102.35-29.7V523.4l50.58-16.59S1344.08,476,1313,482Z" transform="translate(-843.7)"/><polygon class="cls-4" points="492.94 573.7 492.94 592.56 435.28 592.56 492.94 573.7"/><path class="cls-4" d="M1335.69,542.66l-48.87,15.7-115,34.66h49.91l65.09-19.63v-8.61l48.87-15.35S1334.92,552.57,1335.69,542.66Z" transform="translate(-843.7)"/><rect class="cls-5" x="290.59" y="483.15" width="202.35" height="303.06" rx="5"/><rect class="cls-2" x="767.18" y="268" width="204.28" height="304.96" rx="10.03"/><line class="cls-6" x1="338.82" y1="483.41" x2="338.82" y2="592.56"/><line class="cls-6" x1="443.13" y1="483.87" x2="443.13" y2="593.02"/><line class="cls-6" x1="290.96" y1="563.09" x2="493.44" y2="563.09"/><line class="cls-7" x1="290.96" y1="593.02" x2="493.44" y2="593.02"/><rect class="cls-3" x="769.75" y="270.63" width="201.97" height="128.52"/><path class="cls-4" d="M1791.81,269.23,1661.31,311v23.91l-48.23,17.39v28l50-18.05.17-26.69,102.35-34.88v17.21l50.58-19.49S1822.87,262.26,1791.81,269.23Z" transform="translate(-843.7)"/><polygon class="cls-4" points="971.72 376.99 971.72 399.15 914.07 399.15 971.72 376.99"/><path class="cls-4" d="M1814.48,340.53,1765.61,359l-115,40.71h49.91l65.1-23.06V366.51l48.87-18S1813.71,352.17,1814.48,340.53Z" transform="translate(-843.7)"/><rect class="cls-5" x="767.64" y="268.34" width="204.28" height="304.96" rx="5"/><path class="cls-8" d="M1133.67,789.31l-20.1,28.91a0,0,0,0,0,0,.07h239.22a0,0,0,0,0,0-.06l-16.35-28.92Z" transform="translate(-843.7)"/><rect class="cls-9" x="557.09" y="351.6" width="92" height="29" rx="4"/><rect class="cls-10" x="481.09" y="313.6" width="92" height="29" rx="4"/><rect class="cls-9" x="752.19" y="808.77" width="92" height="29" rx="4"/><rect class="cls-10" x="690.19" y="846.77" width="92" height="29" rx="4"/><rect class="cls-10" x="132.64" y="588.77" width="92" height="29" rx="4"/><path class="cls-11" d="M1370.28,695.74c77.07,1.53,124.61-57.82,107.47-96.41-16.65-37.49-60.31-28.54-71.68-2.68-28.88,65.73,59.57,87,86.9,71.57,66.68-37.71-16.63-113.13,42.62-166.74,13.78-12.47,29.61-22,42.84-24.91" transform="translate(-843.7)"/><line class="cls-6" x1="814.97" y1="270.21" x2="814.97" y2="399.69"/><line class="cls-6" x1="920.27" y1="270.76" x2="920.27" y2="400.23"/><line class="cls-6" x1="766.65" y1="364.72" x2="971.07" y2="364.72"/><line class="cls-7" x1="766.65" y1="400.23" x2="971.07" y2="400.23"/><path class="cls-8" d="M1611.24,573.78,1591,602.86a.05.05,0,0,0,0,.08h240.72a0,0,0,0,0,0-.06l-16.45-29.1Z" transform="translate(-843.7)"/><rect class="cls-12" x="747.4" y="604.21" width="240.88" height="55.78"/><path class="cls-7" d="M1611.39,571.24l-20.23,29.08a0,0,0,0,0,0,.08h240.71s.06,0,0-.06l-16.45-29.1Z" transform="translate(-843.7)"/><path class="cls-13" d="M1305.72,637s21.51-1.21,25.89,17.64c0,0,3.3,12.75,24.23,18.65,10.9,3.08,13.08,10.94,12.68,17.77a32.63,32.63,0,0,0,6,21.16,35.71,35.71,0,0,1,3.37,6.58c13.13,29.31-17.82,48.72-17.82,48.72l-95.23-27.24s-23.39-17-2.67-38.41c0,0,1.43-2.68-1.2-8.8a12.51,12.51,0,0,1,1.54-12.66,45.94,45.94,0,0,1,8.48-8.06,35.07,35.07,0,0,0,11.11-14.25C1285.73,649.55,1293,637.68,1305.72,637Z" transform="translate(-843.7)"/><path class="cls-14" d="M1345,682.77l24.56,4.52a2.23,2.23,0,0,1,1.77,1.7,18.4,18.4,0,0,1-2,12.6,2.2,2.2,0,0,1-2.3,1.13l-24.52-3.78S1346.14,692.47,1345,682.77Z" transform="translate(-843.7)"/><ellipse class="cls-15" cx="1343.78" cy="690.86" rx="8.18" ry="2.75" transform="translate(-387.4 1913.73) rotate(-81.24)"/><path class="cls-16" d="M1366.36,686.79a20.32,20.32,0,0,1-2.8,15.36" transform="translate(-843.7)"/><polygon class="cls-17" points="520.29 754.66 503.6 765.62 505.79 705.68 515.43 704.35 520.29 754.66"/><path class="cls-17" d="M1359.18,704.89s3.51-11.5,3.32-15.28c-.26-5.08-5-6.44-6.59-5.59-1.93,1.05,2.21,7.46-3.67,12.93-1.46,1.35-3.82,2.83-5.79,2.56-.45-.07-.66-.24,0,.6a33.8,33.8,0,0,1,3,6Z" transform="translate(-843.7)"/><path class="cls-17" d="M1315.05,704.12l-19.19-5.33c-11.42-3.74-15.82-15.52-12.13-26.75l3.81-14.26a18,18,0,0,1,23.08-12.26l3.37,1.1a17.89,17.89,0,0,1,11.59,22.49Z" transform="translate(-843.7)"/><path class="cls-14" d="M1347.61,757.07l-.77,1-5.57-18.2-3.6,1.1h0l3.6-1.09c-4.3-21.64-15.53-24.22-15.53-24.22v.11a13.14,13.14,0,0,0-3.42-.74l-28.85-2.36c-49.55-8.38-58.58,75.67-58.58,75.67l98.91.28,1.61-19.79,1.11,2s25.75,39.07,27.48-16.11C1364,754.66,1355.62,758.83,1347.61,757.07Z" transform="translate(-843.7)"/><path class="cls-18" d="M1299.84,713.15" transform="translate(-843.7)"/><ellipse class="cls-19" cx="1309.25" cy="669.63" rx="1.6" ry="1.06" transform="translate(-397.33 1860.43) rotate(-81.16)"/><path class="cls-20" d="M1299.93,668.94s-7.33,8.38-1.87,8.67" transform="translate(-843.7)"/><path class="cls-21" d="M1295.56,683.79c1-.27,6.31-1.77,9.35-4.24a.15.15,0,0,1,.24.08,6.4,6.4,0,0,1-.48,4.14,5.19,5.19,0,0,1-7.23,2.48,4.71,4.71,0,0,1-2-2.25A.15.15,0,0,1,1295.56,683.79Z" transform="translate(-843.7)"/><ellipse class="cls-19" cx="1291.7" cy="666.1" rx="1.6" ry="1.06" transform="translate(-628.19 1642.82) rotate(-69.51)"/><path class="cls-22" d="M1308.82,661.55s6.14,1.09,7.1,5.46" transform="translate(-843.7)"/><path class="cls-22" d="M1294.19,659.58a6.88,6.88,0,0,0-7.66,2" transform="translate(-843.7)"/><path class="cls-13" d="M1309.25,640.93s6.42,27.3,17.57,30.72S1324.89,641.23,1309.25,640.93Z" transform="translate(-843.7)"/><path class="cls-13" d="M1312.37,643.78s-12.63,12.72-25.31,11.51C1287.06,655.29,1290.05,638.75,1312.37,643.78Z" transform="translate(-843.7)"/><ellipse class="cls-17" cx="1325.93" cy="676.05" rx="5.33" ry="5.22" transform="translate(-299.34 1942.66) rotate(-85.34)"/><path class="cls-20" d="M1325,673.27s4.42-.82,3.5,3.87" transform="translate(-843.7)"/><path class="cls-17" d="M1295.45,712.79l6.45-22.23h15.49l-.24,24.1a10.9,10.9,0,0,1-11.85,8C1295.53,721.89,1295.45,712.79,1295.45,712.79Z" transform="translate(-843.7)"/><path class="cls-23" d="M1299.24,699.73s6,.6,10.3-1.88c0,0-4.62,6-11.48,5.94Z" transform="translate(-843.7)"/><path class="cls-7" d="M1133.82,785.79l-20.11,28.91a0,0,0,0,0,0,.07H1353s.06,0,0-.06l-16.34-28.92Z" transform="translate(-843.7)"/><rect class="cls-12" x="269.96" y="818.55" width="239.39" height="55.44"/><path class="cls-24" d="M1638.35,418.4s-21.22-1.2-25.55,17.41c0,0-4.33,14.79-15.48,19-10.46,3.94-2.1,22,1.25,27.9,3.45,6,21.58,9.64,17.2,15.69-1.52,2.11,86,5.17,65.55-16,0,0-1.41-2.64,1.19-8.68a12.4,12.4,0,0,0-1.53-12.51,45.39,45.39,0,0,0-8.37-7.94,34.61,34.61,0,0,1-11-14.07C1658.09,430.78,1650.93,419.06,1638.35,418.4Z" transform="translate(-843.7)"/><path class="cls-25" d="M1599.56,463.57,1575.31,468a2.19,2.19,0,0,0-1.75,1.68,18.28,18.28,0,0,0,2,12.44,2.18,2.18,0,0,0,2.27,1.11l24.2-3.73S1598.46,473.15,1599.56,463.57Z" transform="translate(-843.7)"/><ellipse class="cls-26" cx="1600.79" cy="471.55" rx="2.71" ry="8.07" transform="translate(-896.85 249.33) rotate(-8.76)"/><path class="cls-27" d="M1578.5,467.54a20.07,20.07,0,0,0,2.76,15.16" transform="translate(-843.7)"/><polygon class="cls-28" points="736.91 534.54 753.62 545.36 751.46 486.18 741.94 484.87 736.91 534.54"/><path class="cls-28" d="M1585.59,485.4s-3.47-11.35-3.28-15.08c.25-5,5-6.36,6.51-5.52,1.9,1-2.18,7.36,3.62,12.76,1.44,1.34,3.77,2.8,5.71,2.53.45-.06.65-.24,0,.59a33.61,33.61,0,0,0-3,5.89Z" transform="translate(-843.7)"/><path class="cls-28" d="M1629.15,484.65l18.95-5.27c11.26-3.69,15.61-15.31,12-26.41l-3.76-14.07a17.74,17.74,0,0,0-22.79-12.1l-3.32,1.09a17.66,17.66,0,0,0-11.45,22.2Z" transform="translate(-843.7)"/><path class="cls-13" d="M1708.06,567.73s-8.91-83-57.82-74.69l-28.48,2.32c-7.37.6-11.29,6.78-13.84,13.16a68.68,68.68,0,0,0-4.65,11.38l3.31,1v0l-3.32-1-6.52,17c-7.89,1.72-16.14-2.38-16.14-2.38-3.94,56.51,27.13,15.89,27.13,15.89l1.09-2,1.6,19.54Z" transform="translate(-843.7)"/><path class="cls-18" d="M1644.16,493.55" transform="translate(-843.7)"/><ellipse class="cls-19" cx="1634.87" cy="450.6" rx="1.05" ry="1.58" transform="translate(-893.53 256.6) rotate(-8.84)"/><path class="cls-29" d="M1644.08,449.92s7.23,8.27,1.84,8.55" transform="translate(-843.7)"/><path class="cls-21" d="M1648.39,464.57c-1-.26-6.23-1.74-9.23-4.18a.15.15,0,0,0-.24.08,6.29,6.29,0,0,0,.47,4.09,5.14,5.14,0,0,0,7.15,2.44,4.63,4.63,0,0,0,2-2.22A.16.16,0,0,0,1648.39,464.57Z" transform="translate(-843.7)"/><ellipse class="cls-19" cx="1652.2" cy="447.11" rx="1.05" ry="1.58" transform="translate(-895.67 606.77) rotate(-20.49)"/><path class="cls-30" d="M1635.3,442.62s-6.06,1.08-7,5.39" transform="translate(-843.7)"/><path class="cls-30" d="M1649.74,440.67a6.83,6.83,0,0,1,7.57,1.95" transform="translate(-843.7)"/><path class="cls-24" d="M1634.87,422.27s-6.34,27-17.34,30.32S1619.44,422.57,1634.87,422.27Z" transform="translate(-843.7)"/><path class="cls-24" d="M1631.8,425.08s12.46,12.56,25,11.36C1656.78,436.44,1653.83,420.12,1631.8,425.08Z" transform="translate(-843.7)"/><ellipse class="cls-28" cx="1618.41" cy="456.94" rx="5.15" ry="5.26" transform="matrix(1, -0.08, 0.08, 1, -875.48, 133.03)"/><path class="cls-29" d="M1619.36,454.19s-4.37-.81-3.46,3.82" transform="translate(-843.7)"/><path class="cls-28" d="M1648.5,493.2l-6.37-21.94h-15.29l.24,23.79a10.75,10.75,0,0,0,11.69,7.88C1648.42,502.19,1648.5,493.2,1648.5,493.2Z" transform="translate(-843.7)"/><path class="cls-31" d="M1644.76,480.31s-5.9.59-10.17-1.86c0,0,4.56,5.93,11.33,5.86Z" transform="translate(-843.7)"/><path class="cls-32" d="M1196.24,730.29s-21.91,17.23-21.91,80.81" transform="translate(-843.7)"/><path class="cls-32" d="M1196.24,730.29" transform="translate(-843.7)"/><ellipse class="cls-10" cx="1204.25" cy="721.26" rx="6.04" ry="3.67" transform="translate(-983.56 1125.96) rotate(-47.68)"/><path class="cls-33" d="M1198.73,715.44s-16.09,13.28-6.68,18.22c6.28,3.3,10.85-9.57,10.85-9.57S1206.8,708.72,1198.73,715.44Z" transform="translate(-843.7)"/><path class="cls-34" d="M1210.65,726.25s-11.72,17.26-17.52,8.35c-3.87-6,8.52-11.7,8.52-11.7S1216.59,717.59,1210.65,726.25Z" transform="translate(-843.7)"/><path class="cls-35" d="M1175.11,791.16s16.27-4.87,28.73-28.1C1203.84,763.06,1179.65,775.73,1175.11,791.16Z" transform="translate(-843.7)"/><path class="cls-32" d="M1134.29,758.48s29.39,13.15,29.39,52.62" transform="translate(-843.7)"/><path class="cls-36" d="M1123.13,746.15c2.77,1.85,4.11,4.72,3,6.41s-4.29,1.55-7.06-.3-3.28-5.94-3-6.4C1116.54,745.12,1120.35,744.3,1123.13,746.15Z" transform="translate(-843.7)"/><path class="cls-33" d="M1116.17,755.54s15.53,13.92,19,3.88c2.32-6.71-11.08-9.3-11.08-9.3S1108.32,748.57,1116.17,755.54Z" transform="translate(-843.7)"/><path class="cls-34" d="M1125.06,742.13s18.83,9,10.89,16.07c-5.31,4.72-12.85-6.66-12.85-6.66S1115.62,737.56,1125.06,742.13Z" transform="translate(-843.7)"/><path class="cls-35" d="M1152.37,773.2s5.1-6.79,3.21-19.83C1155.58,753.37,1149.61,765.65,1152.37,773.2Z" transform="translate(-843.7)"/><path class="cls-35" d="M1162.55,795.26s-11-.84-22.21-13.89C1140.34,781.37,1157.5,786.07,1162.55,795.26Z" transform="translate(-843.7)"/><path class="cls-32" d="M1237.75,758.43s-29.39,13.16-29.39,52.62" transform="translate(-843.7)"/><path class="cls-36" d="M1248.92,746.1c-2.78,1.85-4.11,4.72-3,6.41s4.29,1.56,7.06-.29,3.29-5.94,3-6.41C1255.51,745.08,1251.69,744.25,1248.92,746.1Z" transform="translate(-843.7)"/><path class="cls-33" d="M1255.88,755.49s-15.54,13.92-19,3.88c-2.33-6.71,11.08-9.3,11.08-9.3S1263.73,748.52,1255.88,755.49Z" transform="translate(-843.7)"/><path class="cls-34" d="M1247,742.09s-18.82,9-10.88,16.06c5.3,4.72,12.84-6.66,12.84-6.66S1256.43,737.51,1247,742.09Z" transform="translate(-843.7)"/><path class="cls-35" d="M1219.68,773.16s-5.1-6.79-3.22-19.84C1216.46,753.32,1222.43,765.6,1219.68,773.16Z" transform="translate(-843.7)"/><path class="cls-35" d="M1209.5,795.21s11-.83,22.21-13.89C1231.71,781.32,1214.54,786,1209.5,795.21Z" transform="translate(-843.7)"/><path class="cls-32" d="M1776.61,516.42s-21.91,17.23-21.91,80.81" transform="translate(-843.7)"/><path class="cls-32" d="M1776.61,516.42" transform="translate(-843.7)"/><ellipse class="cls-37" cx="1784.62" cy="507.38" rx="6.04" ry="3.67" transform="translate(-635.85 1485.19) rotate(-47.68)"/><path class="cls-38" d="M1779.1,501.57s-16.09,13.27-6.68,18.22c6.28,3.3,10.85-9.57,10.85-9.57S1787.17,494.85,1779.1,501.57Z" transform="translate(-843.7)"/><path class="cls-39" d="M1791,512.37s-11.72,17.26-17.51,8.36c-3.88-6,8.51-11.7,8.51-11.7S1797,503.72,1791,512.37Z" transform="translate(-843.7)"/><path class="cls-35" d="M1755.48,577.29s16.27-4.87,28.73-28.11C1784.21,549.18,1760,561.86,1755.48,577.29Z" transform="translate(-843.7)"/><path class="cls-32" d="M1710.68,544.56s29.39,13.15,29.39,52.62" transform="translate(-843.7)"/><path class="cls-37" d="M1699.52,532.23c2.77,1.85,4.11,4.72,3,6.41s-4.28,1.55-7.06-.3-3.28-5.94-3-6.4C1692.93,531.2,1696.75,530.38,1699.52,532.23Z" transform="translate(-843.7)"/><path class="cls-38" d="M1692.56,541.61s15.54,13.93,19,3.89c2.33-6.71-11.08-9.3-11.08-9.3S1684.71,534.65,1692.56,541.61Z" transform="translate(-843.7)"/><path class="cls-39" d="M1701.46,528.21s18.82,9,10.88,16.07c-5.3,4.72-12.84-6.66-12.84-6.66S1692,523.64,1701.46,528.21Z" transform="translate(-843.7)"/><path class="cls-35" d="M1728.76,559.28s5.1-6.79,3.22-19.83C1732,539.45,1726,551.72,1728.76,559.28Z" transform="translate(-843.7)"/><path class="cls-35" d="M1738.94,581.34s-11-.84-22.21-13.89C1716.73,567.45,1733.9,572.15,1738.94,581.34Z" transform="translate(-843.7)"/><path class="cls-32" d="M1829.19,544.56s-29.39,13.15-29.39,52.62" transform="translate(-843.7)"/><path class="cls-37" d="M1840.35,532.23c-2.77,1.85-4.11,4.72-3,6.41s4.29,1.55,7.06-.3,3.9-5.11,3-6.4S1843.12,530.38,1840.35,532.23Z" transform="translate(-843.7)"/><path class="cls-38" d="M1847.31,541.61s-15.53,13.93-19,3.89c-2.32-6.71,11.08-9.3,11.08-9.3S1855.16,534.65,1847.31,541.61Z" transform="translate(-843.7)"/><path class="cls-39" d="M1838.41,528.21s-18.82,9-10.88,16.07c5.3,4.72,12.84-6.66,12.84-6.66S1847.86,523.64,1838.41,528.21Z" transform="translate(-843.7)"/><path class="cls-35" d="M1811.11,559.28s-5.1-6.79-3.22-19.83C1807.89,539.45,1813.86,551.72,1811.11,559.28Z" transform="translate(-843.7)"/><path class="cls-35" d="M1800.93,581.34s11-.84,22.21-13.89C1823.14,567.45,1806,572.15,1800.93,581.34Z" transform="translate(-843.7)"/></svg>