<svg width="64" height="64" viewBox="0 0 64 64" fill="none" xmlns="http://www.w3.org/2000/svg">
<path d="M52.9655 44.9022L44.7726 38.6043L51.1612 33.6228C51.3311 33.4925 51.4607 33.3168 51.535 33.116C51.6093 32.9153 51.6253 32.6975 51.5811 32.488C51.5464 32.2855 51.4573 32.0962 51.3234 31.9403C51.1895 31.7844 51.0158 31.6678 50.8208 31.6029L37.2719 27.1774L23.723 22.7519C23.524 22.6873 23.3109 22.6789 23.1075 22.7278C22.904 22.7766 22.718 22.8808 22.5701 23.0288C22.4221 23.1767 22.3179 23.3627 22.2691 23.5662C22.2202 23.7697 22.2286 23.9827 22.2932 24.1817L26.7187 37.7306L31.1442 51.2795C31.2086 51.475 31.325 51.6493 31.4809 51.7838C31.6368 51.9182 31.8264 52.0078 32.0292 52.0427C32.2321 52.0777 32.4407 52.0568 32.6326 51.9824C32.8245 51.9079 32.9925 51.7826 33.1187 51.6199L38.1003 45.2313L44.3981 53.4242C44.4954 53.5514 44.6184 53.6566 44.7593 53.7329C44.9001 53.8092 45.0554 53.8548 45.2151 53.8667H45.2946C45.4439 53.8676 45.5919 53.839 45.7302 53.7825C45.8685 53.726 45.9942 53.6428 46.1002 53.5376L53.0789 46.5589C53.1941 46.4437 53.2831 46.305 53.3399 46.1522C53.3967 45.9995 53.4199 45.8363 53.408 45.6738C53.39 45.522 53.3416 45.3754 53.2655 45.2428C53.1895 45.1102 53.0874 44.9944 52.9655 44.9022ZM45.3853 51.0639L38.9854 42.7348C38.8808 42.599 38.7469 42.4886 38.5936 42.412C38.4403 42.3353 38.2716 42.2944 38.1003 42.2923C37.927 42.2927 37.7561 42.3328 37.6007 42.4095C37.4453 42.4862 37.3095 42.5975 37.2038 42.7348L32.6648 48.5901L25.1414 25.6455L48.086 33.1462L42.2307 37.6852C42.0919 37.7921 41.9797 37.9297 41.9029 38.0872C41.8261 38.2446 41.7869 38.4178 41.7882 38.593C41.7903 38.7644 41.8312 38.933 41.9079 39.0863C41.9845 39.2396 42.0949 39.3736 42.2307 39.4781L50.5598 45.8894L45.3853 51.0639ZM23.5868 37.6285C23.5508 37.9032 23.4155 38.1552 23.2065 38.3371C22.9975 38.5189 22.7291 38.618 22.4521 38.6157H22.3045C19.7117 38.268 17.2676 37.2026 15.2479 35.5398C13.2283 33.8769 11.7136 31.6828 10.8747 29.2048C10.0357 26.7269 9.90593 24.0639 10.4999 21.5161C11.094 18.9684 12.3881 16.6373 14.2365 14.786C15.5371 13.4772 17.0843 12.4392 18.7885 11.7322C20.4928 11.0251 22.3204 10.663 24.1655 10.6668C27.5676 10.656 30.8575 11.8831 33.4215 14.1193C35.9855 16.3555 37.6485 19.448 38.1003 22.82C38.1394 23.1209 38.0573 23.4251 37.8722 23.6656C37.6871 23.9061 37.414 24.0631 37.113 24.1023C36.8121 24.1414 36.5079 24.0593 36.2674 23.8742C36.027 23.6891 35.8699 23.416 35.8308 23.115C35.4609 20.2853 34.0725 17.6873 31.9253 15.8075C29.7781 13.9276 27.0193 12.8948 24.1655 12.9023C21.1753 12.9005 18.2963 14.0361 16.1125 16.0788C13.9286 18.1215 12.6035 20.9183 12.4057 23.902C12.208 26.8857 13.1524 29.8329 15.0475 32.146C16.9427 34.459 19.6466 35.9646 22.6109 36.3575C22.9087 36.3971 23.1786 36.5531 23.3615 36.7913C23.5445 37.0296 23.6255 37.3306 23.5868 37.6285ZM18.7982 23.1945C18.5358 24.146 18.5298 25.1501 18.7809 26.1048C19.032 27.0594 19.5313 27.9306 20.2279 28.6299C20.3645 28.774 20.5125 28.9068 20.6705 29.0271C20.9098 29.2057 21.069 29.4715 21.1136 29.7668C21.1582 30.062 21.0846 30.363 20.9088 30.6044C20.7318 30.8454 20.4669 31.0069 20.1715 31.0536C19.8761 31.1004 19.5743 31.0286 19.3315 30.854C19.0806 30.6649 18.8419 30.4602 18.6166 30.2412C17.6431 29.2528 16.9454 28.0267 16.593 26.6848C16.2406 25.343 16.2458 23.9322 16.6081 22.593C16.9674 21.2824 17.6617 20.0878 18.6227 19.1268C19.5837 18.1658 20.7783 17.4715 22.0889 17.1122C23.4286 16.7443 24.8418 16.7374 26.1851 17.0922C27.5283 17.4469 28.7538 18.1507 29.7371 19.132C29.9588 19.3508 30.1636 19.586 30.3499 19.8356C30.5058 20.0786 30.5631 20.372 30.5103 20.6558C30.4574 20.9397 30.2984 21.1927 30.0655 21.3634C29.8326 21.534 29.5434 21.6095 29.2568 21.5745C28.9703 21.5394 28.7078 21.3964 28.523 21.1746C28.4027 21.0166 28.2699 20.8686 28.1258 20.732C27.4265 20.0354 26.5553 19.5361 25.6007 19.285C24.646 19.0339 23.6419 19.0399 22.6904 19.3023C21.7567 19.5506 20.9064 20.0442 20.2279 20.732C19.544 21.4135 19.051 22.2626 18.7982 23.1945Z" fill="#FDC368"/>
</svg>
