<svg width="64" height="64" viewBox="0 0 64 64" fill="none" xmlns="http://www.w3.org/2000/svg">
<path d="M31.7331 7.99878C18.3865 7.99878 7.52246 18.0694 7.52246 30.4548C7.53056 33.4021 8.14549 36.3161 9.32892 39.0153C10.5124 41.7146 12.2389 44.1412 14.4011 46.1441L13.0665 54.3854C13.0447 54.5199 13.0525 54.6575 13.0896 54.7886C13.1266 54.9197 13.1919 55.0411 13.2808 55.1443C13.3698 55.2474 13.4802 55.3299 13.6044 55.3858C13.7286 55.4418 13.8636 55.4699 13.9998 55.4681C14.1601 55.4676 14.3176 55.4258 14.4571 55.3468L22.0638 51.0534C25.1499 52.3029 28.4504 52.937 31.7798 52.9201C45.1265 52.9201 55.9905 42.8401 55.9905 30.4454C55.9905 18.0508 45.0798 7.99878 31.7331 7.99878ZM31.7331 51.0628C28.4996 51.0891 25.2948 50.4538 22.3158 49.1961C22.188 49.1335 22.0475 49.1009 21.9051 49.1009C21.7628 49.1009 21.6223 49.1335 21.4945 49.1961L15.1945 52.7614L16.3331 45.9574C16.359 45.8022 16.3452 45.6429 16.293 45.4944C16.2408 45.3459 16.1518 45.213 16.0345 45.1081C13.9563 43.2722 12.2899 41.0176 11.1446 38.4922C9.99932 35.9668 9.40107 33.2277 9.38913 30.4548C9.38913 19.1054 19.4131 9.86545 31.7331 9.86545C44.0531 9.86545 54.0771 19.1054 54.0771 30.4548C54.0771 41.8041 44.0531 51.0628 31.7331 51.0628Z" fill="#FDC368" stroke="#FDC368"/>
<path d="M35.3833 29.3324L30.2749 26.5818C30.054 26.4628 29.806 26.4032 29.5552 26.4088C29.3043 26.4144 29.0592 26.4849 28.8438 26.6136C28.6283 26.7422 28.45 26.9246 28.3261 27.1428C28.2023 27.361 28.1371 27.6076 28.1371 27.8585V33.3597C28.1363 33.6109 28.2009 33.858 28.3246 34.0767C28.4483 34.2954 28.6267 34.4782 28.8424 34.607C29.0581 34.7358 29.3036 34.8063 29.5547 34.8115C29.8059 34.8167 30.0541 34.7565 30.2749 34.6367L35.3833 31.8861C35.6138 31.7619 35.8064 31.5777 35.9406 31.3529C36.0748 31.1281 36.1457 30.8712 36.1457 30.6094C36.1457 30.3476 36.0748 30.0906 35.9406 29.8659C35.8064 29.6411 35.6138 29.4568 35.3833 29.3326V29.3324ZM34.9249 31.0345L29.8166 33.7851C29.7429 33.8248 29.6602 33.8447 29.5766 33.8428C29.4929 33.8409 29.4112 33.8174 29.3394 33.7745C29.2676 33.7316 29.2081 33.6707 29.1668 33.598C29.1256 33.5252 29.1039 33.4429 29.1039 33.3593V27.8585C29.1032 27.7747 29.1246 27.6922 29.166 27.6193C29.2073 27.5464 29.2672 27.4857 29.3395 27.4433C29.4151 27.3984 29.5013 27.3742 29.5892 27.3734C29.6687 27.3738 29.7469 27.3942 29.8164 27.4327L34.9249 30.1837C35.0017 30.2251 35.0659 30.2865 35.1107 30.3615C35.1554 30.4364 35.179 30.522 35.179 30.6093C35.179 30.6966 35.1554 30.7822 35.1107 30.8572C35.0659 30.9321 35.0017 30.9935 34.9249 31.0349V31.0345ZM31.542 18.6667C29.18 18.6667 26.8711 19.3672 24.9072 20.6794C22.9432 21.9916 21.4126 23.8568 20.5087 26.039C19.6048 28.2212 19.3683 30.6224 19.8291 32.939C20.2899 35.2556 21.4273 37.3835 23.0975 39.0537C24.7676 40.7238 26.8956 41.8612 29.2122 42.322C31.5287 42.7828 33.93 42.5463 36.1121 41.6425C38.2943 40.7386 40.1595 39.2079 41.4717 37.244C42.784 35.28 43.4844 32.9711 43.4844 30.6091C43.4808 27.4429 42.2214 24.4074 39.9826 22.1686C37.7437 19.9297 34.7082 18.6703 31.542 18.6667V18.6667ZM31.542 41.5847C29.3712 41.5847 27.2492 40.941 25.4443 39.735C23.6394 38.529 22.2326 36.8148 21.4019 34.8093C20.5712 32.8038 20.3538 30.597 20.7773 28.4679C21.2008 26.3389 22.2461 24.3832 23.7811 22.8482C25.3161 21.3133 27.2717 20.2679 29.4008 19.8445C31.5298 19.421 33.7366 19.6383 35.7422 20.469C37.7477 21.2997 39.4618 22.7065 40.6678 24.5114C41.8739 26.3164 42.5176 28.4384 42.5176 30.6091C42.5143 33.519 41.3569 36.3088 39.2993 38.3664C37.2417 40.4241 34.4519 41.5814 31.542 41.5847V41.5847Z" fill="#FDC368" stroke="#FDC368" stroke-width="2"/>
</svg>
