<svg width="64" height="64" viewBox="0 0 64 64" fill="none" xmlns="http://www.w3.org/2000/svg">
<path d="M32.004 24.4836C33.3565 24.4834 34.6786 24.0822 35.803 23.3306C36.9275 22.5791 37.8038 21.511 38.3213 20.2615C38.8388 19.0119 38.9741 17.6369 38.7102 16.3105C38.4463 14.984 37.795 13.7655 36.8387 12.8092C35.8823 11.8528 34.6639 11.2015 33.3374 10.9376C32.0109 10.6737 30.636 10.809 29.3864 11.3265C28.1368 11.844 27.0687 12.7204 26.3172 13.8448C25.5657 14.9693 25.1644 16.2914 25.1642 17.6438C25.1662 19.4573 25.8874 21.1959 27.1697 22.4781C28.452 23.7604 30.1906 24.4817 32.004 24.4836V24.4836ZM32.004 12.9055C32.9414 12.9057 33.8576 13.1839 34.6369 13.7048C35.4161 14.2258 36.0234 14.9661 36.382 15.8322C36.7405 16.6983 36.8341 17.6512 36.651 18.5705C36.468 19.4898 36.0164 20.3342 35.3534 20.9969C34.6905 21.6595 33.8459 22.1107 32.9265 22.2934C32.0072 22.476 31.0542 22.382 30.1883 22.0231C29.3224 21.6642 28.5823 21.0566 28.0618 20.2771C27.5412 19.4976 27.2634 18.5812 27.2636 17.6438C27.2653 16.3873 27.7653 15.1828 28.654 14.2945C29.5427 13.4061 30.7475 12.9066 32.004 12.9055V12.9055ZM14.1593 21.7912C15.3122 21.7912 16.4392 21.4493 17.3978 20.8087C18.3564 20.1682 19.1035 19.2578 19.5446 18.1926C19.9858 17.1275 20.1011 15.9554 19.8761 14.8247C19.6511 13.6939 19.0959 12.6553 18.2806 11.8402C17.4653 11.025 16.4266 10.47 15.2958 10.2452C14.165 10.0204 12.993 10.136 11.9279 10.5773C10.8628 11.0186 9.95256 11.7659 9.31219 12.7246C8.67183 13.6833 8.33014 14.8104 8.33035 15.9633C8.3323 17.5085 8.94707 18.9899 10.0398 20.0824C11.1326 21.175 12.614 21.7895 14.1593 21.7912V21.7912ZM14.1593 12.239C14.8969 12.239 15.618 12.4577 16.2313 12.8675C16.8446 13.2773 17.3227 13.8598 17.6049 14.5413C17.8872 15.2228 17.9611 15.9727 17.8172 16.6961C17.6733 17.4196 17.3181 18.0841 16.7965 18.6057C16.2749 19.1273 15.6103 19.4825 14.8869 19.6264C14.1634 19.7703 13.4135 19.6965 12.732 19.4142C12.0506 19.1319 11.4681 18.6539 11.0583 18.0406C10.6485 17.4272 10.4297 16.7062 10.4297 15.9685C10.4295 14.9788 10.8221 14.0295 11.5215 13.3292C12.2208 12.6289 13.1696 12.2348 14.1593 12.2337V12.239ZM49.8487 21.7912C51.0016 21.7912 52.1286 21.4493 53.0872 20.8087C54.0458 20.1682 54.7929 19.2578 55.2341 18.1926C55.6752 17.1275 55.7906 15.9554 55.5656 14.8247C55.3406 13.6939 54.7853 12.6553 53.97 11.8402C53.1548 11.025 52.116 10.47 50.9853 10.2452C49.8545 10.0204 48.6825 10.136 47.6174 10.5773C46.5523 11.0186 45.642 11.7659 45.0017 12.7246C44.3613 13.6833 44.0196 14.8104 44.0198 15.9633C44.0218 17.5085 44.6365 18.9899 45.7293 20.0824C46.822 21.175 48.3035 21.7895 49.8487 21.7912V21.7912ZM49.8487 12.239C50.5864 12.239 51.3075 12.4577 51.9208 12.8675C52.5341 13.2773 53.0121 13.8598 53.2944 14.5413C53.5767 15.2228 53.6505 15.9727 53.5066 16.6961C53.3627 17.4196 53.0075 18.0841 52.4859 18.6057C51.9644 19.1273 51.2998 19.4825 50.5763 19.6264C49.8529 19.7703 49.103 19.6965 48.4215 19.4142C47.74 19.1319 47.1575 18.6539 46.7477 18.0406C46.3379 17.4272 46.1192 16.7062 46.1192 15.9685C46.1189 14.9788 46.5116 14.0295 47.2109 13.3292C47.9103 12.6289 48.859 12.2348 49.8487 12.2337V12.239ZM57.7571 25.8178C57.0958 25.1244 56.3002 24.5732 55.4187 24.1976C54.5373 23.822 53.5885 23.63 52.6304 23.6334H47.0671C45.5339 23.6343 44.042 24.1306 42.8137 25.0481C41.5853 25.9657 40.6863 27.2555 40.2504 28.7254C38.83 27.7034 37.1233 27.1557 35.3735 27.1603H28.6345C26.8847 27.1557 25.178 27.7034 23.7576 28.7254C23.3218 27.2555 22.4227 25.9657 21.1944 25.0481C19.966 24.1306 18.4742 23.6343 16.941 23.6334H11.3776C10.4198 23.6336 9.47198 23.8273 8.59088 24.2027C7.70978 24.5782 6.91358 25.1278 6.25005 25.8185C5.58652 26.5091 5.06931 27.3267 4.72946 28.2222C4.3896 29.1176 4.23409 30.0725 4.27225 31.0295L4.89157 44.6125C4.904 44.8824 5.02005 45.1372 5.21558 45.3237C5.4111 45.5102 5.67103 45.6142 5.94126 45.6139H20.6905L21.0001 52.3319C21.0125 52.6018 21.1286 52.8566 21.3241 53.0431C21.5196 53.2296 21.7796 53.3336 22.0498 53.3333H41.9593C42.2295 53.3336 42.4894 53.2296 42.685 53.0431C42.8805 52.8566 42.9965 52.6018 43.009 52.3319L43.3239 45.6139H58.0678C58.338 45.6142 58.598 45.5102 58.7935 45.3237C58.989 45.1372 59.1051 44.8824 59.1175 44.6125L59.7368 31.0232C59.7787 30.0657 59.6248 29.1096 59.2844 28.2137C58.9439 27.3177 58.4243 26.5007 57.7571 25.8125V25.8178ZM6.94266 43.5092L6.36953 30.934C6.3434 30.2599 6.45358 29.5876 6.69348 28.9571C6.93338 28.3267 7.29806 27.7512 7.76567 27.2651C8.23329 26.7789 8.79421 26.3922 9.41485 26.128C10.0355 25.8638 10.7031 25.7276 11.3776 25.7275H16.941C18.231 25.722 19.4726 26.2185 20.4031 27.112C21.3336 28.0055 21.8801 29.2259 21.927 30.5151C20.7615 32.056 20.1678 33.954 20.2475 35.8843L20.5981 43.5092H6.94266ZM23.0512 51.2339L22.7436 44.5652V44.5589V44.5474L22.3406 35.7961C22.3078 34.9488 22.4464 34.1035 22.7482 33.3111C23.05 32.5186 23.5088 31.7953 24.0969 31.1844C24.685 30.5735 25.3905 30.0877 26.1709 29.7561C26.9513 29.4244 27.7907 29.2538 28.6387 29.2545H35.3777C36.225 29.2539 37.0636 29.4242 37.8435 29.7553C38.6234 30.0865 39.3284 30.5715 39.9164 31.1815C40.5044 31.7915 40.9633 32.5138 41.2657 33.3053C41.568 34.0967 41.7075 34.9411 41.6759 35.7877L41.2728 44.5484V44.5589V44.5652L40.9652 51.2339H23.0512ZM57.0612 43.5092H43.4141L43.7647 35.8759C43.8432 33.948 43.2495 32.0527 42.0852 30.5141C42.1324 29.2258 42.6784 28.0063 43.608 27.1131C44.5376 26.22 45.7779 25.7231 47.0671 25.7275H52.6304C53.3044 25.7276 53.9714 25.8636 54.5917 26.1274C55.2119 26.3912 55.7725 26.7774 56.24 27.2629C56.7075 27.7483 57.0724 28.3231 57.3126 28.9528C57.5529 29.5825 57.6638 30.2542 57.6385 30.9277L57.0612 43.5092Z" fill="#FDC368"/>
</svg>
