<svg width="1077" height="1042" viewBox="0 0 1077 1042" fill="none" xmlns="http://www.w3.org/2000/svg">
<path opacity="0.64" d="M1076.3 0C1078.38 88.66 815.882 185.26 386.462 240.25C-194.408 314.64 -30.9782 920 293.812 1011.7C731.542 1135.31 1076.3 839 1076.3 839" fill="#D5E5FF"/>
<path d="M483.312 483.23H300.962C295.439 483.23 290.962 487.707 290.962 493.23V776.29C290.962 781.813 295.439 786.29 300.962 786.29H483.312C488.835 786.29 493.312 781.813 493.312 776.29V493.23C493.312 487.707 488.835 483.23 483.312 483.23Z" fill="#F9F3F1"/>
<path opacity="0.8" d="M492.932 483.15H290.962V592.56H492.932V483.15Z" fill="#D5E5FF"/>
<path opacity="0.15" d="M469.302 482L338.802 517.54V537.9L290.572 552.7V576.57L340.572 561.21L340.742 538.49L443.092 508.79V523.4L493.672 506.81C493.672 506.81 500.382 476 469.302 482Z" fill="white"/>
<path opacity="0.15" d="M492.942 573.7V592.56H435.282L492.942 573.7Z" fill="white"/>
<path opacity="0.15" d="M491.992 542.66L443.122 558.36L328.122 593.02H378.032L443.122 573.39V564.78L491.992 549.43C491.992 549.43 491.222 552.57 491.992 542.66Z" fill="white"/>
<path d="M487.942 483.15H295.592C292.83 483.15 290.592 485.388 290.592 488.15V781.21C290.592 783.971 292.83 786.21 295.592 786.21H487.942C490.703 786.21 492.942 783.971 492.942 781.21V488.15C492.942 485.388 490.703 483.15 487.942 483.15Z" stroke="#B8D1FF" stroke-width="6" stroke-miterlimit="10"/>
<path d="M961.432 268H777.212C771.672 268 767.182 272.491 767.182 278.03V562.93C767.182 568.469 771.672 572.96 777.212 572.96H961.432C966.971 572.96 971.462 568.469 971.462 562.93V278.03C971.462 272.491 966.971 268 961.432 268Z" fill="#F9F3F1"/>
<path d="M338.822 483.41V592.56" stroke="#B8D1FF" stroke-width="4" stroke-miterlimit="10"/>
<path d="M443.132 483.87V593.02" stroke="#B8D1FF" stroke-width="4" stroke-miterlimit="10"/>
<path d="M290.962 563.09H493.442" stroke="#B8D1FF" stroke-width="4" stroke-miterlimit="10"/>
<path d="M290.962 593.02H493.442" stroke="#B8D1FF" stroke-width="7" stroke-miterlimit="10"/>
<path opacity="0.8" d="M971.722 270.63H769.752V399.15H971.722V270.63Z" fill="#D5E5FF"/>
<path opacity="0.15" d="M948.112 269.23L817.612 311V334.91L769.382 352.3V380.3L819.382 362.25L819.552 335.56L921.902 300.68V317.89L972.482 298.4C972.482 298.4 979.172 262.26 948.112 269.23Z" fill="white"/>
<path opacity="0.15" d="M971.722 376.99V399.15H914.072L971.722 376.99Z" fill="white"/>
<path opacity="0.15" d="M970.782 340.53L921.912 359L806.912 399.71H856.822L921.922 376.65V366.51L970.792 348.51C970.792 348.51 970.012 352.17 970.782 340.53Z" fill="white"/>
<path d="M966.922 268.34H772.642C769.88 268.34 767.642 270.578 767.642 273.34V568.3C767.642 571.061 769.88 573.3 772.642 573.3H966.922C969.683 573.3 971.922 571.061 971.922 568.3V273.34C971.922 270.578 969.683 268.34 966.922 268.34Z" stroke="#B8D1FF" stroke-width="6" stroke-miterlimit="10"/>
<path d="M289.972 789.31L269.872 818.22V818.29H509.092V818.23L492.742 789.31H289.972Z" fill="#CAB497"/>
<path d="M645.092 351.6H561.092C558.883 351.6 557.092 353.391 557.092 355.6V376.6C557.092 378.809 558.883 380.6 561.092 380.6H645.092C647.301 380.6 649.092 378.809 649.092 376.6V355.6C649.092 353.391 647.301 351.6 645.092 351.6Z" stroke="#B8D1FF" stroke-width="2" stroke-miterlimit="10"/>
<path d="M569.092 313.6H485.092C482.883 313.6 481.092 315.391 481.092 317.6V338.6C481.092 340.809 482.883 342.6 485.092 342.6H569.092C571.301 342.6 573.092 340.809 573.092 338.6V317.6C573.092 315.391 571.301 313.6 569.092 313.6Z" fill="#FBB03B"/>
<path d="M840.192 808.77H756.192C753.983 808.77 752.192 810.561 752.192 812.77V833.77C752.192 835.979 753.983 837.77 756.192 837.77H840.192C842.401 837.77 844.192 835.979 844.192 833.77V812.77C844.192 810.561 842.401 808.77 840.192 808.77Z" stroke="#B8D1FF" stroke-width="2" stroke-miterlimit="10"/>
<path d="M778.192 846.77H694.192C691.983 846.77 690.192 848.561 690.192 850.77V871.77C690.192 873.979 691.983 875.77 694.192 875.77H778.192C780.401 875.77 782.192 873.979 782.192 871.77V850.77C782.192 848.561 780.401 846.77 778.192 846.77Z" fill="#FBB03B"/>
<path d="M220.642 588.77H136.642C134.433 588.77 132.642 590.561 132.642 592.77V613.77C132.642 615.979 134.433 617.77 136.642 617.77H220.642C222.851 617.77 224.642 615.979 224.642 613.77V592.77C224.642 590.561 222.851 588.77 220.642 588.77Z" fill="#FBB03B"/>
<path d="M526.582 695.74C603.652 697.27 651.192 637.92 634.052 599.33C617.402 561.84 573.742 570.79 562.372 596.65C533.492 662.38 621.942 683.65 649.272 668.22C715.952 630.51 632.642 555.09 691.892 501.48C705.672 489.01 721.502 479.48 734.732 476.57" stroke="#FBB03B" stroke-width="3" stroke-miterlimit="10"/>
<path d="M814.972 270.21V399.69" stroke="#B8D1FF" stroke-width="4" stroke-miterlimit="10"/>
<path d="M920.272 270.76V400.23" stroke="#B8D1FF" stroke-width="4" stroke-miterlimit="10"/>
<path d="M766.652 364.72H971.072" stroke="#B8D1FF" stroke-width="4" stroke-miterlimit="10"/>
<path d="M766.652 400.23H971.072" stroke="#B8D1FF" stroke-width="7" stroke-miterlimit="10"/>
<path d="M767.542 573.78L747.302 602.86C747.296 602.865 747.291 602.871 747.287 602.878C747.284 602.885 747.282 602.892 747.282 602.9C747.282 602.908 747.284 602.915 747.287 602.922C747.291 602.929 747.296 602.935 747.302 602.94H988.022V602.88L971.572 573.78H767.542Z" fill="#CAB497"/>
<path d="M988.282 604.21H747.402V659.99H988.282V604.21Z" fill="#B8D1FF" stroke="#B8D1FF" stroke-width="7" stroke-miterlimit="10"/>
<path d="M767.692 571.24L747.462 600.32V600.4H988.172C988.172 600.4 988.232 600.4 988.172 600.34L971.722 571.24H767.692Z" stroke="#B8D1FF" stroke-width="7" stroke-miterlimit="10"/>
<path d="M462.022 637C462.022 637 483.532 635.79 487.912 654.64C487.912 654.64 491.212 667.39 512.142 673.29C523.042 676.37 525.222 684.23 524.822 691.06C524.313 698.595 526.433 706.074 530.822 712.22C532.17 714.291 533.299 716.496 534.192 718.8C547.322 748.11 516.372 767.52 516.372 767.52L421.142 740.28C421.142 740.28 397.752 723.28 418.472 701.87C418.472 701.87 419.902 699.19 417.272 693.07C416.37 691.016 416.037 688.756 416.307 686.529C416.578 684.302 417.443 682.188 418.812 680.41C421.283 677.373 424.133 674.664 427.292 672.35C432.176 668.652 436.007 663.739 438.402 658.1C442.032 649.55 449.302 637.68 462.022 637Z" fill="#FF3200"/>
<path d="M501.302 682.77L525.862 687.29C526.291 687.369 526.687 687.572 527.002 687.875C527.316 688.177 527.535 688.565 527.632 688.99C528.489 693.294 527.78 697.763 525.632 701.59C525.414 701.995 525.076 702.322 524.663 702.524C524.251 702.727 523.785 702.795 523.332 702.72L498.812 698.94C498.812 698.94 502.442 692.47 501.302 682.77Z" fill="#7AB1D1"/>
<path d="M502.773 691.259C503.461 686.794 502.802 682.987 501.301 682.756C499.8 682.524 498.025 685.956 497.337 690.421C496.649 694.886 497.308 698.694 498.809 698.925C500.31 699.156 502.085 695.724 502.773 691.259Z" fill="#B8D1FF"/>
<path d="M522.662 686.79C523.231 689.408 523.277 692.114 522.796 694.75C522.315 697.386 521.318 699.901 519.862 702.15" stroke="#B8D1FF" stroke-width="0.25" stroke-miterlimit="10" stroke-linecap="round"/>
<path d="M520.292 754.66L503.602 765.62L505.792 705.68L515.432 704.35L520.292 754.66Z" fill="#FFB4A5"/>
<path d="M515.482 704.89C515.482 704.89 518.992 693.39 518.802 689.61C518.542 684.53 513.802 683.17 512.212 684.02C510.282 685.07 514.422 691.48 508.542 696.95C507.082 698.3 504.722 699.78 502.752 699.51C502.302 699.44 502.092 699.27 502.752 700.11C503.948 702.006 504.953 704.015 505.752 706.11L515.482 704.89Z" fill="#FFB4A5"/>
<path d="M471.352 704.12L452.162 698.79C440.742 695.05 436.342 683.27 440.032 672.04L443.842 657.78C444.494 655.423 445.62 653.224 447.151 651.316C448.682 649.409 450.585 647.834 452.745 646.686C454.905 645.539 457.276 644.844 459.713 644.643C462.151 644.443 464.604 644.741 466.922 645.52L470.292 646.62C472.53 647.336 474.605 648.485 476.398 650.003C478.192 651.52 479.669 653.376 480.745 655.465C481.821 657.553 482.475 659.833 482.67 662.174C482.866 664.515 482.598 666.872 481.882 669.11L471.352 704.12Z" fill="#FFB4A5"/>
<path d="M503.912 757.07L503.142 758.07L497.572 739.87L493.972 740.97L497.572 739.88C493.272 718.24 482.042 715.66 482.042 715.66V715.77C480.94 715.372 479.79 715.123 478.622 715.03L449.772 712.67C400.222 704.29 391.192 788.34 391.192 788.34L490.102 788.62L491.712 768.83L492.822 770.83C492.822 770.83 518.572 809.9 520.302 754.72C520.302 754.66 511.922 758.83 503.912 757.07Z" fill="#7AB1D1"/>
<path d="M466.595 669.801C466.731 668.928 466.372 668.147 465.793 668.057C465.215 667.967 464.636 668.602 464.5 669.475C464.364 670.348 464.723 671.129 465.302 671.219C465.88 671.309 466.459 670.674 466.595 669.801Z" fill="#1A1A1A"/>
<path d="M456.232 668.94C456.232 668.94 448.902 677.32 454.362 677.61" stroke="#FF8674" stroke-width="0.5" stroke-miterlimit="10" stroke-linecap="round"/>
<path d="M451.862 683.79C452.862 683.52 458.172 682.02 461.212 679.55C461.231 679.534 461.255 679.524 461.279 679.519C461.304 679.515 461.33 679.516 461.354 679.524C461.378 679.532 461.399 679.546 461.416 679.565C461.433 679.583 461.446 679.606 461.452 679.63C461.758 681.025 461.589 682.482 460.972 683.77C460.684 684.428 460.262 685.02 459.733 685.506C459.205 685.993 458.581 686.365 457.901 686.598C457.222 686.831 456.501 686.92 455.785 686.861C455.069 686.801 454.373 686.593 453.742 686.25C452.847 685.739 452.144 684.949 451.742 684C451.732 683.979 451.728 683.955 451.729 683.932C451.73 683.908 451.737 683.885 451.749 683.865C451.76 683.844 451.777 683.827 451.796 683.814C451.816 683.801 451.838 683.793 451.862 683.79V683.79Z" fill="white"/>
<path d="M448.914 666.377C449.224 665.549 449.03 664.712 448.482 664.507C447.933 664.302 447.238 664.807 446.929 665.635C446.619 666.463 446.813 667.3 447.361 667.505C447.91 667.71 448.605 667.205 448.914 666.377Z" fill="#1A1A1A"/>
<path d="M465.122 661.55C465.122 661.55 471.262 662.64 472.222 667.01" stroke="#FF3200" stroke-miterlimit="10" stroke-linecap="round"/>
<path d="M450.492 659.58C449.164 659.084 447.716 659.01 446.345 659.368C444.974 659.726 443.747 660.498 442.832 661.58" stroke="#FF3200" stroke-miterlimit="10" stroke-linecap="round"/>
<path d="M465.552 640.93C465.552 640.93 471.972 668.23 483.122 671.65C494.272 675.07 481.192 641.23 465.552 640.93Z" fill="#FF3200"/>
<path d="M468.672 643.78C468.672 643.78 456.042 656.5 443.362 655.29C443.362 655.29 446.352 638.75 468.672 643.78Z" fill="#FF3200"/>
<path d="M487.402 676.461C487.641 673.527 485.506 670.959 482.632 670.725C479.759 670.491 477.236 672.679 476.997 675.613C476.757 678.547 478.893 681.115 481.766 681.35C484.64 681.584 487.163 679.395 487.402 676.461Z" fill="#FFB4A5"/>
<path d="M481.302 673.27C481.302 673.27 485.722 672.45 484.802 677.14" stroke="#FF8674" stroke-width="0.5" stroke-miterlimit="10" stroke-linecap="round"/>
<path d="M451.752 712.79L458.202 690.56H473.692L473.452 714.66C472.772 717.198 471.199 719.404 469.022 720.874C466.844 722.344 464.21 722.978 461.602 722.66C451.832 721.89 451.752 712.79 451.752 712.79Z" fill="#FFB4A5"/>
<path d="M455.542 699.73C455.542 699.73 461.542 700.33 465.842 697.85C465.842 697.85 461.222 703.85 454.362 703.79L455.542 699.73Z" fill="#FFA490"/>
<path d="M290.122 785.79L270.012 814.7V814.77H509.302C509.302 814.77 509.362 814.77 509.302 814.71L492.962 785.79H290.122Z" stroke="#B8D1FF" stroke-width="7" stroke-miterlimit="10"/>
<path d="M509.352 818.55H269.962V873.99H509.352V818.55Z" fill="#B8D1FF" stroke="#B8D1FF" stroke-width="7" stroke-miterlimit="10"/>
<path d="M794.652 418.4C794.652 418.4 773.432 417.2 769.102 435.81C769.102 435.81 764.772 450.6 753.622 454.81C743.162 458.75 751.522 476.81 754.872 482.71C758.322 488.71 776.452 492.35 772.072 498.4C770.552 500.51 858.072 503.57 837.622 482.4C837.622 482.4 836.212 479.76 838.812 473.72C839.698 471.688 840.024 469.456 839.755 467.256C839.486 465.056 838.632 462.968 837.282 461.21C834.841 458.218 832.028 455.55 828.912 453.27C824.077 449.623 820.284 444.772 817.912 439.2C814.392 430.78 807.232 419.06 794.652 418.4Z" fill="#251C0B"/>
<path d="M755.862 463.57L731.612 468C731.187 468.076 730.794 468.277 730.483 468.576C730.172 468.875 729.955 469.259 729.862 469.68C729.033 473.933 729.742 478.341 731.862 482.12C732.078 482.518 732.413 482.839 732.82 483.038C733.226 483.236 733.685 483.304 734.132 483.23L758.332 479.5C758.332 479.5 754.762 473.15 755.862 463.57Z" fill="#00A99D"/>
<path d="M758.313 479.561C759.792 479.333 760.441 475.578 759.762 471.173C759.083 466.768 757.334 463.382 755.855 463.61C754.375 463.838 753.726 467.593 754.405 471.998C755.084 476.403 756.833 479.789 758.313 479.561Z" fill="#6BC79D"/>
<path d="M734.802 467.54C734.24 470.124 734.195 472.794 734.669 475.395C735.143 477.997 736.126 480.48 737.562 482.7" stroke="white" stroke-width="0.25" stroke-miterlimit="10" stroke-linecap="round"/>
<path d="M736.912 534.54L753.622 545.36L751.462 486.18L741.942 484.87L736.912 534.54Z" fill="#C6813D"/>
<path d="M741.892 485.4C741.892 485.4 738.422 474.05 738.612 470.32C738.862 465.32 743.612 463.96 745.122 464.8C747.022 465.8 742.942 472.16 748.742 477.56C750.182 478.9 752.512 480.36 754.452 480.09C754.902 480.03 755.102 479.85 754.452 480.68C753.261 482.54 752.256 484.513 751.452 486.57L741.892 485.4Z" fill="#C6813D"/>
<path d="M785.452 484.65L804.402 479.38C815.662 475.69 820.012 464.07 816.402 452.97L812.642 438.9C812.001 436.57 810.891 434.396 809.38 432.511C807.87 430.626 805.99 429.069 803.856 427.936C801.722 426.803 799.379 426.118 796.971 425.922C794.563 425.727 792.14 426.026 789.852 426.8L786.532 427.89C784.322 428.595 782.273 429.729 780.502 431.227C778.73 432.725 777.271 434.556 776.208 436.618C775.145 438.68 774.498 440.93 774.305 443.242C774.111 445.553 774.376 447.88 775.082 450.09L785.452 484.65Z" fill="#C6813D"/>
<path d="M864.362 567.73C864.362 567.73 855.452 484.73 806.542 493.04L778.062 495.36C770.692 495.96 766.772 502.14 764.222 508.52C762.335 512.167 760.779 515.975 759.572 519.9L762.882 520.9L759.562 519.9L753.042 536.9C745.152 538.62 736.902 534.52 736.902 534.52C732.962 591.03 764.032 550.41 764.032 550.41L765.122 548.41L766.722 567.95L864.362 567.73Z" fill="#FF3200"/>
<path d="M791.411 452.169C791.984 452.08 792.34 451.309 792.206 450.446C792.071 449.584 791.498 448.957 790.925 449.046C790.352 449.136 789.996 449.907 790.13 450.769C790.264 451.631 790.838 452.258 791.411 452.169Z" fill="#1A1A1A"/>
<path d="M800.382 449.92C800.382 449.92 807.612 458.19 802.222 458.47" stroke="#754C24" stroke-width="0.5" stroke-miterlimit="10" stroke-linecap="round"/>
<path d="M804.692 464.57C803.692 464.31 798.462 462.83 795.462 460.39C795.442 460.374 795.419 460.363 795.394 460.359C795.369 460.354 795.344 460.356 795.32 460.364C795.296 460.372 795.274 460.386 795.257 460.404C795.24 460.423 795.228 460.445 795.222 460.47C794.915 461.847 795.081 463.288 795.692 464.56C795.979 465.209 796.397 465.792 796.921 466.271C797.444 466.75 798.061 467.116 798.733 467.346C799.404 467.575 800.116 467.662 800.823 467.603C801.531 467.543 802.218 467.338 802.842 467C803.736 466.501 804.439 465.721 804.842 464.78C804.85 464.756 804.852 464.731 804.848 464.706C804.844 464.681 804.835 464.657 804.82 464.637C804.805 464.616 804.786 464.6 804.764 464.588C804.742 464.576 804.717 464.57 804.692 464.57V464.57Z" fill="white"/>
<path d="M809.064 448.73C809.607 448.527 809.8 447.7 809.494 446.883C809.189 446.065 808.501 445.567 807.958 445.77C807.414 445.973 807.222 446.8 807.527 447.618C807.833 448.435 808.521 448.933 809.064 448.73Z" fill="#1A1A1A"/>
<path d="M791.602 442.62C791.602 442.62 785.542 443.7 784.602 448.01" stroke="#251C0B" stroke-miterlimit="10" stroke-linecap="round"/>
<path d="M806.042 440.67C807.352 440.181 808.78 440.106 810.133 440.455C811.487 440.804 812.701 441.559 813.612 442.62" stroke="#251C0B" stroke-miterlimit="10" stroke-linecap="round"/>
<path d="M791.172 422.27C791.172 422.27 784.832 449.27 773.832 452.59C762.832 455.91 775.742 422.57 791.172 422.27Z" fill="#251C0B"/>
<path d="M788.102 425.08C788.102 425.08 800.562 437.64 813.102 436.44C813.082 436.44 810.132 420.12 788.102 425.08Z" fill="#251C0B"/>
<path d="M779.908 465.757C782.752 465.53 784.87 462.99 784.637 460.085C784.405 457.18 781.911 455.01 779.066 455.237C776.222 455.465 774.105 458.004 774.337 460.909C774.569 463.814 777.064 465.985 779.908 465.757Z" fill="#C6813D"/>
<path d="M775.662 454.19C775.662 454.19 771.292 453.38 772.202 458.01" stroke="#754C24" stroke-width="0.5" stroke-miterlimit="10" stroke-linecap="round"/>
<path d="M804.802 493.2L798.432 471.26H783.142L783.382 495.05C784.054 497.551 785.607 499.726 787.755 501.174C789.902 502.622 792.501 503.245 795.072 502.93C804.722 502.19 804.802 493.2 804.802 493.2Z" fill="#C6813D"/>
<path d="M801.062 480.31C801.062 480.31 795.162 480.9 790.892 478.45C790.892 478.45 795.452 484.38 802.222 484.31L801.062 480.31Z" fill="#B8702F"/>
<path d="M352.542 730.29C352.542 730.29 330.632 747.52 330.632 811.1" stroke="#5D9F73" stroke-width="4" stroke-miterlimit="10"/>
<path d="M363.238 723.616C365.484 721.15 366.09 718.044 364.591 716.68C363.093 715.315 360.057 716.208 357.811 718.675C355.565 721.141 354.96 724.247 356.458 725.612C357.957 726.976 360.993 726.083 363.238 723.616Z" fill="#FBB03B"/>
<path d="M355.032 715.44C355.032 715.44 338.942 728.72 348.352 733.66C354.632 736.96 359.202 724.09 359.202 724.09C359.202 724.09 363.102 708.72 355.032 715.44Z" fill="#F7931E"/>
<path d="M366.952 726.25C366.952 726.25 355.232 743.51 349.432 734.6C345.562 728.6 357.952 722.9 357.952 722.9C357.952 722.9 372.892 717.59 366.952 726.25Z" fill="#FF7D00"/>
<path d="M331.412 791.16C331.412 791.16 347.682 786.29 360.142 763.06C360.142 763.06 335.952 775.73 331.412 791.16Z" fill="#5D9F73"/>
<path d="M290.592 758.48C290.592 758.48 319.982 771.63 319.982 811.1" stroke="#5D9F73" stroke-width="4" stroke-miterlimit="10"/>
<path d="M279.432 746.15C282.202 748 283.542 750.87 282.432 752.56C281.322 754.25 278.142 754.11 275.372 752.26C272.602 750.41 272.092 746.32 272.372 745.86C272.842 745.12 276.652 744.3 279.432 746.15Z" fill="#FBCD3B"/>
<path d="M272.472 755.54C272.472 755.54 288.002 769.46 291.472 759.42C293.792 752.71 280.392 750.12 280.392 750.12C280.392 750.12 264.622 748.57 272.472 755.54Z" fill="#F7931E"/>
<path d="M281.362 742.13C281.362 742.13 300.192 751.13 292.252 758.2C286.942 762.92 279.402 751.54 279.402 751.54C279.402 751.54 271.922 737.56 281.362 742.13Z" fill="#FF7D00"/>
<path d="M308.672 773.2C308.672 773.2 313.772 766.41 311.882 753.37C311.882 753.37 305.912 765.65 308.672 773.2Z" fill="#5D9F73"/>
<path d="M318.852 795.26C318.852 795.26 307.852 794.42 296.642 781.37C296.642 781.37 313.802 786.07 318.852 795.26Z" fill="#5D9F73"/>
<path d="M394.052 758.43C394.052 758.43 364.662 771.59 364.662 811.05" stroke="#5D9F73" stroke-width="4" stroke-miterlimit="10"/>
<path d="M405.222 746.1C402.442 747.95 401.112 750.82 402.222 752.51C403.332 754.2 406.512 754.07 409.282 752.22C412.052 750.37 412.572 746.28 412.282 745.81C411.812 745.08 407.992 744.25 405.222 746.1Z" fill="#FBCD3B"/>
<path d="M412.182 755.49C412.182 755.49 396.642 769.41 393.182 759.37C390.852 752.66 404.262 750.07 404.262 750.07C404.262 750.07 420.032 748.52 412.182 755.49Z" fill="#F7931E"/>
<path d="M403.302 742.09C403.302 742.09 384.482 751.09 392.422 758.15C397.722 762.87 405.262 751.49 405.262 751.49C405.262 751.49 412.732 737.51 403.302 742.09Z" fill="#FF7D00"/>
<path d="M375.982 773.16C375.982 773.16 370.882 766.37 372.762 753.32C372.762 753.32 378.732 765.6 375.982 773.16Z" fill="#5D9F73"/>
<path d="M365.802 795.21C365.802 795.21 376.802 794.38 388.012 781.32C388.012 781.32 370.842 786 365.802 795.21Z" fill="#5D9F73"/>
<path d="M932.912 516.42C932.912 516.42 911.002 533.65 911.002 597.23" stroke="#5D9F73" stroke-width="4" stroke-miterlimit="10"/>
<path d="M943.552 509.724C945.798 507.257 946.404 504.152 944.905 502.787C943.407 501.422 940.371 502.316 938.125 504.782C935.879 507.249 935.274 510.354 936.772 511.719C938.271 513.084 941.307 512.19 943.552 509.724Z" fill="#DA7582"/>
<path d="M935.402 501.57C935.402 501.57 919.312 514.84 928.722 519.79C935.002 523.09 939.572 510.22 939.572 510.22C939.572 510.22 943.472 494.85 935.402 501.57Z" fill="#EEB6B5"/>
<path d="M947.302 512.37C947.302 512.37 935.582 529.63 929.792 520.73C925.912 514.73 938.302 509.03 938.302 509.03C938.302 509.03 953.302 503.72 947.302 512.37Z" fill="#E19AB3"/>
<path d="M911.782 577.29C911.782 577.29 928.052 572.42 940.512 549.18C940.512 549.18 916.302 561.86 911.782 577.29Z" fill="#5D9F73"/>
<path d="M866.982 544.56C866.982 544.56 896.372 557.71 896.372 597.18" stroke="#5D9F73" stroke-width="4" stroke-miterlimit="10"/>
<path d="M855.822 532.23C858.592 534.08 859.932 536.95 858.822 538.64C857.712 540.33 854.542 540.19 851.762 538.34C848.982 536.49 848.482 532.4 848.762 531.94C849.232 531.2 853.052 530.38 855.822 532.23Z" fill="#DA7582"/>
<path d="M848.862 541.61C848.862 541.61 864.402 555.54 867.862 545.5C870.192 538.79 856.782 536.2 856.782 536.2C856.782 536.2 841.012 534.65 848.862 541.61Z" fill="#EEB6B5"/>
<path d="M857.762 528.21C857.762 528.21 876.582 537.21 868.642 544.28C863.342 549 855.802 537.62 855.802 537.62C855.802 537.62 848.302 523.64 857.762 528.21Z" fill="#E19AB3"/>
<path d="M885.062 559.28C885.062 559.28 890.162 552.49 888.282 539.45C888.302 539.45 882.302 551.72 885.062 559.28Z" fill="#5D9F73"/>
<path d="M895.242 581.34C895.242 581.34 884.242 580.5 873.032 567.45C873.032 567.45 890.202 572.15 895.242 581.34Z" fill="#5D9F73"/>
<path d="M985.492 544.56C985.492 544.56 956.102 557.71 956.102 597.18" stroke="#5D9F73" stroke-width="4" stroke-miterlimit="10"/>
<path d="M996.652 532.23C993.882 534.08 992.542 536.95 993.652 538.64C994.762 540.33 997.942 540.19 1000.71 538.34C1003.48 536.49 1004.61 533.23 1003.71 531.94C1002.81 530.65 999.422 530.38 996.652 532.23Z" fill="#DA7582"/>
<path d="M1003.61 541.61C1003.61 541.61 988.082 555.54 984.612 545.5C982.292 538.79 995.692 536.2 995.692 536.2C995.692 536.2 1011.46 534.65 1003.61 541.61Z" fill="#EEB6B5"/>
<path d="M994.712 528.21C994.712 528.21 975.892 537.21 983.832 544.28C989.132 549 996.672 537.62 996.672 537.62C996.672 537.62 1004.16 523.64 994.712 528.21Z" fill="#E19AB3"/>
<path d="M967.412 559.28C967.412 559.28 962.312 552.49 964.192 539.45C964.192 539.45 970.162 551.72 967.412 559.28Z" fill="#5D9F73"/>
<path d="M957.232 581.34C957.232 581.34 968.232 580.5 979.442 567.45C979.442 567.45 962.302 572.15 957.232 581.34Z" fill="#5D9F73"/>
</svg>
