<svg width="64" height="64" viewBox="0 0 64 64" fill="none" xmlns="http://www.w3.org/2000/svg">
<path d="M54.2367 16.6437L49.4524 11.8594C49.0743 11.4813 48.6254 11.1814 48.1314 10.9767C47.6374 10.7721 47.1079 10.6667 46.5732 10.6667C46.0384 10.6667 45.5089 10.7721 45.0149 10.9767C44.5209 11.1814 44.072 11.4813 43.6939 11.8594L17.6794 37.8658C17.6211 37.9314 17.5722 38.0047 17.5338 38.0836C17.2981 38.2025 17.1184 38.4089 17.033 38.6588L14.764 45.2947C14.7172 45.4339 14.7011 45.5816 14.7167 45.7276C14.7323 45.8736 14.7794 46.0145 14.8546 46.1406L13.4549 50.0332C13.344 50.3401 13.3084 50.6692 13.3513 50.9927C13.3941 51.3162 13.5141 51.6247 13.7011 51.8921C13.8881 52.1595 14.1367 52.3781 14.4258 52.5294C14.715 52.6806 15.0362 52.7602 15.3626 52.7613C15.6003 52.7612 15.8362 52.7199 16.0599 52.6392L19.9698 51.2313C20.0913 51.3102 20.2294 51.3599 20.3733 51.3767C20.5172 51.3935 20.663 51.3768 20.7994 51.328L27.4354 49.0591C27.6847 48.9734 27.8907 48.7937 28.0095 48.5582C28.0886 48.5197 28.1622 48.4707 28.2283 48.4127L54.2367 22.4022C54.6148 22.0241 54.9148 21.5753 55.1194 21.0812C55.3241 20.5872 55.4294 20.0577 55.4294 19.523C55.4294 18.9883 55.3241 18.4588 55.1194 17.9647C54.9148 17.4707 54.6148 17.0218 54.2367 16.6437ZM15.3687 50.7234L16.4324 47.7714L18.0978 49.4357L18.3227 49.6617L15.3687 50.7234ZM20.7393 49.1965L19.5371 47.9943L16.8956 45.3527L18.6363 40.263L25.8301 47.4558L20.7393 49.1965ZM27.5025 46.2536L19.8344 38.5855L41.6316 16.7924L49.3007 24.4605L27.5025 46.2536ZM52.7974 20.9629L50.7401 23.0211L43.0709 15.353L45.1292 13.2947C45.3183 13.1056 45.5427 12.9555 45.7898 12.8532C46.0369 12.7508 46.3017 12.6981 46.5691 12.6981C46.8365 12.6981 47.1013 12.7508 47.3484 12.8532C47.5954 12.9555 47.8199 13.1056 48.009 13.2947L52.7933 18.079C52.9833 18.2679 53.1342 18.4924 53.2372 18.7397C53.3403 18.987 53.3936 19.2522 53.3939 19.5201C53.3943 19.788 53.3418 20.0534 53.2395 20.3009C53.1371 20.5485 52.9868 20.7735 52.7974 20.9629ZM11.8262 28.8519V27.1153C11.8262 26.8453 11.9335 26.5864 12.1244 26.3955C12.3153 26.2046 12.5742 26.0974 12.8442 26.0974C13.1142 26.0974 13.3731 26.2046 13.564 26.3955C13.7549 26.5864 13.8621 26.8453 13.8621 27.1153V28.8519C13.8621 29.1219 13.7549 29.3808 13.564 29.5717C13.3731 29.7626 13.1142 29.8698 12.8442 29.8698C12.5742 29.8698 12.3153 29.7626 12.1244 29.5717C11.9335 29.3808 11.8262 29.1219 11.8262 28.8519ZM12.8442 35.9775C12.5742 35.9775 12.3153 35.8702 12.1244 35.6793C11.9335 35.4884 11.8262 35.2295 11.8262 34.9596V33.2229C11.8262 32.953 11.9335 32.6941 12.1244 32.5032C12.3153 32.3123 12.5742 32.205 12.8442 32.205C13.1142 32.205 13.3731 32.3123 13.564 32.5032C13.7549 32.6941 13.8621 32.953 13.8621 33.2229V34.9596C13.8621 35.2295 13.7549 35.4884 13.564 35.6793C13.3731 35.8702 13.1142 35.9775 12.8442 35.9775ZM13.8367 31.0374C13.8367 30.7675 13.9439 30.5085 14.1348 30.3176C14.3257 30.1267 14.5846 30.0195 14.8546 30.0195H16.1372C16.4072 30.0195 16.6661 30.1267 16.857 30.3176C17.0479 30.5085 17.1552 30.7675 17.1552 31.0374C17.1552 31.3074 17.0479 31.5663 16.857 31.7572C16.6661 31.9481 16.4072 32.0554 16.1372 32.0554H14.8546C14.5848 32.0551 14.3262 31.9477 14.1355 31.7569C13.9448 31.566 13.8377 31.3072 13.8377 31.0374H13.8367ZM11.8507 31.0374C11.8507 31.3074 11.7434 31.5663 11.5525 31.7572C11.3616 31.9481 11.1027 32.0554 10.8327 32.0554H9.55114C9.28117 32.0554 9.02225 31.9481 8.83135 31.7572C8.64045 31.5663 8.5332 31.3074 8.5332 31.0374C8.5332 30.7675 8.64045 30.5085 8.83135 30.3176C9.02225 30.1267 9.28117 30.0195 9.55114 30.0195H10.8338C10.9674 30.0195 11.0998 30.0458 11.2233 30.097C11.3468 30.1481 11.459 30.2231 11.5535 30.3176C11.6481 30.4122 11.723 30.5244 11.7742 30.6479C11.8254 30.7714 11.8517 30.9037 11.8517 31.0374H11.8507ZM45.9273 52.6015C45.9273 52.8715 45.82 53.1304 45.6291 53.3213C45.4382 53.5122 45.1793 53.6194 44.9093 53.6194H43.1381C42.8681 53.6194 42.6092 53.5122 42.4183 53.3213C42.2274 53.1304 42.1202 52.8715 42.1202 52.6015C42.1202 52.3315 42.2274 52.0726 42.4183 51.8817C42.6092 51.6908 42.8681 51.5836 43.1381 51.5836H44.9093C45.1793 51.5836 45.4382 51.6908 45.6291 51.8817C45.82 52.0726 45.9273 52.3315 45.9273 52.6015ZM40.9607 52.6015C40.9607 52.8715 40.8535 53.1304 40.6626 53.3213C40.4717 53.5122 40.2128 53.6194 39.9428 53.6194H26.6638C26.3938 53.6194 26.1349 53.5122 25.944 53.3213C25.7531 53.1304 25.6458 52.8715 25.6458 52.6015C25.6458 52.3315 25.7531 52.0726 25.944 51.8817C26.1349 51.6908 26.3938 51.5836 26.6638 51.5836H39.9469C40.2168 51.5836 40.4758 51.6908 40.6667 51.8817C40.8576 52.0726 40.9648 52.3315 40.9648 52.6015H40.9607ZM50.8734 48.9522C50.8734 49.2221 50.7662 49.4811 50.5753 49.672C50.3844 49.8629 50.1255 49.9701 49.8555 49.9701H38.5299C38.2599 49.9701 38.001 49.8629 37.8101 49.672C37.6192 49.4811 37.512 49.2221 37.512 48.9522C37.512 48.6822 37.6192 48.4233 37.8101 48.2324C38.001 48.0415 38.2599 47.9342 38.5299 47.9342H49.8596C50.1296 47.9342 50.3885 48.0415 50.5794 48.2324C50.7703 48.4233 50.8775 48.6822 50.8775 48.9522H50.8734Z" fill="#FDC368"/>
</svg>
