<svg xmlns="http://www.w3.org/2000/svg" xmlns:xlink="http://www.w3.org/1999/xlink" width="16" height="16" viewBox="0 0 16 16">
  <defs>
    <clipPath id="clip-path">
      <rect width="16" height="16" fill="none"/>
    </clipPath>
  </defs>
  <g id="Search" clip-path="url(#clip-path)">
    <rect id="Rectangle_176" data-name="Rectangle 176" width="16" height="16" fill="none"/>
    <path id="Path_99" data-name="Path 99" d="M15.9,14.5l-3.3-3.3A6.847,6.847,0,0,0,14,7,6.957,6.957,0,0,0,7,0,6.957,6.957,0,0,0,0,7a6.957,6.957,0,0,0,7,7,6.847,6.847,0,0,0,4.2-1.4l3.3,3.3ZM2,7A4.951,4.951,0,0,1,7,2a4.951,4.951,0,0,1,5,5,4.951,4.951,0,0,1-5,5A4.951,4.951,0,0,1,2,7Z" fill="#fff"/>
  </g>
</svg>
