<svg width="20" height="20" viewBox="0 0 20 20" fill="none" xmlns="http://www.w3.org/2000/svg">
<path d="M19.9999 18.2388L15.849 14.0879C17.0048 12.5705 17.6242 10.7123 17.61 8.80488C17.6171 7.64659 17.3943 6.4984 16.9544 5.42689C16.5144 4.35538 15.8661 3.38188 15.0471 2.56283C14.228 1.74378 13.2545 1.09548 12.183 0.655534C11.1115 0.215587 9.96329 -0.00725752 8.805 -7.59302e-05C7.64671 -0.00725752 6.49852 0.215587 5.42701 0.655534C4.3555 1.09548 3.382 1.74378 2.56295 2.56283C1.7439 3.38188 1.0956 4.35538 0.655656 5.42689C0.215709 6.4984 -0.00713545 7.64659 4.61401e-05 8.80488C-0.00713545 9.96317 0.215709 11.1114 0.655656 12.1829C1.0956 13.2544 1.7439 14.2279 2.56295 15.0469C3.382 15.866 4.3555 16.5143 5.42701 16.9542C6.49852 17.3942 7.64671 17.617 8.805 17.6098C10.7124 17.6241 12.5706 17.0047 14.088 15.8488L18.2389 19.9998L19.9999 18.2388ZM2.51575 8.80488C2.50751 7.97667 2.66456 7.15514 2.97771 6.38838C3.29086 5.62161 3.75381 4.92501 4.33947 4.33935C4.92513 3.75369 5.62173 3.29073 6.3885 2.97759C7.15527 2.66444 7.9768 2.50739 8.805 2.51563C9.63321 2.50739 10.4547 2.66444 11.2215 2.97759C11.9883 3.29073 12.6849 3.75369 13.2705 4.33935C13.8562 4.92501 14.3192 5.62161 14.6323 6.38838C14.9454 7.15514 15.1025 7.97667 15.0943 8.80488C15.1025 9.63309 14.9454 10.4546 14.6323 11.2214C14.3192 11.9882 13.8562 12.6848 13.2705 13.2704C12.6849 13.8561 11.9883 14.319 11.2215 14.6322C10.4547 14.9453 9.63321 15.1024 8.805 15.0941C7.9768 15.1024 7.15527 14.9453 6.3885 14.6322C5.62173 14.319 4.92513 13.8561 4.33947 13.2704C3.75381 12.6848 3.29086 11.9882 2.97771 11.2214C2.66456 10.4546 2.50751 9.63309 2.51575 8.80488V8.80488Z" fill="#A3A3A3"/>
</svg>
