<svg width="24" height="15" viewBox="0 0 24 15" fill="none" xmlns="http://www.w3.org/2000/svg">
    <path 
        d="M16.3636 6.32967C18.1745 6.32967 19.6255 4.91604 19.6255 3.16484C19.6255 1.41363 18.1745 0 16.3636 0C14.5527 0 13.0909 1.41363 13.0909 3.16484C13.0909 4.91604 14.5527 6.32967 16.3636 6.32967ZM7.63636 6.32967C9.44727 6.32967 10.8982 4.91604 10.8982 3.16484C10.8982 1.41363 9.44727 0 7.63636 0C5.82545 0 4.36364 1.41363 4.36364 3.16484C4.36364 4.91604 5.82545 6.32967 7.63636 6.32967ZM7.63636 8.43956C5.09455 8.43956 0 9.67385 0 12.1319V14.7692H15.2727V12.1319C15.2727 9.67385 10.1782 8.43956 7.63636 8.43956ZM16.3636 8.43956C16.0473 8.43956 15.6873 8.46066 15.3055 8.49231C16.5709 9.37846 17.4545 10.5705 17.4545 12.1319V14.7692H24V12.1319C24 9.67385 18.9055 8.43956 16.3636 8.43956Z" 
        fill="#8AB7FF"
    />
</svg>
